  0
SECTION
  2
HEADER
  9
$ACADVER
  1
AC1032
  9
$ACADMAINTVER
 90
4
  9
$DWGCODEPAGE
  3
ANSI_1252
  9
$LASTSAVEDBY
  1
ezdxf
  9
$REQUIREDVERSIONS
160
0
  9
$INSBASE
 10
0.0
 20
0.0
 30
0.0
  9
$EXTMIN
 10
1e+20
 20
1e+20
 30
1e+20
  9
$EXTMAX
 10
-1e+20
 20
-1e+20
 30
-1e+20
  9
$LIMMIN
 10
0.0
 20
0.0
  9
$LIMMAX
 10
420.0
 20
297.0
  9
$ORTHOMODE
 70
0
  9
$REGENMODE
 70
1
  9
$FILLMODE
 70
1
  9
$QTEXTMODE
 70
0
  9
$MIRRTEXT
 70
1
  9
$LTSCALE
 40
1.0
  9
$ATTMODE
 70
1
  9
$TEXTSIZE
 40
2.5
  9
$TRACEWID
 40
1.0
  9
$TEXTSTYLE
  7
OpenSans
  9
$CLAYER
  8
0
  9
$CELTYPE
  6
ByLayer
  9
$CECOLOR
 62
256
  9
$CELTSCALE
 40
1.0
  9
$DISPSILH
 70
0
  9
$DIMSCALE
 40
1.0
  9
$DIMASZ
 40
0.175
  9
$DIMEXO
 40
0.125
  9
$DIMDLI
 40
3.75
  9
$DIMRND
 40
0.0
  9
$DIMDLE
 40
0.0
  9
$DIMEXE
 40
0.375
  9
$DIMTP
 40
0.0
  9
$DIMTM
 40
0.0
  9
$DIMTXT
 40
0.25
  9
$DIMCEN
 40
2.5
  9
$DIMTSZ
 40
0.0
  9
$DIMTOL
 70
0
  9
$DIMLIM
 70
0
  9
$DIMTIH
 70
0
  9
$DIMTOH
 70
0
  9
$DIMSE1
 70
0
  9
$DIMSE2
 70
0
  9
$DIMTAD
 70
1
  9
$DIMZIN
 70
12
  9
$DIMBLK
  1
ARCHTICK
  9
$DIMASO
 70
1
  9
$DIMSHO
 70
1
  9
$DIMPOST
  1

  9
$DIMAPOST
  1

  9
$DIMALT
 70
0
  9
$DIMALTD
 70
3
  9
$DIMALTF
 40
0.03937007874
  9
$DIMLFAC
 40
100.0
  9
$DIMTOFL
 70
1
  9
$DIMTVP
 40
0.0
  9
$DIMTIX
 70
0
  9
$DIMSOXD
 70
0
  9
$DIMSAH
 70
0
  9
$DIMBLK1
  1

  9
$DIMBLK2
  1

  9
$DIMSTYLE
  2
EZDXF
  9
$DIMCLRD
 70
0
  9
$DIMCLRE
 70
0
  9
$DIMCLRT
 70
0
  9
$DIMTFAC
 40
0.5
  9
$DIMGAP
 40
0.1
  9
$DIMJUST
 70
0
  9
$DIMSD1
 70
0
  9
$DIMSD2
 70
0
  9
$DIMTOLJ
 70
0
  9
$DIMTZIN
 70
8
  9
$DIMALTZ
 70
0
  9
$DIMALTTZ
 70
0
  9
$DIMUPT
 70
1
  9
$DIMDEC
 70
2
  9
$DIMTDEC
 70
2
  9
$DIMALTU
 70
2
  9
$DIMALTTD
 70
3
  9
$DIMTXSTY
  7
OpenSansCondensed-Light
  9
$DIMAUNIT
 70
0
  9
$DIMADEC
 70
2
  9
$DIMALTRND
 40
0.0
  9
$DIMAZIN
 70
3
  9
$DIMDSEP
 70
46
  9
$DIMATFIT
 70
3
  9
$DIMFRAC
 70
0
  9
$DIMLDRBLK
  1

  9
$DIMLUNIT
 70
2
  9
$DIMLWD
 70
-2
  9
$DIMLWE
 70
-2
  9
$DIMTMOVE
 70
2
  9
$DIMFXL
 40
1.0
  9
$DIMFXLON
 70
0
  9
$DIMJOGANG
 40
0.785398163397
  9
$DIMTFILL
 70
0
  9
$DIMTFILLCLR
 70
0
  9
$DIMARCSYM
 70
0
  9
$DIMLTYPE
  6

  9
$DIMLTEX1
  6

  9
$DIMLTEX2
  6

  9
$DIMTXTDIRECTION
 70
0
  9
$LUNITS
 70
2
  9
$LUPREC
 70
4
  9
$SKETCHINC
 40
1.0
  9
$FILLETRAD
 40
10.0
  9
$AUNITS
 70
0
  9
$AUPREC
 70
2
  9
$MENU
  1
.
  9
$ELEVATION
 40
0.0
  9
$PELEVATION
 40
0.0
  9
$THICKNESS
 40
0.0
  9
$LIMCHECK
 70
0
  9
$CHAMFERA
 40
0.0
  9
$CHAMFERB
 40
0.0
  9
$CHAMFERC
 40
0.0
  9
$CHAMFERD
 40
0.0
  9
$SKPOLY
 70
0
  9
$TDCREATE
 40
2460889.8800578704
  9
$TDUCREATE
 40
2458532.153996898
  9
$TDUPDATE
 40
2460889.8800578704
  9
$TDUUPDATE
 40
2458532.1544311
  9
$TDINDWG
 40
0.0
  9
$TDUSRTIMER
 40
0.0
  9
$USRTIMER
 70
1
  9
$ANGBASE
 50
0.0
  9
$ANGDIR
 70
0
  9
$PDMODE
 70
0
  9
$PDSIZE
 40
0.0
  9
$PLINEWID
 40
0.0
  9
$SPLFRAME
 70
0
  9
$SPLINETYPE
 70
6
  9
$SPLINESEGS
 70
8
  9
$HANDSEED
  5
9D
  9
$SURFTAB1
 70
6
  9
$SURFTAB2
 70
6
  9
$SURFTYPE
 70
6
  9
$SURFU
 70
6
  9
$SURFV
 70
6
  9
$UCSBASE
  2

  9
$UCSNAME
  2

  9
$UCSORG
 10
0.0
 20
0.0
 30
0.0
  9
$UCSXDIR
 10
1.0
 20
0.0
 30
0.0
  9
$UCSYDIR
 10
0.0
 20
1.0
 30
0.0
  9
$UCSORTHOREF
  2

  9
$UCSORTHOVIEW
 70
0
  9
$UCSORGTOP
 10
0.0
 20
0.0
 30
0.0
  9
$UCSORGBOTTOM
 10
0.0
 20
0.0
 30
0.0
  9
$UCSORGLEFT
 10
0.0
 20
0.0
 30
0.0
  9
$UCSORGRIGHT
 10
0.0
 20
0.0
 30
0.0
  9
$UCSORGFRONT
 10
0.0
 20
0.0
 30
0.0
  9
$UCSORGBACK
 10
0.0
 20
0.0
 30
0.0
  9
$PUCSBASE
  2

  9
$PUCSNAME
  2

  9
$PUCSORG
 10
0.0
 20
0.0
 30
0.0
  9
$PUCSXDIR
 10
1.0
 20
0.0
 30
0.0
  9
$PUCSYDIR
 10
0.0
 20
1.0
 30
0.0
  9
$PUCSORTHOREF
  2

  9
$PUCSORTHOVIEW
 70
0
  9
$PUCSORGTOP
 10
0.0
 20
0.0
 30
0.0
  9
$PUCSORGBOTTOM
 10
0.0
 20
0.0
 30
0.0
  9
$PUCSORGLEFT
 10
0.0
 20
0.0
 30
0.0
  9
$PUCSORGRIGHT
 10
0.0
 20
0.0
 30
0.0
  9
$PUCSORGFRONT
 10
0.0
 20
0.0
 30
0.0
  9
$PUCSORGBACK
 10
0.0
 20
0.0
 30
0.0
  9
$USERI1
 70
0
  9
$USERI2
 70
0
  9
$USERI3
 70
0
  9
$USERI4
 70
0
  9
$USERI5
 70
0
  9
$USERR1
 40
0.0
  9
$USERR2
 40
0.0
  9
$USERR3
 40
0.0
  9
$USERR4
 40
0.0
  9
$USERR5
 40
0.0
  9
$WORLDVIEW
 70
1
  9
$SHADEDGE
 70
3
  9
$SHADEDIF
 70
70
  9
$TILEMODE
 70
1
  9
$MAXACTVP
 70
64
  9
$PINSBASE
 10
0.0
 20
0.0
 30
0.0
  9
$PLIMCHECK
 70
0
  9
$PEXTMIN
 10
1e+20
 20
1e+20
 30
1e+20
  9
$PEXTMAX
 10
-1e+20
 20
-1e+20
 30
-1e+20
  9
$PLIMMIN
 10
0.0
 20
0.0
  9
$PLIMMAX
 10
420.0
 20
297.0
  9
$UNITMODE
 70
0
  9
$VISRETAIN
 70
1
  9
$PLINEGEN
 70
0
  9
$PSLTSCALE
 70
1
  9
$TREEDEPTH
 70
3020
  9
$CMLSTYLE
  2
Standard
  9
$CMLJUST
 70
0
  9
$CMLSCALE
 40
20.0
  9
$PROXYGRAPHICS
 70
1
  9
$MEASUREMENT
 70
1
  9
$CELWEIGHT
370
-1
  9
$ENDCAPS
280
0
  9
$JOINSTYLE
280
0
  9
$LWDISPLAY
290
0
  9
$INSUNITS
 70
6
  9
$HYPERLINKBASE
  1

  9
$STYLESHEET
  1

  9
$XEDIT
290
1
  9
$CEPSNTYPE
380
0
  9
$PSTYLEMODE
290
1
  9
$FINGERPRINTGUID
  2
{65238FF1-269C-4D02-BB18-D141DB29D463}
  9
$VERSIONGUID
  2
{B80B3C31-09C8-4B74-8C62-DB9D90D5A4DE}
  9
$EXTNAMES
290
1
  9
$PSVPSCALE
 40
0.0
  9
$OLESTARTUP
290
0
  9
$SORTENTS
280
127
  9
$INDEXCTL
280
0
  9
$HIDETEXT
280
1
  9
$XCLIPFRAME
280
1
  9
$HALOGAP
280
0
  9
$OBSCOLOR
 70
257
  9
$OBSLTYPE
280
0
  9
$INTERSECTIONDISPLAY
280
0
  9
$INTERSECTIONCOLOR
 70
257
  9
$DIMASSOC
280
2
  9
$PROJECTNAME
  1

  9
$CAMERADISPLAY
290
0
  9
$LENSLENGTH
 40
50.0
  9
$CAMERAHEIGHT
 40
0.0
  9
$STEPSPERSEC
 40
24.0
  9
$STEPSIZE
 40
100.0
  9
$3DDWFPREC
 40
2.0
  9
$PSOLWIDTH
 40
0.005
  9
$PSOLHEIGHT
 40
0.08
  9
$LOFTANG1
 40
1.570796326795
  9
$LOFTANG2
 40
1.570796326795
  9
$LOFTMAG1
 40
0.0
  9
$LOFTMAG2
 40
0.0
  9
$LOFTPARAM
 70
7
  9
$LOFTNORMALS
280
1
  9
$LATITUDE
 40
37.795
  9
$LONGITUDE
 40
-122.394
  9
$NORTHDIRECTION
 40
0.0
  9
$TIMEZONE
 70
-8000
  9
$LIGHTGLYPHDISPLAY
280
1
  9
$TILEMODELIGHTSYNCH
280
1
  9
$CMATERIAL
347
20
  9
$SOLIDHIST
280
0
  9
$SHOWHIST
280
1
  9
$DWFFRAME
280
2
  9
$DGNFRAME
280
2
  9
$REALWORLDSCALE
290
1
  9
$INTERFERECOLOR
 62
256
  9
$CSHADOW
280
0
  9
$SHADOWPLANELOCATION
 40
0.0
  0
ENDSEC
  0
SECTION
  2
CLASSES
  0
CLASS
  1
ACDBDICTIONARYWDFLT
  2
AcDbDictionaryWithDefault
  3
ObjectDBX Classes
 90
0
 91
0
280
0
281
0
  0
CLASS
  1
SUN
  2
AcDbSun
  3
SCENEOE
 90
1153
 91
0
280
0
281
0
  0
CLASS
  1
VISUALSTYLE
  2
AcDbVisualStyle
  3
ObjectDBX Classes
 90
4095
 91
0
280
0
281
0
  0
CLASS
  1
MATERIAL
  2
AcDbMaterial
  3
ObjectDBX Classes
 90
1153
 91
0
280
0
281
0
  0
CLASS
  1
SCALE
  2
AcDbScale
  3
ObjectDBX Classes
 90
1153
 91
0
280
0
281
0
  0
CLASS
  1
TABLESTYLE
  2
AcDbTableStyle
  3
ObjectDBX Classes
 90
4095
 91
0
280
0
281
0
  0
CLASS
  1
MLEADERSTYLE
  2
AcDbMLeaderStyle
  3
ACDB_MLEADERSTYLE_CLASS
 90
4095
 91
0
280
0
281
0
  0
CLASS
  1
DICTIONARYVAR
  2
AcDbDictionaryVar
  3
ObjectDBX Classes
 90
0
 91
0
280
0
281
0
  0
CLASS
  1
CELLSTYLEMAP
  2
AcDbCellStyleMap
  3
ObjectDBX Classes
 90
1152
 91
0
280
0
281
0
  0
CLASS
  1
MENTALRAYRENDERSETTINGS
  2
AcDbMentalRayRenderSettings
  3
SCENEOE
 90
1024
 91
0
280
0
281
0
  0
CLASS
  1
ACDBDETAILVIEWSTYLE
  2
AcDbDetailViewStyle
  3
ObjectDBX Classes
 90
1025
 91
0
280
0
281
0
  0
CLASS
  1
ACDBSECTIONVIEWSTYLE
  2
AcDbSectionViewStyle
  3
ObjectDBX Classes
 90
1025
 91
0
280
0
281
0
  0
CLASS
  1
RASTERVARIABLES
  2
AcDbRasterVariables
  3
ISM
 90
0
 91
0
280
0
281
0
  0
CLASS
  1
ACDBPLACEHOLDER
  2
AcDbPlaceHolder
  3
ObjectDBX Classes
 90
0
 91
0
280
0
281
0
  0
CLASS
  1
LAYOUT
  2
AcDbLayout
  3
ObjectDBX Classes
 90
0
 91
0
280
0
281
0
  0
ENDSEC
  0
SECTION
  2
TABLES
  0
TABLE
  2
VPORT
  5
8
330
0
100
AcDbSymbolTable
 70
1
  0
VPORT
  5
23
330
8
100
AcDbSymbolTableRecord
100
AcDbViewportTableRecord
  2
*Active
 70
0
 10
0.0
 20
0.0
 11
1.0
 21
1.0
 12
0.0
 22
0.0
 13
0.0
 23
0.0
 14
0.5
 24
0.5
 15
0.5
 25
0.5
 16
0.0
 26
0.0
 36
1.0
 17
0.0
 27
0.0
 37
0.0
 40
1000.0
 41
1.34
 42
50.0
 43
0.0
 44
0.0
 50
0.0
 51
0.0
 71
0
 72
1000
 73
1
 74
3
 75
0
 76
0
 77
0
 78
0
281
0
 65
0
146
0.0
  0
ENDTAB
  0
TABLE
  2
LTYPE
  5
2
330
0
100
AcDbSymbolTable
 70
21
  0
LTYPE
  5
24
330
2
100
AcDbSymbolTableRecord
100
AcDbLinetypeTableRecord
  2
ByBlock
 70
0
  3

 72
65
 73
0
 40
0.0
  0
LTYPE
  5
25
330
2
100
AcDbSymbolTableRecord
100
AcDbLinetypeTableRecord
  2
ByLayer
 70
0
  3

 72
65
 73
0
 40
0.0
  0
LTYPE
  5
26
330
2
100
AcDbSymbolTableRecord
100
AcDbLinetypeTableRecord
  2
Continuous
 70
0
  3

 72
65
 73
0
 40
0.0
  0
LTYPE
  5
2F
330
2
100
AcDbSymbolTableRecord
100
AcDbLinetypeTableRecord
  2
CENTER
 70
0
  3
Center ____ _ ____ _ ____ _ ____ _ ____ _ ____
 72
65
 73
4
 40
5.08
 49
3.175
 74
0
 49
-0.635
 74
0
 49
0.635
 74
0
 49
-0.635
 74
0
  0
LTYPE
  5
30
330
2
100
AcDbSymbolTableRecord
100
AcDbLinetypeTableRecord
  2
CENTERX2
 70
0
  3
Center (2x) ________  __  ________  __  ________
 72
65
 73
4
 40
8.89
 49
6.35
 74
0
 49
-0.635
 74
0
 49
1.27
 74
0
 49
-0.635
 74
0
  0
LTYPE
  5
31
330
2
100
AcDbSymbolTableRecord
100
AcDbLinetypeTableRecord
  2
CENTER2
 70
0
  3
Center (.5x) ____ _ ____ _ ____ _ ____ _ ____
 72
65
 73
4
 40
2.54
 49
1.587
 74
0
 49
-0.318
 74
0
 49
0.318
 74
0
 49
-0.318
 74
0
  0
LTYPE
  5
32
330
2
100
AcDbSymbolTableRecord
100
AcDbLinetypeTableRecord
  2
DASHED
 70
0
  3
Dashed __ __ __ __ __ __ __ __ __ __ __ __ __ _
 72
65
 73
2
 40
1.524
 49
1.27
 74
0
 49
-0.254
 74
0
  0
LTYPE
  5
33
330
2
100
AcDbSymbolTableRecord
100
AcDbLinetypeTableRecord
  2
DASHEDX2
 70
0
  3
Dashed (2x) ____  ____  ____  ____  ____  ____
 72
65
 73
2
 40
3.048
 49
2.54
 74
0
 49
-0.508
 74
0
  0
LTYPE
  5
34
330
2
100
AcDbSymbolTableRecord
100
AcDbLinetypeTableRecord
  2
DASHED2
 70
0
  3
Dashed (.5x) _ _ _ _ _ _ _ _ _ _ _ _ _ _
 72
65
 73
2
 40
0.762
 49
0.635
 74
0
 49
-0.127
 74
0
  0
LTYPE
  5
35
330
2
100
AcDbSymbolTableRecord
100
AcDbLinetypeTableRecord
  2
PHANTOM
 70
0
  3
Phantom ______  __  __  ______  __  __  ______
 72
65
 73
6
 40
6.35
 49
3.175
 74
0
 49
-0.635
 74
0
 49
0.635
 74
0
 49
-0.635
 74
0
 49
0.635
 74
0
 49
-0.635
 74
0
  0
LTYPE
  5
36
330
2
100
AcDbSymbolTableRecord
100
AcDbLinetypeTableRecord
  2
PHANTOMX2
 70
0
  3
Phantom (2x)____________    ____    ____    ____________
 72
65
 73
6
 40
10.795
 49
6.35
 74
0
 49
-0.635
 74
0
 49
1.27
 74
0
 49
-0.635
 74
0
 49
1.27
 74
0
 49
-0.635
 74
0
  0
LTYPE
  5
37
330
2
100
AcDbSymbolTableRecord
100
AcDbLinetypeTableRecord
  2
PHANTOM2
 70
0
  3
Phantom (.5x) ___ _ _ ___ _ _ ___ _ _ ___ _ _ ___
 72
65
 73
6
 40
3.175
 49
1.587
 74
0
 49
-0.318
 74
0
 49
0.318
 74
0
 49
-0.318
 74
0
 49
0.318
 74
0
 49
-0.318
 74
0
  0
LTYPE
  5
38
330
2
100
AcDbSymbolTableRecord
100
AcDbLinetypeTableRecord
  2
DASHDOT
 70
0
  3
Dash dot __ . __ . __ . __ . __ . __ . __ . __
 72
65
 73
4
 40
3.556
 49
2.54
 74
0
 49
-0.508
 74
0
 49
0.0
 74
0
 49
-0.508
 74
0
  0
LTYPE
  5
39
330
2
100
AcDbSymbolTableRecord
100
AcDbLinetypeTableRecord
  2
DASHDOTX2
 70
0
  3
Dash dot (2x) ____  .  ____  .  ____  .  ____
 72
65
 73
4
 40
6.096
 49
5.08
 74
0
 49
-0.508
 74
0
 49
0.0
 74
0
 49
-0.508
 74
0
  0
LTYPE
  5
3A
330
2
100
AcDbSymbolTableRecord
100
AcDbLinetypeTableRecord
  2
DASHDOT2
 70
0
  3
Dash dot (.5x) _ . _ . _ . _ . _ . _ . _ . _
 72
65
 73
4
 40
1.778
 49
1.27
 74
0
 49
-0.254
 74
0
 49
0.0
 74
0
 49
-0.254
 74
0
  0
LTYPE
  5
3B
330
2
100
AcDbSymbolTableRecord
100
AcDbLinetypeTableRecord
  2
DOT
 70
0
  3
Dot .  .  .  .  .  .  .  .  .  .  .  .  .  .  .  .
 72
65
 73
2
 40
0.508
 49
0.0
 74
0
 49
-0.508
 74
0
  0
LTYPE
  5
3C
330
2
100
AcDbSymbolTableRecord
100
AcDbLinetypeTableRecord
  2
DOTX2
 70
0
  3
Dot (2x) .    .    .    .    .    .    .    . 
 72
65
 73
2
 40
1.016
 49
0.0
 74
0
 49
-1.016
 74
0
  0
LTYPE
  5
3D
330
2
100
AcDbSymbolTableRecord
100
AcDbLinetypeTableRecord
  2
DOT2
 70
0
  3
Dot (.5) . . . . . . . . . . . . . . . . . . . 
 72
65
 73
2
 40
0.254
 49
0.0
 74
0
 49
-0.254
 74
0
  0
LTYPE
  5
3E
330
2
100
AcDbSymbolTableRecord
100
AcDbLinetypeTableRecord
  2
DIVIDE
 70
0
  3
Divide __ . . __ . . __ . . __ . . __ . . __
 72
65
 73
6
 40
4.064
 49
2.54
 74
0
 49
-0.508
 74
0
 49
0.0
 74
0
 49
-0.508
 74
0
 49
0.0
 74
0
 49
-0.508
 74
0
  0
LTYPE
  5
3F
330
2
100
AcDbSymbolTableRecord
100
AcDbLinetypeTableRecord
  2
DIVIDEX2
 70
0
  3
Divide (2x) ____  . .  ____  . .  ____  . .  ____
 72
65
 73
6
 40
6.604
 49
5.08
 74
0
 49
-0.508
 74
0
 49
0.0
 74
0
 49
-0.508
 74
0
 49
0.0
 74
0
 49
-0.508
 74
0
  0
LTYPE
  5
40
330
2
100
AcDbSymbolTableRecord
100
AcDbLinetypeTableRecord
  2
DIVIDE2
 70
0
  3
Divide(.5x) _ . _ . _ . _ . _ . _ . _ . _
 72
65
 73
6
 40
2.032
 49
1.27
 74
0
 49
-0.254
 74
0
 49
0.0
 74
0
 49
-0.254
 74
0
 49
0.0
 74
0
 49
-0.254
 74
0
  0
ENDTAB
  0
TABLE
  2
LAYER
  5
1
330
0
100
AcDbSymbolTable
 70
2
  0
LAYER
  5
27
330
1
100
AcDbSymbolTableRecord
100
AcDbLayerTableRecord
  2
0
 70
0
 62
7
  6
Continuous
370
-3
390
13
347
21
  0
LAYER
  5
28
330
1
100
AcDbSymbolTableRecord
100
AcDbLayerTableRecord
  2
Defpoints
 70
0
 62
7
  6
Continuous
290
0
370
-3
390
13
347
21
  0
ENDTAB
  0
TABLE
  2
STYLE
  5
5
330
0
100
AcDbSymbolTable
 70
26
  0
STYLE
  5
29
330
5
100
AcDbSymbolTableRecord
100
AcDbTextStyleTableRecord
  2
Standard
 70
0
 40
0.0
 41
1.0
 50
0.0
 71
0
 42
2.5
  3
txt
  4

  0
STYLE
  5
41
330
5
100
AcDbSymbolTableRecord
100
AcDbTextStyleTableRecord
  2
OpenSans-Light
 70
0
 40
0.0
 41
1.0
 50
0.0
 71
0
 42
2.5
  3
OpenSans-Light.ttf
  4

  0
STYLE
  5
42
330
5
100
AcDbSymbolTableRecord
100
AcDbTextStyleTableRecord
  2
OpenSans-Light-Italic
 70
0
 40
0.0
 41
1.0
 50
0.0
 71
0
 42
2.5
  3
OpenSans-LightItalic.ttf
  4

  0
STYLE
  5
43
330
5
100
AcDbSymbolTableRecord
100
AcDbTextStyleTableRecord
  2
OpenSans
 70
0
 40
0.0
 41
1.0
 50
0.0
 71
0
 42
2.5
  3
OpenSans-Regular.ttf
  4

  0
STYLE
  5
44
330
5
100
AcDbSymbolTableRecord
100
AcDbTextStyleTableRecord
  2
OpenSans-Italic
 70
0
 40
0.0
 41
1.0
 50
0.0
 71
0
 42
2.5
  3
OpenSans-Italic.ttf
  4

  0
STYLE
  5
45
330
5
100
AcDbSymbolTableRecord
100
AcDbTextStyleTableRecord
  2
OpenSans-SemiBold
 70
0
 40
0.0
 41
1.0
 50
0.0
 71
0
 42
2.5
  3
OpenSans-SemiBold.ttf
  4

  0
STYLE
  5
46
330
5
100
AcDbSymbolTableRecord
100
AcDbTextStyleTableRecord
  2
OpenSans-SemiBoldItalic
 70
0
 40
0.0
 41
1.0
 50
0.0
 71
0
 42
2.5
  3
OpenSans-SemiBoldItalic.ttf
  4

  0
STYLE
  5
47
330
5
100
AcDbSymbolTableRecord
100
AcDbTextStyleTableRecord
  2
OpenSans-Bold
 70
0
 40
0.0
 41
1.0
 50
0.0
 71
0
 42
2.5
  3
OpenSans-Bold.ttf
  4

  0
STYLE
  5
48
330
5
100
AcDbSymbolTableRecord
100
AcDbTextStyleTableRecord
  2
OpenSans-BoldItalic
 70
0
 40
0.0
 41
1.0
 50
0.0
 71
0
 42
2.5
  3
OpenSans-BoldItalic.ttf
  4

  0
STYLE
  5
49
330
5
100
AcDbSymbolTableRecord
100
AcDbTextStyleTableRecord
  2
OpenSans-ExtraBold
 70
0
 40
0.0
 41
1.0
 50
0.0
 71
0
 42
2.5
  3
OpenSans-ExtraBold.ttf
  4

  0
STYLE
  5
4A
330
5
100
AcDbSymbolTableRecord
100
AcDbTextStyleTableRecord
  2
OpenSans-ExtraBoldItalic
 70
0
 40
0.0
 41
1.0
 50
0.0
 71
0
 42
2.5
  3
OpenSans-ExtraBoldItalic.ttf
  4

  0
STYLE
  5
4B
330
5
100
AcDbSymbolTableRecord
100
AcDbTextStyleTableRecord
  2
OpenSansCondensed-Bold
 70
0
 40
0.0
 41
1.0
 50
0.0
 71
0
 42
2.5
  3
OpenSansCondensed-Bold.ttf
  4

  0
STYLE
  5
4C
330
5
100
AcDbSymbolTableRecord
100
AcDbTextStyleTableRecord
  2
OpenSansCondensed-Light
 70
0
 40
0.0
 41
1.0
 50
0.0
 71
0
 42
2.5
  3
OpenSansCondensed-Light.ttf
  4

  0
STYLE
  5
4D
330
5
100
AcDbSymbolTableRecord
100
AcDbTextStyleTableRecord
  2
OpenSansCondensed-Italic
 70
0
 40
0.0
 41
1.0
 50
0.0
 71
0
 42
2.5
  3
OpenSansCondensed-LightItalic.ttf
  4

  0
STYLE
  5
4E
330
5
100
AcDbSymbolTableRecord
100
AcDbTextStyleTableRecord
  2
LiberationSans
 70
0
 40
0.0
 41
1.0
 50
0.0
 71
0
 42
2.5
  3
LiberationSans-Regular.ttf
  4

  0
STYLE
  5
4F
330
5
100
AcDbSymbolTableRecord
100
AcDbTextStyleTableRecord
  2
LiberationSans-Bold
 70
0
 40
0.0
 41
1.0
 50
0.0
 71
0
 42
2.5
  3
LiberationSans-Bold.ttf
  4

  0
STYLE
  5
50
330
5
100
AcDbSymbolTableRecord
100
AcDbTextStyleTableRecord
  2
LiberationSans-BoldItalic
 70
0
 40
0.0
 41
1.0
 50
0.0
 71
0
 42
2.5
  3
LiberationSans-BoldItalic.ttf
  4

  0
STYLE
  5
51
330
5
100
AcDbSymbolTableRecord
100
AcDbTextStyleTableRecord
  2
LiberationSans-Italic
 70
0
 40
0.0
 41
1.0
 50
0.0
 71
0
 42
2.5
  3
LiberationSans-Italic.ttf
  4

  0
STYLE
  5
52
330
5
100
AcDbSymbolTableRecord
100
AcDbTextStyleTableRecord
  2
LiberationSerif
 70
0
 40
0.0
 41
1.0
 50
0.0
 71
0
 42
2.5
  3
LiberationSerif-Regular.ttf
  4

  0
STYLE
  5
53
330
5
100
AcDbSymbolTableRecord
100
AcDbTextStyleTableRecord
  2
LiberationSerif-Bold
 70
0
 40
0.0
 41
1.0
 50
0.0
 71
0
 42
2.5
  3
LiberationSerif-Bold.ttf
  4

  0
STYLE
  5
54
330
5
100
AcDbSymbolTableRecord
100
AcDbTextStyleTableRecord
  2
LiberationSerif-BoldItalic
 70
0
 40
0.0
 41
1.0
 50
0.0
 71
0
 42
2.5
  3
LiberationSerif-BoldItalic.ttf
  4

  0
STYLE
  5
55
330
5
100
AcDbSymbolTableRecord
100
AcDbTextStyleTableRecord
  2
LiberationSerif-Italic
 70
0
 40
0.0
 41
1.0
 50
0.0
 71
0
 42
2.5
  3
LiberationSerif-Italic.ttf
  4

  0
STYLE
  5
56
330
5
100
AcDbSymbolTableRecord
100
AcDbTextStyleTableRecord
  2
LiberationMono
 70
0
 40
0.0
 41
1.0
 50
0.0
 71
0
 42
2.5
  3
LiberationMono-Regular.ttf
  4

  0
STYLE
  5
57
330
5
100
AcDbSymbolTableRecord
100
AcDbTextStyleTableRecord
  2
LiberationMono-Bold
 70
0
 40
0.0
 41
1.0
 50
0.0
 71
0
 42
2.5
  3
LiberationMono-Bold.ttf
  4

  0
STYLE
  5
58
330
5
100
AcDbSymbolTableRecord
100
AcDbTextStyleTableRecord
  2
LiberationMono-BoldItalic
 70
0
 40
0.0
 41
1.0
 50
0.0
 71
0
 42
2.5
  3
LiberationMono-BoldItalic.ttf
  4

  0
STYLE
  5
59
330
5
100
AcDbSymbolTableRecord
100
AcDbTextStyleTableRecord
  2
LiberationMono-Italic
 70
0
 40
0.0
 41
1.0
 50
0.0
 71
0
 42
2.5
  3
LiberationMono-Italic.ttf
  4

  0
ENDTAB
  0
TABLE
  2
VIEW
  5
7
330
0
100
AcDbSymbolTable
 70
0
  0
ENDTAB
  0
TABLE
  2
UCS
  5
6
330
0
100
AcDbSymbolTable
 70
0
  0
ENDTAB
  0
TABLE
  2
APPID
  5
3
330
0
100
AcDbSymbolTable
 70
3
  0
APPID
  5
2A
330
3
100
AcDbSymbolTableRecord
100
AcDbRegAppTableRecord
  2
ACAD
 70
0
  0
APPID
  5
9A
330
3
100
AcDbSymbolTableRecord
100
AcDbRegAppTableRecord
  2
HATCHBACKGROUNDCOLOR
 70
0
  0
APPID
  5
9B
330
3
100
AcDbSymbolTableRecord
100
AcDbRegAppTableRecord
  2
EZDXF
 70
0
  0
ENDTAB
  0
TABLE
  2
DIMSTYLE
  5
4
330
0
100
AcDbSymbolTable
 70
12
100
AcDbDimStyleTable
  0
DIMSTYLE
105
2B
330
4
100
AcDbSymbolTableRecord
100
AcDbDimStyleTableRecord
  2
Standard
 70
0
 40
1.0
 41
2.5
 42
0.625
 43
3.75
 44
1.25
 45
0.0
 46
0.0
 47
0.0
 48
0.0
 49
2.5
140
2.5
141
2.5
142
0.0
143
0.03937007874
144
1.0
145
0.0
146
1.0
147
0.625
148
0.0
 69
0
 70
0
 71
0
 72
0
 73
0
 74
0
 75
0
 76
0
 77
1
 78
8
 79
3
170
0
171
3
172
1
173
0
174
0
175
0
176
0
177
0
178
0
179
2
271
2
272
2
273
2
274
3
275
0
276
0
277
2
278
44
279
0
280
0
281
0
282
0
283
0
284
8
285
0
286
0
288
0
289
3
290
0
371
-2
372
-2
  0
DIMSTYLE
105
73
330
4
100
AcDbSymbolTableRecord
100
AcDbDimStyleTableRecord
  2
EZDXF
 70
0
 40
1.0
 41
0.175
 42
0.125
 43
3.75
 44
0.375
 45
0.0
 46
0.0
 47
0.0
 48
0.0
 49
2.5
140
0.25
141
2.5
142
0.0
143
0.03937007874
144
100.0
145
0.0
146
0.5
147
0.1
148
0.0
 69
0
 70
0
 71
0
 72
0
 73
0
 74
0
 75
0
 76
0
 77
1
 78
12
 79
3
170
0
171
3
172
1
173
0
174
0
175
0
176
0
177
0
178
0
179
2
271
2
272
2
273
2
274
3
275
0
276
0
277
2
278
46
279
2
280
0
281
0
282
0
283
0
284
8
285
0
286
0
288
1
289
3
290
0
340
4C
342
74
371
-2
372
-2
  0
DIMSTYLE
105
7C
330
4
100
AcDbSymbolTableRecord
100
AcDbDimStyleTableRecord
  2
EZ_M_100_H25_CM
 70
0
 40
1.0
 41
0.25
 42
0.125
 43
3.75
 44
0.375
 45
0.0
 46
0.0
 47
0.0
 48
0.0
 49
2.5
140
0.25
141
2.5
142
0.125
143
0.03937007874
144
100.0
145
0.0
146
0.5
147
0.1
148
0.0
 69
0
 70
0
 71
0
 72
0
 73
0
 74
0
 75
0
 76
0
 77
1
 78
12
 79
3
170
0
171
3
172
1
173
0
174
0
175
0
176
0
177
0
178
0
179
2
271
2
272
2
273
2
274
3
275
0
276
0
277
2
278
46
279
2
280
0
281
0
282
0
283
0
284
8
285
0
286
0
288
1
289
3
290
0
340
4C
371
-2
372
-2
  0
DIMSTYLE
105
7D
330
4
100
AcDbSymbolTableRecord
100
AcDbDimStyleTableRecord
  2
EZ_M_50_H25_CM
 70
0
 40
1.0
 41
0.125
 42
0.0625
 43
3.75
 44
0.1875
 45
0.0
 46
0.0
 47
0.0
 48
0.0
 49
2.5
140
0.125
141
2.5
142
0.0625
143
0.03937007874
144
100.0
145
0.0
146
0.5
147
0.05
148
0.0
 69
0
 70
0
 71
0
 72
0
 73
0
 74
0
 75
0
 76
0
 77
1
 78
12
 79
3
170
0
171
3
172
1
173
0
174
0
175
0
176
0
177
0
178
0
179
2
271
2
272
2
273
2
274
3
275
0
276
0
277
2
278
46
279
2
280
0
281
0
282
0
283
0
284
8
285
0
286
0
288
1
289
3
290
0
340
4C
371
-2
372
-2
  0
DIMSTYLE
105
7E
330
4
100
AcDbSymbolTableRecord
100
AcDbDimStyleTableRecord
  2
EZ_M_25_H25_CM
 70
0
 40
1.0
 41
0.0625
 42
0.03125
 43
3.75
 44
0.09375
 45
0.0
 46
0.0
 47
0.0
 48
0.0
 49
2.5
140
0.0625
141
2.5
142
0.03125
143
0.03937007874
144
100.0
145
0.0
146
0.5
147
0.025
148
0.0
 69
0
 70
0
 71
0
 72
0
 73
0
 74
0
 75
0
 76
0
 77
1
 78
12
 79
3
170
0
171
3
172
1
173
0
174
0
175
0
176
0
177
0
178
0
179
2
271
2
272
2
273
2
274
3
275
0
276
0
277
2
278
46
279
2
280
0
281
0
282
0
283
0
284
8
285
0
286
0
288
1
289
3
290
0
340
4C
371
-2
372
-2
  0
DIMSTYLE
105
7F
330
4
100
AcDbSymbolTableRecord
100
AcDbDimStyleTableRecord
  2
EZ_M_20_H25_CM
 70
0
 40
1.0
 41
0.05
 42
0.025
 43
3.75
 44
0.07500000000000001
 45
0.0
 46
0.0
 47
0.0
 48
0.0
 49
2.5
140
0.05
141
2.5
142
0.025
143
0.03937007874
144
100.0
145
0.0
146
0.5
147
0.020000000000000004
148
0.0
 69
0
 70
0
 71
0
 72
0
 73
0
 74
0
 75
0
 76
0
 77
1
 78
12
 79
3
170
0
171
3
172
1
173
0
174
0
175
0
176
0
177
0
178
0
179
2
271
2
272
2
273
2
274
3
275
0
276
0
277
2
278
46
279
2
280
0
281
0
282
0
283
0
284
8
285
0
286
0
288
1
289
3
290
0
340
4C
371
-2
372
-2
  0
DIMSTYLE
105
80
330
4
100
AcDbSymbolTableRecord
100
AcDbDimStyleTableRecord
  2
EZ_M_10_H25_CM
 70
0
 40
1.0
 41
0.025
 42
0.0125
 43
3.75
 44
0.037500000000000006
 45
0.0
 46
0.0
 47
0.0
 48
0.0
 49
2.5
140
0.025
141
2.5
142
0.0125
143
0.03937007874
144
100.0
145
0.0
146
0.5
147
0.010000000000000002
148
0.0
 69
0
 70
0
 71
0
 72
0
 73
0
 74
0
 75
0
 76
0
 77
1
 78
12
 79
3
170
0
171
3
172
1
173
0
174
0
175
0
176
0
177
0
178
0
179
2
271
2
272
2
273
2
274
3
275
0
276
0
277
2
278
46
279
2
280
0
281
0
282
0
283
0
284
8
285
0
286
0
288
1
289
3
290
0
340
4C
371
-2
372
-2
  0
DIMSTYLE
105
81
330
4
100
AcDbSymbolTableRecord
100
AcDbDimStyleTableRecord
  2
EZ_M_5_H25_CM
 70
0
 40
1.0
 41
0.0125
 42
0.00625
 43
3.75
 44
0.018750000000000003
 45
0.0
 46
0.0
 47
0.0
 48
0.0
 49
2.5
140
0.0125
141
2.5
142
0.00625
143
0.03937007874
144
100.0
145
0.0
146
0.5
147
0.005000000000000001
148
0.0
 69
0
 70
0
 71
0
 72
0
 73
0
 74
0
 75
0
 76
0
 77
1
 78
12
 79
3
170
0
171
3
172
1
173
0
174
0
175
0
176
0
177
0
178
0
179
2
271
2
272
2
273
2
274
3
275
0
276
0
277
2
278
46
279
2
280
0
281
0
282
0
283
0
284
8
285
0
286
0
288
1
289
3
290
0
340
4C
371
-2
372
-2
  0
DIMSTYLE
105
82
330
4
100
AcDbSymbolTableRecord
100
AcDbDimStyleTableRecord
  2
EZ_M_1_H25_CM
 70
0
 40
1.0
 41
0.0025
 42
0.00125
 43
3.75
 44
0.00375
 45
0.0
 46
0.0
 47
0.0
 48
0.0
 49
2.5
140
0.0025
141
2.5
142
0.00125
143
0.03937007874
144
100.0
145
0.0
146
0.5
147
0.001
148
0.0
 69
0
 70
0
 71
0
 72
0
 73
0
 74
0
 75
0
 76
0
 77
1
 78
12
 79
3
170
0
171
3
172
1
173
0
174
0
175
0
176
0
177
0
178
0
179
2
271
2
272
2
273
2
274
3
275
0
276
0
277
2
278
46
279
2
280
0
281
0
282
0
283
0
284
8
285
0
286
0
288
1
289
3
290
0
340
4C
371
-2
372
-2
  0
DIMSTYLE
105
83
330
4
100
AcDbSymbolTableRecord
100
AcDbDimStyleTableRecord
  2
EZ_RADIUS
 70
0
 40
1.0
 41
0.25
 42
0.125
 43
3.75
 44
0.375
 45
0.0
 46
0.0
 47
0.0
 48
0.0
 49
2.5
140
0.25
141
0.0
142
0.0
143
0.03937007874
144
100.0
145
0.0
146
0.5
147
0.1
148
0.0
 69
0
 70
0
 71
0
 72
0
 73
0
 74
0
 75
0
 76
0
 77
1
 78
12
 79
3
170
0
171
3
172
0
173
0
174
0
175
0
176
0
177
0
178
0
179
2
271
2
272
2
273
2
274
3
275
0
276
0
277
2
278
46
279
1
280
0
281
0
282
0
283
0
284
8
285
0
286
0
288
1
289
3
290
0
340
4C
342
84
371
-2
372
-2
  0
DIMSTYLE
105
88
330
4
100
AcDbSymbolTableRecord
100
AcDbDimStyleTableRecord
  2
EZ_RADIUS_INSIDE
 70
0
 40
1.0
 41
0.25
 42
0.125
 43
3.75
 44
0.375
 45
0.0
 46
0.0
 47
0.0
 48
0.0
 49
2.5
140
0.25
141
0.0
142
0.0
143
0.03937007874
144
100.0
145
0.0
146
0.5
147
0.1
148
0.0
 69
0
 70
0
 71
0
 72
0
 73
0
 74
0
 75
0
 76
0
 77
0
 78
12
 79
3
170
0
171
3
172
0
173
0
174
1
175
0
176
0
177
0
178
0
179
2
271
2
272
2
273
2
274
3
275
0
276
0
277
2
278
46
279
0
280
0
281
0
282
0
283
0
284
8
285
0
286
0
288
1
289
0
290
0
340
4C
342
84
371
-2
372
-2
  0
DIMSTYLE
105
89
330
4
100
AcDbSymbolTableRecord
100
AcDbDimStyleTableRecord
  2
EZ_CURVED
 70
0
 40
1.0
 41
0.25
 42
0.125
 43
3.75
 44
0.375
 45
0.0
 46
0.0
 47
0.0
 48
0.0
 49
2.5
140
0.25
141
2.5
142
0.0
143
0.03937007874
144
100.0
145
0.0
146
0.5
147
0.1
148
0.0
 69
0
 70
0
 71
0
 72
0
 73
0
 74
0
 75
0
 76
0
 77
1
 78
12
 79
2
 90
2
170
0
171
3
172
1
173
0
174
0
175
0
176
0
177
0
178
0
179
2
271
2
272
2
273
2
274
3
275
0
276
0
277
2
278
46
279
2
280
0
281
0
282
0
283
0
284
8
285
0
286
0
288
1
289
3
290
0
340
4C
371
-2
372
-2
  0
ENDTAB
  0
TABLE
  2
BLOCK_RECORD
  5
9
330
0
100
AcDbSymbolTable
 70
5
  0
BLOCK_RECORD
  5
17
330
9
100
AcDbSymbolTableRecord
100
AcDbBlockTableRecord
  2
*Model_Space
340
1A
 70
0
280
1
281
0
  0
BLOCK_RECORD
  5
1B
330
9
100
AcDbSymbolTableRecord
100
AcDbBlockTableRecord
  2
*Paper_Space
340
1E
 70
0
280
1
281
0
  0
BLOCK_RECORD
  5
74
330
9
100
AcDbSymbolTableRecord
100
AcDbBlockTableRecord
  2
_ARCHTICK
340
0
 70
0
280
1
281
0
  0
BLOCK_RECORD
  5
78
330
9
100
AcDbSymbolTableRecord
100
AcDbBlockTableRecord
  2
_CLOSEDFILLED
340
0
 70
0
280
1
281
0
  0
BLOCK_RECORD
  5
84
330
9
100
AcDbSymbolTableRecord
100
AcDbBlockTableRecord
  2
_CLOSEDBLANK
340
0
 70
0
280
1
281
0
  0
ENDTAB
  0
ENDSEC
  0
SECTION
  2
BLOCKS
  0
BLOCK
  5
18
330
17
100
AcDbEntity
  8
0
100
AcDbBlockBegin
  2
*Model_Space
 70
0
 10
0.0
 20
0.0
 30
0.0
  3
*Model_Space
  1

  0
ENDBLK
  5
19
330
17
100
AcDbEntity
  8
0
100
AcDbBlockEnd
  0
BLOCK
  5
1C
330
1B
100
AcDbEntity
  8
0
100
AcDbBlockBegin
  2
*Paper_Space
 70
0
 10
0.0
 20
0.0
 30
0.0
  3
*Paper_Space
  1

  0
ENDBLK
  5
1D
330
1B
100
AcDbEntity
  8
0
100
AcDbBlockEnd
  0
BLOCK
  5
75
330
74
100
AcDbEntity
  8
0
100
AcDbBlockBegin
  2
_ARCHTICK
 70
0
 10
0.0
 20
0.0
 30
0.0
  3
_ARCHTICK
  1

  0
LWPOLYLINE
  5
77
330
74
100
AcDbEntity
  8
0
  6
BYBLOCK
 62
0
100
AcDbPolyline
 90
2
 70
0
 43
0.15
 10
-0.5
 20
-0.5
 10
0.5
 20
0.5
  0
ENDBLK
  5
76
330
74
100
AcDbEntity
  8
0
100
AcDbBlockEnd
  0
BLOCK
  5
79
330
78
100
AcDbEntity
  8
0
100
AcDbBlockBegin
  2
_CLOSEDFILLED
 70
0
 10
0.0
 20
0.0
 30
0.0
  3
_CLOSEDFILLED
  1

  0
SOLID
  5
7B
330
78
100
AcDbEntity
  8
0
  6
BYBLOCK
 62
0
100
AcDbTrace
 10
-1.0
 20
0.16439898372402537
 30
0.0
 11
0.0
 21
0.0
 31
0.0
 12
-1.0
 22
-0.16439898372402537
 32
0.0
 13
-1.0
 23
-0.16439898372402537
 33
0.0
  0
ENDBLK
  5
7A
330
78
100
AcDbEntity
  8
0
100
AcDbBlockEnd
  0
BLOCK
  5
85
330
84
100
AcDbEntity
  8
0
100
AcDbBlockBegin
  2
_CLOSEDBLANK
 70
0
 10
0.0
 20
0.0
 30
0.0
  3
_CLOSEDBLANK
  1

  0
LWPOLYLINE
  5
87
330
84
100
AcDbEntity
  8
0
  6
BYBLOCK
 62
0
100
AcDbPolyline
 90
3
 70
1
 10
-1.0
 20
0.16439898372402537
 10
0.0
 20
0.0
 10
-1.0
 20
-0.16439898372402537
  0
ENDBLK
  5
86
330
84
100
AcDbEntity
  8
0
100
AcDbBlockEnd
  0
ENDSEC
  0
SECTION
  2
ENTITIES
  0
LWPOLYLINE
  5
8A
330
17
100
AcDbEntity
  8
0
100
AcDbPolyline
 90
9
 70
0
 10
0.20833333333333334
 20
0.0
 10
0.20833333333333334
 20
0.8500000000000001
 10
0.5416666666666667
 20
0.8500000000000001
 10
0.625
 20
0.7083333333333334
 10
0.625
 20
0.5666666666666668
 10
0.5416666666666667
 20
0.42500000000000004
 10
0.20833333333333334
 20
0.42500000000000004
 10
0.375
 20
0.42500000000000004
 10
0.625
 20
0.0
  0
LWPOLYLINE
  5
8B
330
17
100
AcDbEntity
  8
0
100
AcDbPolyline
 90
2
 70
0
 10
0.8333333333333334
 20
0.4166666666666667
 10
1.25
 20
0.4166666666666667
  0
LWPOLYLINE
  5
8C
330
17
100
AcDbEntity
  8
0
100
AcDbPolyline
 90
6
 70
0
 10
1.875
 20
0.8333333333333334
 10
1.4583333333333333
 20
0.8333333333333334
 10
1.25
 20
0.625
 10
1.25
 20
0.20833333333333334
 10
1.4583333333333333
 20
0.0
 10
1.875
 20
0.0
  0
LWPOLYLINE
  5
8D
330
17
100
AcDbEntity
  8
0
100
AcDbPolyline
 90
5
 70
0
 10
2.0833333333333335
 20
0.8333333333333334
 10
2.291666666666667
 20
0.0
 10
2.5
 20
0.8333333333333334
 10
2.7083333333333335
 20
0.0
 10
2.916666666666667
 20
0.8333333333333334
  0
LWPOLYLINE
  5
8E
330
17
100
AcDbEntity
  8
0
100
AcDbPolyline
 90
2
 70
0
 10
3.1250000000000004
 20
0.4166666666666667
 10
3.541666666666667
 20
0.4166666666666667
  0
LWPOLYLINE
  5
8F
330
17
100
AcDbEntity
  8
0
100
AcDbPolyline
 90
12
 70
0
 10
3.541666666666667
 20
0.75
 10
3.6250000000000004
 20
0.8333333333333334
 10
3.8750000000000004
 20
0.8333333333333334
 10
3.9583333333333335
 20
0.75
 10
3.9583333333333335
 20
0.08333333333333334
 10
3.8750000000000004
 20
0.0
 10
3.6250000000000004
 20
0.0
 10
3.5833333333333335
 20
0.04166666666666667
 10
3.916666666666667
 20
0.7916666666666666
 10
3.5833333333333335
 20
0.04166666666666667
 10
3.541666666666667
 20
0.08333333333333334
 10
3.541666666666667
 20
0.75
  0
LWPOLYLINE
  5
90
330
17
100
AcDbEntity
  8
0
100
AcDbPolyline
 90
3
 70
0
 10
4.583333333333333
 20
0.625
 10
4.791666666666667
 20
0.8333333333333334
 10
4.791666666666667
 20
0.0
  0
LWPOLYLINE
  5
91
330
17
100
AcDbEntity
  8
0
100
AcDbPolyline
 90
741
 70
1
 10
540.0
 20
11.554933649455261
 10
550.0
 20
14.520706691845556
 10
548.7527289622222
 20
14.87024284525801
 10
547.5054579244445
 20
15.219802462005557
 10
546.2581868866666
 20
15.572989279859813
 10
545.0109158488889
 20
15.933367783228618
 10
543.7636448111111
 20
16.30116575995312
 10
542.5163737733334
 20
16.672697465549458
 10
541.2691027355555
 20
17.043906892634045
 10
540.0218316977778
 20
17.410725877160207
 10
538.77456066
 20
17.769466654688095
 10
537.5272896222223
 20
18.120035258549088
 10
536.2800185844444
 20
18.4644776461045
 10
535.0327475466667
 20
18.80483201219284
 10
533.7854765088889
 20
19.14313172276517
 10
532.5382054711112
 20
19.481222406834558
 10
531.2909344333333
 20
19.819474512688643
 10
530.0436633955555
 20
20.15760781555436
 10
528.7963923577778
 20
20.495332317992798
 10
527.54912132
 20
20.83235861531171
 10
526.3018502822222
 20
21.168534465541875
 10
525.0545792444444
 20
21.504508764593517
 10
523.8073082066667
 20
21.8412449492587
 10
522.5600371688889
 20
22.17969049046422
 10
521.3127661311111
 20
22.520835723289196
 10
520.0654950933333
 20
22.86512104832553
 10
518.8182240555556
 20
23.21094539794065
 10
517.5709530177778
 20
23.555880977290588
 10
516.32368198
 20
23.897570234410136
 10
515.0764109422222
 20
24.233567492147184
 10
513.8291399044444
 20
24.562842554853002
 10
512.5818688666667
 20
24.886789310869897
 10
511.3345978288889
 20
25.207240108020617
 10
510.0873267911111
 20
25.52595091326869
 10
508.84005575333333
 20
25.844739139991383
 10
507.5927847155555
 20
26.164413966752733
 10
506.3455136777778
 20
26.484480113756995
 10
505.09824263999997
 20
26.804207559298828
 10
503.8509716022222
 20
27.122909274155234
 10
502.6037005644444
 20
27.439876256410006
 10
501.35642952666666
 20
27.754756891529283
 10
500.10915848888885
 20
28.067608826304138
 10
498.8618874511111
 20
28.378543488758478
 10
497.6146164133333
 20
28.687665480655692
 10
496.36734537555554
 20
28.995082437389133
 10
495.12007433777774
 20
29.300980728679278
 10
493.8728033
 20
29.60563480684864
 10
492.6255322622222
 20
29.909323236700605
 10
491.37826122444443
 20
30.21232780721332
 10
490.1309901866666
 20
30.514906307283674
 10
488.8837191488889
 20
30.817047659686075
 10
487.63644811111106
 20
31.11844977025933
 10
486.3891770733333
 20
31.418812233945424
 10
485.1419060355555
 20
31.71782644497734
 10
483.89463499777776
 20
32.01520545584141
 10
482.64736395999995
 20
32.310822071226134
 10
481.4000929222222
 20
32.604700856676594
 10
480.1528218844444
 20
32.89686267223373
 10
478.90555084666664
 20
33.18732972560781
 10
477.65827980888884
 20
33.47613644527058
 10
476.4110087711111
 20
33.763421368282515
 10
475.1637377333333
 20
34.04939909598868
 10
473.9164666955555
 20
34.334282807041575
 10
472.6691956577777
 20
34.618286493053006
 10
471.42192461999997
 20
34.90161222080365
 10
470.17465358222216
 20
35.184356741574746
 10
468.9273825444444
 20
35.46655937675227
 10
467.6801115066666
 20
35.74826026314455
 10
466.43284046888886
 20
36.02949553056414
 10
465.18556943111105
 20
36.310195629925545
 10
463.9382983933333
 20
36.589442117629595
 10
462.6910273555555
 20
36.865949057776554
 10
461.44375631777774
 20
37.138424480391464
 10
460.19648527999993
 20
37.40556089021071
 10
458.9492142422222
 20
37.66647852027986
 10
457.7019432044444
 20
37.92246237658014
 10
456.4546721666666
 20
38.17564812371145
 10
455.2074011288888
 20
38.428120282952904
 10
453.96013009111107
 20
38.682022683722565
 10
452.71285905333326
 20
38.93911169999201
 10
451.4655880155555
 20
39.19916135032553
 10
450.2183169777777
 20
39.460497214243155
 10
448.97104593999995
 20
39.721544376753904
 10
447.72377490222215
 20
39.98063561498422
 10
446.4765038644444
 20
40.23647320723082
 10
445.2292328266666
 20
40.4893888288086
 10
443.98196178888884
 20
40.740722305749586
 10
442.73469075111103
 20
40.99173063905879
 10
441.4874197133333
 20
41.24372612921213
 10
440.2401486755555
 20
41.49762313115879
 10
438.9928776377777
 20
41.75254302480514
 10
437.7456065999999
 20
42.00677837400139
 10
436.49833556222217
 20
42.25865795540456
 10
435.25106452444436
 20
42.506485242995275
 10
434.0037934866666
 20
42.74904211741965
 10
432.7565224488888
 20
42.98738297019266
 10
431.50925141111105
 20
43.22329205733454
 10
430.26198037333324
 20
43.4585417885992
 10
429.0147093355555
 20
43.694901549311595
 10
427.76743829777774
 20
43.93355124585802
 10
426.52016725999994
 20
44.17335356450564
 10
422.4797632195959
 20
37.817514904490835
 10
422.0757228155555
 20
37.89316408501731
 10
421.67168241151506
 20
37.96826230339222
 10
421.2676420074747
 20
38.042777038102834
 10
420.8636016034343
 20
38.116740747236086
 10
420.4595611993939
 20
38.190192166041385
 10
420.05552079535346
 20
38.2631783067946
 10
419.65148039131304
 20
38.335756801815414
 10
419.2474399872727
 20
38.40798586814328
 10
418.84339958323227
 20
38.47992093927619
 10
418.43935917919185
 20
38.55161454336303
 10
418.03531877515144
 20
38.62311901405361
 10
417.631278371111
 20
38.69448557395492
 10
417.22723796707066
 20
38.765764448264065
 10
416.82319756303025
 20
38.83700607811642
 10
416.41915715898983
 20
38.90826501582984
 10
416.0151167549494
 20
38.97959916778654
 10
415.611076350909
 20
39.05106442023442
 10
415.20703594686864
 20
39.122684213838525
 10
414.8029955428282
 20
39.194456621966914
 10
414.3989551387878
 20
39.26637821310021
 10
413.9949147347474
 20
39.3384331372243
 10
413.590874330707
 20
39.4105959802234
 10
413.1868339266666
 20
39.482841290563094
 10
412.7827935226262
 20
39.555146630845826
 10
412.3787531185858
 20
39.627491828509584
 10
411.9747127145454
 20
39.6998566861128
 10
411.57067231050496
 20
39.772219929651214
 10
411.1666319064646
 20
39.84455951413552
 10
410.7625915024242
 20
39.9168534273128
 10
410.35855109838377
 20
39.98908025859565
 10
409.95451069434336
 20
40.06121899838848
 10
409.550470290303
 20
40.13324838495163
 10
409.1464298862626
 20
40.20514438756975
 10
408.74238948222217
 20
40.27688129973163
 10
408.33834907818175
 20
40.348433190341005
 10
407.93430867414133
 20
40.41977229392942
 10
407.5302682701009
 20
40.490869864179885
 10
407.12622786606056
 20
40.56169711062008
 10
406.72218746202014
 20
40.6322249787737
 10
406.31814705797973
 20
40.70242429341714
 10
405.9141066539393
 20
40.772266123961764
 10
405.51006624989895
 20
40.841723036598076
 10
405.10602584585854
 20
40.91076816206754
 10
404.7019854418181
 20
40.979373119073074
 10
404.2979450377777
 20
41.04750228151257
 10
403.8939046337373
 20
41.1151178576952
 10
403.4898642296969
 20
41.182190941518535
 10
403.0858238256565
 20
41.24872503308208
 10
402.6817834216161
 20
41.314731035044325
 10
402.2777430175757
 20
41.38023245367115
 10
401.8737026135353
 20
41.44528763863621
 10
401.4696622094949
 20
41.509960892568735
 10
401.0656218054545
 20
41.57431300422736
 10
400.6615814014141
 20
41.638397053492675
 10
400.25754099737367
 20
41.70226510068606
 10
399.85350059333325
 20
41.765969569181614
 10
399.4494601892929
 20
41.82956355749851
 10
399.0454197852525
 20
41.89310024005296
 10
398.64137938121206
 20
41.95663296763455
 10
398.23733897717165
 20
42.02021538693441
 10
397.83329857313123
 20
42.08390111764834
 10
397.4292581690909
 20
42.14774011790987
 10
397.02521776505046
 20
42.211776462660296
 10
396.62117736101004
 20
42.27605324602607
 10
396.2171369569696
 20
42.34058342522857
 10
395.8130965529292
 20
42.405331332750144
 10
395.40905614888885
 20
42.47025691738344
 10
395.00501574484844
 20
42.53532224339408
 10
394.600975340808
 20
42.60049281441297
 10
386.52016725999994
 20
47.925797360497164
 10
382.79774132808075
 20
48.488097032912094
 10
379.07531539616156
 20
49.037679818359784
 10
375.35288946424237
 20
49.572736296564514
 10
371.6304635323232
 20
50.09786007689037
 10
367.908037600404
 20
50.608111316813996
 10
364.1856116684848
 20
51.08577275345174
 10
360.4631857365656
 20
51.54576130830111
 10
356.7407598046464
 20
52.012269187175754
 10
353.0183338727272
 20
52.47270239022815
 10
349.29590794080804
 20
52.91514210341759
 10
345.57348200888885
 20
53.34307577344415
 10
341.85105607696966
 20
53.76012438894123
 10
338.12863014505047
 20
54.165437804785526
 10
334.4062042131313
 20
54.54563505107936
 10
330.6837782812121
 20
54.902455856868805
 10
326.9613523492929
 20
55.258105612593624
 10
323.2389264173737
 20
55.61096808943605
 10
319.51650048545446
 20
55.947839648126525
 10
315.7940745535353
 20
56.26957623252822
 10
312.0716486216161
 20
56.57896485746868
 10
308.34922268969694
 20
56.87641947750899
 10
304.6267967577777
 20
57.15708683215926
 10
300.90437082585856
 20
57.418561928419
 10
297.1819448939393
 20
57.67338035709956
 10
293.4595189620202
 20
57.91733351386306
 10
289.73709303010094
 20
58.12653718080955
 10
286.01466709818175
 20
58.32207564795538
 10
282.29224116626256
 20
58.52658110034207
 10
278.56981523434337
 20
58.705601689319735
 10
274.8473893024242
 20
58.85570202020953
 10
271.124963370505
 20
59.01055874131125
 10
267.4025374385858
 20
59.15574323384413
 10
263.6801115066666
 20
59.26952618757163
 10
259.9576855747474
 20
59.366442551157704
 10
256.2352596428282
 20
59.45345546927453
 10
252.51283371090904
 20
59.52546785583739
 10
248.79040777898985
 20
59.58660292798068
 10
245.06798184707066
 20
59.63547603306146
 10
241.34555591515146
 20
59.65187175794498
 10
237.62312998323227
 20
59.647519692762664
 10
233.90070405131308
 20
59.652169754060154
 10
230.1782781193939
 20
59.640402145943035
 10
226.4558521874747
 20
59.59350939367481
 10
222.73342625555551
 20
59.53697494321035
 10
219.01100032363632
 20
59.46355165052457
 10
215.28857439171713
 20
59.35504224462582
 10
211.56614845979794
 20
59.24300041979241
 10
207.84372252787875
 20
59.13481701162532
 10
204.12129659595956
 20
58.99307463228819
 10
200.39887066404037
 20
58.82442560185636
 10
196.67644473212118
 20
58.65012967415287
 10
192.954018800202
 20
58.46073230038773
 10
189.2315928682828
 20
58.25322787013909
 10
185.50916693636358
 20
58.03435238510526
 10
181.7867410044444
 20
57.79472132531047
 10
178.0643150725252
 20
57.528834826144504
 10
174.341889140606
 20
57.24822825822022
 10
170.61946320868682
 20
56.94487207300535
 10
166.89703727676763
 20
56.60685015203205
 10
163.17461134484844
 20
56.26395369475734
 10
159.45218541292925
 20
55.91481833106808
 10
155.72975948101006
 20
55.51785406024001
 10
152.00733354909087
 20
55.102035112244586
 10
148.28490761717168
 20
54.69186898500868
 10
144.5624816852525
 20
54.25234165302911
 10
140.8400557533333
 20
53.78309720452462
 10
137.1176298214141
 20
53.30045624400073
 10
133.39520388949492
 20
52.787472892564054
 10
129.6727779575757
 20
52.24641041259711
 10
125.95035202565651
 20
51.696068119408565
 10
122.22792609373732
 20
51.117371276744734
 10
118.50550016181813
 20
50.499947769377016
 10
114.78307422989894
 20
49.86018361717303
 10
111.06064829797975
 20
49.211168120431694
 10
107.33822236606056
 20
48.54358519344808
 10
103.61579643414137
 20
47.82323218852023
 10
99.89337050222218
 20
47.07977919926083
 10
96.17094457030299
 20
46.33206256884002
 10
92.4485186383838
 20
45.53705784980438
 10
88.72609270646461
 20
44.68727626157944
 10
85.00366677454542
 20
43.80271821546067
 10
81.28124084262623
 20
42.90664598892284
 10
77.55881491070704
 20
41.97387420694966
 10
73.83638897878785
 20
41.00020095627541
 10
70.11396304686866
 20
39.99643928715245
 10
66.39153711494947
 20
38.91693257914691
 10
62.66911118303028
 20
37.795874861900266
 10
58.94668525111109
 20
36.64683991277329
 10
55.2242593191919
 20
35.431904951348386
 10
51.50183338727271
 20
34.16976314648465
 10
47.77940745535352
 20
32.830735156893056
 10
44.05698152343433
 20
31.429585765275743
 10
40.33455559151514
 20
29.937495943344743
 10
36.61212965959595
 20
28.356278041751622
 10
32.88970372767676
 20
26.6848867197877
 10
29.16727779575757
 20
24.88871868015469
 10
25.44485186383838
 20
22.941816517751814
 10
21.72242593191919
 20
20.794236890616244
 10
18.0
 20
18.421601354330434
 10
18.0
 20
19.62575279713356
 10
17.84834207685253
 20
19.524623517939332
 10
17.69668415370506
 20
19.42303783808922
 10
17.54502623055759
 20
19.321007097519516
 10
17.393368307410118
 20
19.21854263616654
 10
17.24171038426265
 20
19.11565405576244
 10
17.090052461115178
 20
19.01233331128773
 10
16.938394537967707
 20
18.90856208103502
 10
16.78673661482024
 20
18.804321915571975
 10
16.635078691672767
 20
18.699594365466247
 10
16.483420768525296
 20
18.594360981285522
 10
16.331762845377824
 20
18.488603313597455
 10
16.180104922230356
 20
18.382302902599946
 10
16.028446999082885
 20
18.27542192135727
 10
15.876789075935415
 20
18.16786298865122
 10
15.725131152787945
 20
18.059517313471115
 10
15.573473229640474
 20
17.95027610480627
 10
15.421815306493004
 20
17.84003057164602
 10
15.270157383345534
 20
17.728671922979682
 10
15.118499460198063
 20
17.616091367796578
 10
14.966841537050593
 20
17.502189756296715
 10
14.815183613903123
 20
17.38701046084968
 10
14.663525690755652
 20
17.2707056850578
 10
14.511867767608182
 20
17.153430381531408
 10
14.360209844460712
 20
17.03533950288082
 10
14.20855192131324
 20
16.91658800171638
 10
14.056893998165771
 20
16.79733083064841
 10
13.905236075018301
 20
16.677722936324734
 10
13.75357815187083
 20
16.557873435035102
 10
13.601920228723358
 20
16.437735167124046
 10
13.450262305575889
 20
16.31722769255298
 10
13.298604382428419
 20
16.19627057128331
 10
13.146946459280947
 20
16.074783363276445
 10
12.995288536133478
 20
15.952685628493796
 10
12.843630612986008
 20
15.829896926896764
 10
12.691972689838536
 20
15.706336485528178
 10
12.540314766691067
 20
15.581913268895736
 10
12.388656843543597
 20
15.456524281354893
 10
12.236998920396125
 20
15.330065852323019
 10
12.085340997248656
 20
15.20243431121751
 10
11.933683074101186
 20
15.073525987455731
 10
11.782025150953714
 20
14.943237210455074
 10
11.630367227806245
 20
14.811464309632905
 10
11.478709304658775
 20
14.678132770159774
 10
11.327051381511303
 20
14.543288578508584
 10
11.175393458363834
 20
14.407008848076867
 10
11.023735535216364
 20
14.269370692301214
 10
10.872077612068892
 20
14.13045122461822
 10
10.720419688921423
 20
13.990327558464488
 10
10.568761765773953
 20
13.849076807276601
 10
10.417103842626481
 20
13.706768707726152
 10
10.26544591947901
 20
13.56335490372399
 10
10.113787996331542
 20
13.418692016611008
 10
9.96213007318407
 20
13.272633973441822
 10
9.8104721500366
 20
13.12503470127108
 10
9.65881422688913
 20
12.975748127153407
 10
9.50715630374166
 20
12.824628178143447
 10
9.35549838059419
 20
12.671529033006902
 10
9.203840457446718
 20
12.516347992795748
 10
9.052182534299249
 20
12.35907397010104
 10
8.900524611151777
 20
12.199707590211235
 10
8.748866688004307
 20
12.038249478414812
 10
8.597208764856838
 20
11.874700260000242
 10
8.445550841709366
 20
11.709060560255994
 10
8.293892918561896
 20
11.54133100447054
 10
8.142234995414427
 20
11.371495199837117
 10
7.990577072266955
 20
11.199450990053368
 10
7.838919149119485
 20
11.025069262603932
 10
7.687261225972016
 20
10.848220895198295
 10
7.535603302824544
 20
10.66877676554595
 10
7.383945379677074
 20
10.48660775135639
 10
7.232287456529603
 20
10.301584730339103
 10
7.080629533382133
 20
10.113551175489942
 10
6.9289716102346635
 20
9.922089486375903
 10
6.777313687087192
 20
9.726637439740818
 10
6.625655763939722
 20
9.526631276731472
 10
6.4739978407922525
 20
9.32150723849464
 10
6.322339917644781
 20
9.110701566177113
 10
6.170681994497311
 20
8.893650500925665
 10
6.0190240713498415
 20
8.669859238328716
 10
5.86736614820237
 20
8.439682468579935
 10
5.7157082250549
 20
8.204046579467164
 10
5.5640503019074306
 20
7.963888607585385
 10
5.412392378759959
 20
7.720145589529583
 10
5.260734455612489
 20
7.4737545618947525
 10
5.109076532465018
 20
7.2256525612758775
 10
4.957418609317548
 20
6.976204481077492
 10
4.805760686170078
 20
6.720612257725426
 10
4.654102763022607
 20
6.451339750520068
 10
4.502444839875137
 20
6.160825700192341
 10
4.350786916727667
 20
5.841508847473161
 10
4.199128993580196
 20
5.485827933093439
 10
4.047471070432726
 20
5.086221697784104
 10
3.8958131472852564
 20
4.635128882276071
 10
3.744155224137785
 20
4.124988227300248
 10
3.592497300990315
 20
3.548238473587568
 10
3.4408393778428454
 20
2.8973183618689418
 10
3.289181454695374
 20
2.1646666328752797
 10
3.137523531547904
 20
1.3427220273375156
 10
2.9858656084004327
 20
0.4239232859865488
 10
2.9858656084004327
 20
0.41426052080058795
 10
3.137523531547903
 20
-0.22798456979758822
 10
3.2891814546953735
 20
-0.7518115908856636
 10
3.4408393778428437
 20
-1.1719155836462287
 10
3.5924973009903143
 20
-1.502991589261879
 10
3.7441552241377845
 20
-1.7597346489152068
 10
3.8958131472852546
 20
-1.9568398037888062
 10
4.047471070432725
 20
-2.1090020950652706
 10
4.199128993580196
 20
-2.230916563927193
 10
4.350786916727666
 20
-2.337278251557167
 10
4.502444839875136
 20
-2.442758174597912
 10
4.654102763022607
 20
-2.5570073449941138
 10
4.805760686170077
 20
-2.678512216264506
 10
4.957418609317547
 20
-2.8042541268080123
 10
5.109076532465018
 20
-2.9312144150235544
 10
5.260734455612488
 20
-3.056374419310057
 10
5.412392378759959
 20
-3.1767170507717464
 10
5.564050301907429
 20
-3.290191062202082
 10
5.715708225054899
 20
-3.397352528147054
 10
5.86736614820237
 20
-3.4991931108813126
 10
6.01902407134984
 20
-3.596704472679509
 10
6.17068199449731
 20
-3.6908782758162957
 10
6.322339917644781
 20
-3.7827061825663204
 10
6.473997840792251
 20
-3.873143385108643
 10
6.625655763939721
 20
-3.962539993005246
 10
6.777313687087192
 20
-4.050747950981393
 10
6.928971610234662
 20
-4.137604370956019
 10
7.080629533382132
 20
-4.222946364848061
 10
7.232287456529603
 20
-4.306611044576455
 10
7.3839453796770735
 20
-4.388435522060137
 10
7.535603302824544
 20
-4.4682818274155505
 10
7.687261225972014
 20
-4.546218867299152
 10
7.8389191491194845
 20
-4.622417971074274
 10
7.990577072266955
 20
-4.697051199644215
 10
8.142234995414425
 20
-4.770290613912274
 10
8.293892918561895
 20
-4.842308274781751
 10
8.445550841709366
 20
-4.913276243155949
 10
8.597208764856838
 20
-4.983353889492112
 10
8.748866688004306
 20
-5.0525818598287815
 10
8.900524611151777
 20
-5.120935977468237
 10
9.052182534299249
 20
-5.188391409412136
 10
9.203840457446717
 20
-5.254923322662126
 10
9.355498380594188
 20
-5.320506884219867
 10
9.50715630374166
 20
-5.385117261087013
 10
9.65881422688913
 20
-5.4487311530047675
 10
9.810472150036599
 20
-5.511357963194682
 10
9.96213007318407
 20
-5.5730384416944
 10
10.11378799633154
 20
-5.633814599795588
 10
10.26544591947901
 20
-5.693728448789913
 10
10.417103842626481
 20
-5.7528219999690435
 10
10.568761765773951
 20
-5.8111372646246435
 10
10.720419688921421
 20
-5.868716148681221
 10
10.872077612068892
 20
-5.925585247504239
 10
11.023735535216362
 20
-5.98173993309403
 10
11.175393458363832
 20
-6.037171773306382
 10
11.327051381511303
 20
-6.091872335997086
 10
11.478709304658773
 20
-6.145833189021935
 10
11.630367227806243
 20
-6.199045900236714
 10
11.782025150953714
 20
-6.25150203749722
 10
11.933683074101184
 20
-6.303200438745958
 10
12.085340997248656
 20
-6.354181353275061
 10
12.236998920396125
 20
-6.404499671773979
 10
12.388656843543595
 20
-6.454210301800811
 10
12.540314766691067
 20
-6.503368150913657
 10
12.691972689838536
 20
-6.552028126670609
 10
12.843630612986006
 20
-6.600245136629772
 10
12.995288536133478
 20
-6.6480733159540835
 10
13.146946459280947
 20
-6.695540171413998
 10
13.298604382428417
 20
-6.742640465457138
 10
13.450262305575889
 20
-6.7893669485358705
 10
13.601920228723358
 20
-6.835712371102573
 10
13.75357815187083
 20
-6.881669483609617
 10
13.9052360750183
 20
-6.927231036509375
 10
14.05689399816577
 20
-6.972389780254221
 10
14.20855192131324
 20
-7.017135451987356
 10
14.36020984446071
 20
-7.0614399788338424
 10
14.51186776760818
 20
-7.10526876813222
 10
14.663525690755652
 20
-7.148587217455563
 10
14.815183613903121
 20
-7.1913607243769535
 10
14.966841537050591
 20
-7.233554686469468
 10
15.118499460198063
 20
-7.275134501306186
 10
15.270157383345532
 20
-7.316066353059858
 10
15.421815306493002
 20
-7.356350524292138
 10
15.573473229640474
 20
-7.396033743446336
 10
15.725131152787943
 20
-7.435166069234117
 10
15.876789075935415
 20
-7.473797560367144
 10
16.028446999082885
 20
-7.511978275557088
 10
16.180104922230356
 20
-7.549758273515609
 10
16.331762845377824
 20
-7.587187612954379
 10
16.483420768525296
 20
-7.6243104515115165
 10
16.635078691672767
 20
-7.661135446584036
 10
16.786736614820235
 20
-7.697658043295893
 10
16.938394537967707
 20
-7.733873664550453
 10
17.090052461115178
 20
-7.769777733251085
 10
17.241710384262646
 20
-7.8053656723011535
 10
17.393368307410118
 20
-7.840632904604029
 10
17.54502623055759
 20
-7.875574874492035
 10
17.696684153705057
 20
-7.910189666785442
 10
17.84834207685253
 20
-7.944480520319645
 10
18.0
 20
-7.9784512697094
 10
18.0
 20
-6.953568342739207
 10
18.343434343434343
 20
-7.030358561356395
 10
18.686868686868685
 20
-7.10552246246117
 10
19.03030303030303
 20
-7.179106871346822
 10
19.373737373737374
 20
-7.251164934078565
 10
19.717171717171716
 20
-7.321757013997855
 10
20.060606060606062
 20
-7.390943837404264
 10
20.404040404040405
 20
-7.458751716928396
 10
20.747474747474747
 20
-7.525106716731962
 10
21.09090909090909
 20
-7.5899167467335165
 10
21.434343434343432
 20
-7.653101417847757
 10
21.77777777777778
 20
-7.714676615688388
 10
22.12121212121212
 20
-7.77470553231938
 10
22.464646464646464
 20
-7.833253384119964
 10
22.80808080808081
 20
-7.890442532767468
 10
23.151515151515152
 20
-7.94646485382498
 10
23.494949494949495
 20
-8.001516417692198
 10
23.838383838383837
 20
-8.055747683976827
 10
24.18181818181818
 20
-8.109151833363347
 10
24.525252525252526
 20
-8.161688170526045
 10
24.86868686868687
 20
-8.213313996616185
 10
25.21212121212121
 20
-8.263962054358785
 10
25.555555555555557
 20
-8.313548618954481
 10
25.8989898989899
 20
-8.361990115865677
 10
26.242424242424242
 20
-8.409249940419095
 10
26.585858585858585
 20
-8.45537870504538
 10
26.929292929292927
 20
-8.500436505606235
 10
27.272727272727273
 20
-8.544484661599123
 10
27.616161616161616
 20
-8.587591446561081
 10
27.95959595959596
 20
-8.629827587373468
 10
28.303030303030305
 20
-8.671262789399753
 10
28.646464646464647
 20
-8.711941283306537
 10
28.98989898989899
 20
-8.751880712907889
 10
29.333333333333332
 20
-8.791097475014155
 10
29.676767676767675
 20
-8.82960738427036
 10
30.02020202020202
 20
-8.867424353532623
 10
30.363636363636363
 20
-8.90456190793942
 10
30.707070707070706
 20
-8.941032678195992
 10
31.050505050505052
 20
-8.976838053566489
 10
31.393939393939394
 20
-9.011971748971963
 10
31.737373737373737
 20
-9.046427301430093
 10
32.08080808080808
 20
-9.080193440009722
 10
32.42424242424242
 20
-9.113248813893502
 10
32.76767676767677
 20
-9.145570803378016
 10
33.111111111111114
 20
-9.177137525318233
 10
33.45454545454545
 20
-9.207932471315962
 10
33.7979797979798
 20
-9.237941515258985
 10
34.141414141414145
 20
-9.267150961023207
 10
34.484848484848484
 20
-9.295564318788331
 10
34.82828282828282
 20
-9.323207988808047
 10
35.17171717171717
 20
-9.350109956511664
 10
35.515151515151516
 20
-9.376297943629583
 10
35.858585858585855
 20
-9.401798537586922
 10
36.2020202020202
 20
-9.42663802087928
 10
36.54545454545455
 20
-9.450842486777438
 10
36.888888888888886
 20
-9.474434578080338
 10
37.23232323232323
 20
-9.497433924194599
 10
37.57575757575758
 20
-9.519860050101078
 10
37.91919191919192
 20
-9.541729925243203
 10
38.26262626262626
 20
-9.563053345360293
 10
38.60606060606061
 20
-9.583838856799089
 10
38.94949494949495
 20
-9.604095070458907
 10
39.292929292929294
 20
-9.623831308727407
 10
39.63636363636364
 20
-9.643057335180748
 10
39.97979797979798
 20
-9.661782927551117
 10
40.32323232323232
 20
-9.680018882523678
 10
40.666666666666664
 20
-9.697778034112705
 10
41.01010101010101
 20
-9.715073458766113
 10
41.35353535353535
 20
-9.73191859617257
 10
41.696969696969695
 20
-9.748329633189023
 10
42.04040404040404
 20
-9.76432401288765
 10
42.38383838383838
 20
-9.779919191907892
 10
42.72727272727273
 20
-9.795133031566719
 10
43.07070707070707
 20
-9.80998400887908
 10
43.41414141414141
 20
-9.824490652495648
 10
43.75757575757576
 20
-9.838670539202758
 10
44.101010101010104
 20
-9.852535789524516
 10
44.44444444444444
 20
-9.866096583323563
 10
44.78787878787879
 20
-9.879362651564106
 10
45.131313131313135
 20
-9.892328017333323
 10
45.474747474747474
 20
-9.90496720596995
 10
45.81818181818181
 20
-9.917253527166254
 10
46.16161616161616
 20
-9.929161181050782
 10
46.505050505050505
 20
-9.940668427539327
 10
46.848484848484844
 20
-9.951754682937663
 10
47.19191919191919
 20
-9.962399190049032
 10
47.535353535353536
 20
-9.972577273677816
 10
47.878787878787875
 20
-9.982260381575115
 10
48.22222222222222
 20
-9.991419797682951
 10
48.56565656565657
 20
-10.000035478372313
 10
48.90909090909091
 20
-10.008116358088653
 10
49.25252525252525
 20
-10.015677416631597
 10
49.5959595959596
 20
-10.022734285729332
 10
49.93939393939394
 20
-10.029311678958083
 10
50.282828282828284
 20
-10.035440972178389
 10
50.62626262626262
 20
-10.041153690796456
 10
50.96969696969697
 20
-10.046480092845039
 10
51.313131313131315
 20
-10.05144734814995
 10
51.656565656565654
 20
-10.056082165073011
 10
52.0
 20
-10.060411395927936
 10
56.04040404040404
 20
-6.094268594956255
 10
56.44444444444444
 20
-6.095968077923104
 10
56.84848484848485
 20
-6.09732300598026
 10
57.25252525252525
 20
-6.098324231679399
 10
57.656565656565654
 20
-6.098962412230554
 10
58.06060606060606
 20
-6.099228751265801
 10
58.464646464646464
 20
-6.099118114877334
 10
58.868686868686865
 20
-6.098626870547841
 10
59.27272727272727
 20
-6.09775141967444
 10
59.676767676767675
 20
-6.096488317829671
 10
60.08080808080808
 20
-6.094834171008016
 10
60.484848484848484
 20
-6.092785696602032
 10
60.888888888888886
 20
-6.090340071690892
 10
61.292929292929294
 20
-6.08749459176279
 10
61.696969696969695
 20
-6.084245935758599
 10
62.101010101010104
 20
-6.080588785410734
 10
62.505050505050505
 20
-6.076517428661626
 10
62.90909090909091
 20
-6.072030349270887
 10
63.313131313131315
 20
-6.067136726399828
 10
63.717171717171716
 20
-6.061847439612495
 10
64.12121212121212
 20
-6.056176371805521
 10
64.52525252525253
 20
-6.050143505596137
 10
64.92929292929293
 20
-6.04376954998822
 10
65.33333333333333
 20
-6.037074264025097
 10
65.73737373737373
 20
-6.030075833939849
 10
66.14141414141415
 20
-6.022792309348627
 10
66.54545454545455
 20
-6.015242240935839
 10
66.94949494949495
 20
-6.007444872869401
 10
67.35353535353535
 20
-5.999419454914564
 10
67.75757575757575
 20
-5.991183795466681
 10
68.16161616161617
 20
-5.982753996854387
 10
68.56565656565657
 20
-5.974145654930558
 10
68.96969696969697
 20
-5.965364450639687
 10
69.37373737373737
 20
-5.95640584264717
 10
69.77777777777777
 20
-5.947264867837469
 10
70.18181818181819
 20
-5.937937479839034
 10
70.58585858585859
 20
-5.9284204610623945
 10
70.98989898989899
 20
-5.918710614032996
 10
71.39393939393939
 20
-5.908804589957912
 10
71.79797979797979
 20
-5.898698920456594
 10
72.20202020202021
 20
-5.888390101962587
 10
72.60606060606061
 20
-5.877874225760704
 10
73.01010101010101
 20
-5.86714710463246
 10
73.41414141414141
 20
-5.856204759704959
 10
73.81818181818181
 20
-5.845045441643606
 10
74.22222222222223
 20
-5.833668726564003
 10
74.62626262626263
 20
-5.822074547536824
 10
75.03030303030303
 20
-5.810265770027558
 10
75.43434343434343
 20
-5.798246760151134
 10
75.83838383838383
 20
-5.786021812591947
 10
76.24242424242425
 20
-5.773594617462807
 10
76.64646464646465
 20
-5.760968598906207
 10
77.05050505050505
 20
-5.748147201961557
 10
77.45454545454545
 20
-5.735134006717264
 10
77.85858585858585
 20
-5.721932644372334
 10
78.26262626262627
 20
-5.708546757239942
 10
78.66666666666667
 20
-5.694980045271772
 10
79.07070707070707
 20
-5.68123622720436
 10
79.47474747474747
 20
-5.667318895100142
 10
79.87878787878788
 20
-5.653231071038541
 10
80.28282828282829
 20
-5.63897561686691
 10
80.68686868686868
 20
-5.624555296613511
 10
81.0909090909091
 20
-5.609972493873637
 10
81.4949494949495
 20
-5.595229499767903
 10
81.8989898989899
 20
-5.5803286411310795
 10
82.3030303030303
 20
-5.565272365370301
 10
82.7070707070707
 20
-5.550063145266686
 10
83.11111111111111
 20
-5.5347033991724555
 10
83.51515151515152
 20
-5.519195385161277
 10
83.91919191919192
 20
-5.503541332375713
 10
92.0
 20
-12.167236380279336
 10
96.62626262626263
 20
-11.944349143267905
 10
101.25252525252526
 20
-11.714945328780344
 10
105.87878787878788
 20
-11.477407166878557
 10
110.5050505050505
 20
-11.226467563876787
 10
115.13131313131314
 20
-10.97123601544031
 10
119.75757575757575
 20
-10.709398986213737
 10
124.38383838383838
 20
-10.44206487997826
 10
129.010101010101
 20
-10.175771665037232
 10
133.63636363636363
 20
-9.905207195038013
 10
138.26262626262627
 20
-9.631043218799304
 10
142.88888888888889
 20
-9.357889905690318
 10
147.5151515151515
 20
-9.084322151610671
 10
152.14141414141415
 20
-8.811969591816183
 10
156.76767676767676
 20
-8.541931148231502
 10
161.39393939393938
 20
-8.271418618351834
 10
166.02020202020202
 20
-8.003663127999857
 10
170.64646464646466
 20
-7.7404156127089205
 10
175.27272727272728
 20
-7.479186318813503
 10
179.8989898989899
 20
-7.222333093597953
 10
184.52525252525254
 20
-6.968222530959711
 10
189.15151515151516
 20
-6.713516576359304
 10
193.77777777777777
 20
-6.465412267908416
 10
198.40404040404042
 20
-6.221005419761169
 10
203.03030303030303
 20
-5.97605000262475
 10
207.65656565656565
 20
-5.740918549691751
 10
212.2828282828283
 20
-5.508617349053132
 10
216.9090909090909
 20
-5.273649733338742
 10
221.53535353535352
 20
-5.046432976410178
 10
226.16161616161617
 20
-4.819352101888891
 10
230.78787878787878
 20
-4.591578384723962
 10
235.41414141414143
 20
-4.374089556181649
 10
240.04040404040404
 20
-4.157044291795676
 10
244.66666666666666
 20
-3.9388113661079434
 10
249.2929292929293
 20
-3.7264182186481056
 10
253.91919191919192
 20
-3.516419479983465
 10
258.54545454545456
 20
-3.3085382567020933
 10
263.1717171717172
 20
-3.103025252758393
 10
267.7979797979798
 20
-2.894696573936032
 10
272.42424242424244
 20
-2.6865866045829043
 10
277.0505050505051
 20
-2.482751586507253
 10
281.67676767676767
 20
-2.2812936011799607
 10
286.3030303030303
 20
-2.0804161475526692
 10
290.92929292929296
 20
-1.879204823859153
 10
295.55555555555554
 20
-1.6778192833526413
 10
300.1818181818182
 20
-1.4775546560572312
 10
304.80808080808083
 20
-1.278101331791926
 10
309.4343434343434
 20
-1.0778213096754707
 10
314.06060606060606
 20
-0.877297593220745
 10
318.6868686868687
 20
-0.677039586649237
 10
323.3131313131313
 20
-0.47679103989173033
 10
327.93939393939394
 20
-0.2756419058820617
 10
332.5656565656566
 20
-0.07397068308253071
 10
337.19191919191917
 20
0.12752688255054326
 10
341.8181818181818
 20
0.3293890280269238
 10
346.44444444444446
 20
0.5317872812164046
 10
351.07070707070704
 20
0.7346299856922021
 10
355.6969696969697
 20
0.9378616540135125
 10
360.32323232323233
 20
1.141542703017911
 10
364.949494949495
 20
1.3454638548033921
 10
369.57575757575756
 20
1.549156642345031
 10
374.2020202020202
 20
1.7529565289582192
 10
378.82828282828285
 20
1.9568454836552513
 10
383.45454545454544
 20
2.1601706673412666
 10
388.0808080808081
 20
2.3624477245217537
 10
392.7070707070707
 20
2.56434612576814
 10
397.3333333333333
 20
2.7660120452882224
 10
401.95959595959596
 20
2.963968898028829
 10
406.5858585858586
 20
3.1633879294841267
 10
411.2121212121212
 20
3.3678123720666693
 10
415.83838383838383
 20
3.5640304662788242
 10
420.4646464646465
 20
3.7508240262299775
 10
425.0909090909091
 20
3.936069077312503
 10
429.7171717171717
 20
4.127585836217952
 10
434.34343434343435
 20
4.3119849440329805
 10
438.969696969697
 20
4.483390707983693
 10
443.5959595959596
 20
4.650249860103962
 10
448.22222222222223
 20
4.815817390324929
 10
452.8484848484849
 20
4.978880859292669
 10
457.47474747474746
 20
5.1339253368598765
 10
462.1010101010101
 20
5.27345022583533
 10
466.72727272727275
 20
5.405610127391025
 10
471.35353535353534
 20
5.5349639392249665
 10
475.979797979798
 20
5.651413485681295
 10
480.6060606060606
 20
5.757168359945012
 10
485.2323232323232
 20
5.8511964472587445
 10
489.85858585858585
 20
5.930225781973235
 10
494.4848484848485
 20
6.000761552258779
 10
499.1111111111111
 20
6.055952612171369
 10
503.73737373737373
 20
6.091092627368687
 10
508.3636363636364
 20
6.110891064808575
 10
512.9898989898991
 20
6.111061995707388
 10
517.6161616161617
 20
6.091859009786823
 10
522.2424242424242
 20
6.054986261348421
 10
526.8686868686868
 20
5.9975639813857855
 10
531.4949494949494
 20
5.915802143640075
 10
536.1212121212121
 20
5.805528620377575
 10
540.7474747474748
 20
5.66971463830643
 10
545.3737373737374
 20
5.515557173651028
 10
550.0
 20
5.326049166719034
  0
LWPOLYLINE
  5
92
330
17
100
AcDbEntity
  8
0
100
AcDbPolyline
 90
202
 70
1
 10
120.0
 20
22.97224622794042
 10
130.47981235973492
 20
53.37541255379466
 10
130.8653453000404
 20
53.4318137645531
 10
131.25087824034586
 20
53.48810055991434
 10
131.63641118065132
 20
53.54423931765602
 10
132.02194412095682
 20
53.60019739549369
 10
132.40747706126228
 20
53.65594381244027
 10
132.79301000156775
 20
53.711447748011246
 10
133.17854294187322
 20
53.766678279674004
 10
133.56407588217868
 20
53.82160425374095
 10
133.94960882248415
 20
53.87619448435001
 10
134.33514176278965
 20
53.93041725009133
 10
134.7206747030951
 20
53.98423921559519
 10
135.10620764340058
 20
54.03762674267252
 10
135.49174058370605
 20
54.09055609032676
 10
135.8772735240115
 20
54.143043000373666
 10
136.26280646431698
 20
54.195113058913705
 10
136.64833940462245
 20
54.24679222581219
 10
137.03387234492794
 20
54.29810843799014
 10
137.4194052852334
 20
54.34909028363217
 10
137.80493822553888
 20
54.39976624381852
 10
138.19047116584434
 20
54.4501640292383
 10
138.5760041061498
 20
54.50031101450759
 10
138.96153704645528
 20
54.55023463356351
 10
139.34706998676074
 20
54.59996293261335
 10
139.73260292706624
 20
54.64952431255045
 10
140.1181358673717
 20
54.698947043933195
 10
140.50366880767717
 20
54.748257371267385
 10
140.88920174798264
 20
54.79747997378042
 10
141.2747346882881
 20
54.84663838986364
 10
141.66026762859357
 20
54.895729161689154
 10
142.04580056889907
 20
54.94472086120442
 10
142.43133350920453
 20
54.99358078682033
 10
142.81686644951
 20
55.04227721559154
 10
143.20239938981547
 20
55.0907797829909
 10
143.58793233012094
 20
55.13905822405357
 10
143.9734652704264
 20
55.18708221806121
 10
144.3589982107319
 20
55.2348213413309
 10
144.74453115103736
 20
55.28224515682524
 10
145.13006409134283
 20
55.32932248284932
 10
145.5155970316483
 20
55.37602031796781
 10
145.90112997195376
 20
55.42230538864908
 10
146.28666291225923
 20
55.46814662094117
 10
146.6721958525647
 20
55.5135200176882
 10
147.0577287928702
 20
55.55840300216909
 10
147.44326173317566
 20
55.602785577259624
 10
147.82879467348113
 20
55.646710832767766
 10
148.2143276137866
 20
55.69023586003168
 10
148.59986055409206
 20
55.73341692427938
 10
148.98539349439753
 20
55.77630566069386
 10
149.370926434703
 20
55.81895209254909
 10
149.7564593750085
 20
55.86140622403351
 10
150.14199231531396
 20
55.90371792434075
 10
150.52752525561942
 20
55.945936999710405
 10
150.9130581959249
 20
55.98811351101451
 10
151.29859113623036
 20
56.03030041098601
 10
151.68412407653582
 20
56.07255248428501
 10
152.0696570168413
 20
56.11492388856162
 10
152.45518995714679
 20
56.15745679900109
 10
152.84072289745225
 20
56.20018291594078
 10
153.22625583775772
 20
56.24313228432378
 10
153.6117887780632
 20
56.28629054901171
 10
153.99732171836865
 20
56.329589046929954
 10
154.38285465867415
 20
56.37295585431873
 10
154.76838759897961
 20
56.416322885654495
 10
155.15392053928508
 20
56.45962860192225
 10
155.53945347959055
 20
56.502812101100574
 10
155.92498641989602
 20
56.54581189009978
 10
156.31051936020148
 20
56.588565095082444
 10
156.69605230050695
 20
56.63100864475088
 10
157.08158524081244
 20
56.67307800140358
 10
157.4671181811179
 20
56.71470403019822
 10
157.85265112142338
 20
56.75581669781552
 10
158.23818406172884
 20
56.79635031695192
 10
158.6237170020343
 20
56.836257009159496
 10
159.00924994233978
 20
56.875493456984486
 10
159.39478288264525
 20
56.91403124002482
 10
159.78031582295074
 20
56.9519198893063
 10
160.1658487632562
 20
56.98923434726171
 10
160.55138170356167
 20
57.026048206117075
 10
160.93691464386714
 20
57.062425821119774
 10
161.3224475841726
 20
57.09842771647921
 10
161.70798052447807
 20
57.13411443812867
 10
162.09351346478354
 20
57.16954684576601
 10
162.47904640508904
 20
57.204785968212434
 10
162.8645793453945
 20
57.23989316089831
 10
163.25011228569997
 20
57.27493415511684
 10
163.63564522600544
 20
57.309977817971706
 10
164.0211781663109
 20
57.345092202642775
 10
164.4067111066164
 20
57.38032591641252
 10
164.79224404692184
 20
57.4157085788967
 10
165.17777698722733
 20
57.45126822484646
 10
165.5633099275328
 20
57.486998700111556
 10
165.94884286783827
 20
57.52284742206109
 10
166.33437580814373
 20
57.558758532559246
 10
166.7199087484492
 20
57.594680478146685
 10
167.1054416887547
 20
57.630569863352726
 10
167.49097462906013
 20
57.66638420119392
 10
167.87650756936563
 20
57.70208040627508
 10
168.2620405096711
 20
57.73761382327713
 10
168.64757344997656
 20
57.77293954249939
 10
180.0
 20
22.97224622794042
 10
168.64757344997656
 20
-8.855432198317915
 10
168.2620405096711
 20
-8.877352978243819
 10
167.87650756936563
 20
-8.899294378662784
 10
167.49097462906013
 20
-8.921258723694837
 10
167.1054416887547
 20
-8.943248337460009
 10
166.7199087484492
 20
-8.96526554407833
 10
166.33437580814373
 20
-8.987312667669837
 10
165.94884286783827
 20
-9.009392032354548
 10
165.5633099275328
 20
-9.0315059622525
 10
165.17777698722733
 20
-9.053656781483724
 10
164.79224404692184
 20
-9.075846814168248
 10
164.4067111066164
 20
-9.098078384426104
 10
164.0211781663109
 20
-9.120353703724765
 10
163.63564522600544
 20
-9.142672229009314
 10
163.25011228569997
 20
-9.165030568677622
 10
162.8645793453945
 20
-9.187425199663387
 10
162.47904640508904
 20
-9.209852598900321
 10
162.09351346478354
 20
-9.232309243322131
 10
161.70798052447807
 20
-9.254791609862526
 10
161.3224475841726
 20
-9.277296175455207
 10
160.93691464386714
 20
-9.299819417033884
 10
160.55138170356167
 20
-9.322357811532264
 10
160.1658487632562
 20
-9.344907835884053
 10
159.78031582295074
 20
-9.36746596702296
 10
159.39478288264525
 20
-9.39002868188269
 10
159.00924994233978
 20
-9.412592457396949
 10
158.6237170020343
 20
-9.435153770499445
 10
158.23818406172884
 20
-9.457709098123885
 10
157.85265112142338
 20
-9.480254917203974
 10
157.4671181811179
 20
-9.502787763583557
 10
157.08158524081244
 20
-9.525306615656461
 10
156.69605230050695
 20
-9.547813715880572
 10
156.31051936020148
 20
-9.570311534268436
 10
155.92498641989602
 20
-9.592802540832588
 10
155.53945347959055
 20
-9.615289205585576
 10
155.15392053928508
 20
-9.637773998539938
 10
154.76838759897961
 20
-9.660259389708216
 10
154.38285465867415
 20
-9.682747849102949
 10
153.99732171836865
 20
-9.70524184673668
 10
153.6117887780632
 20
-9.727743852621952
 10
153.22625583775772
 20
-9.750256336771303
 10
152.84072289745225
 20
-9.772781769197278
 10
152.45518995714679
 20
-9.795322619912417
 10
152.0696570168413
 20
-9.817881358929263
 10
151.68412407653582
 20
-9.840460456260352
 10
151.29859113623036
 20
-9.863062381918231
 10
150.9130581959249
 20
-9.88568960591544
 10
150.52752525561942
 20
-9.908343999779818
 10
150.14199231531396
 20
-9.93102430860332
 10
149.7564593750085
 20
-9.95372825993873
 10
149.370926434703
 20
-9.976453580789348
 10
148.98539349439753
 20
-9.999197998158468
 10
148.59986055409206
 20
-10.021959239049387
 10
148.2143276137866
 20
-10.044735030465391
 10
147.82879467348113
 20
-10.06752309940978
 10
147.44326173317566
 20
-10.090321172885856
 10
147.0577287928702
 20
-10.113126977896902
 10
146.6721958525647
 20
-10.135938241446222
 10
146.28666291225923
 20
-10.158752690537108
 10
145.90112997195376
 20
-10.181568052172853
 10
145.5155970316483
 20
-10.204382053356756
 10
145.13006409134283
 20
-10.227192421092104
 10
144.74453115103736
 20
-10.249996882382202
 10
144.3589982107319
 20
-10.27279316423034
 10
143.9734652704264
 20
-10.295579152230397
 10
143.58793233012094
 20
-10.318354896924227
 10
143.20239938981547
 20
-10.341122015057366
 10
142.81686644951
 20
-10.363882158268847
 10
142.43133350920453
 20
-10.386636978197703
 10
142.04580056889907
 20
-10.409388126482972
 10
141.66026762859357
 20
-10.432137254763678
 10
141.2747346882881
 20
-10.454886014678856
 10
140.88920174798264
 20
-10.477636057867544
 10
140.50366880767717
 20
-10.500389035968764
 10
140.1181358673717
 20
-10.523146600621557
 10
139.73260292706624
 20
-10.545910403464951
 10
139.34706998676074
 20
-10.568682096137987
 10
138.96153704645528
 20
-10.591463330279685
 10
138.5760041061498
 20
-10.614255757529085
 10
138.19047116584434
 20
-10.637061029525219
 10
137.80493822553888
 20
-10.65988079790712
 10
137.4194052852334
 20
-10.682716676576097
 10
137.03387234492794
 20
-10.705568053255918
 10
136.64833940462245
 20
-10.728430886817842
 10
136.26280646431698
 20
-10.751300843702449
 10
135.8772735240115
 20
-10.774173590350312
 10
135.49174058370605
 20
-10.797044793202002
 10
135.10620764340058
 20
-10.8199101186981
 10
134.7206747030951
 20
-10.842765233279186
 10
134.33514176278965
 20
-10.865605803385822
 10
133.94960882248415
 20
-10.888427495458595
 10
133.56407588217868
 20
-10.911225975938075
 10
133.17854294187322
 20
-10.933996911264833
 10
132.79301000156775
 20
-10.956735967879455
 10
132.40747706126228
 20
-10.979438812222504
 10
132.02194412095682
 20
-11.002101110734564
 10
131.63641118065132
 20
-11.02471852985621
 10
131.25087824034586
 20
-11.047286736028008
 10
130.8653453000404
 20
-11.069801395861793
 10
130.47981235973492
 20
-11.09225997476308
  0
ELLIPSE
  5
93
330
17
100
AcDbEntity
  8
0
100
AcDbEllipse
 10
150.0
 20
22.97224622794042
 30
0.0
 11
20.0
 21
0.0
 31
0.0
 40
0.75
 41
0.0
 42
6.283185307179586
  0
LWPOLYLINE
  5
94
330
17
100
AcDbEntity
  8
0
100
AcDbPolyline
 90
400
 70
1
 10
530.0
 20
21.205489373555366
 10
530.4040404040404
 20
21.096016957984904
 10
530.8080808080808
 20
20.986504081423146
 10
531.2121212121212
 20
20.876960549793246
 10
531.6161616161617
 20
20.767396169018355
 10
532.020202020202
 20
20.657820745021674
 10
532.4242424242424
 20
20.548244083726285
 10
532.8282828282828
 20
20.438675991055383
 10
533.2323232323232
 20
20.329126272932125
 10
533.6363636363636
 20
20.219604735279667
 10
534.040404040404
 20
20.11011802800268
 10
534.4444444444445
 20
20.000629471208764
 10
534.8484848484849
 20
19.8910709151931
 10
535.2525252525253
 20
19.781373502542856
 10
535.6565656565657
 20
19.671468375845194
 10
536.060606060606
 20
19.561286677687296
 10
536.4646464646464
 20
19.450759550656247
 10
536.8686868686868
 20
19.33981813733925
 10
537.2727272727273
 20
19.228393580323456
 10
537.6767676767677
 20
19.11641702219602
 10
538.0808080808081
 20
19.003819605544102
 10
538.4848484848485
 20
18.890532472954856
 10
538.8888888888889
 20
18.776486767015445
 10
539.2929292929293
 20
18.66161363031302
 10
539.6969696969697
 20
18.54584420543474
 10
540.10101010101
 20
18.429111754798868
 10
540.5050505050505
 20
18.311434426995778
 10
540.9090909090909
 20
18.192942095970757
 10
541.3131313131313
 20
18.073772250663836
 10
541.7171717171717
 20
17.954062380015046
 10
542.1212121212121
 20
17.8339499729644
 10
542.5252525252525
 20
17.71357251845195
 10
542.929292929293
 20
17.593067505417704
 10
543.3333333333334
 20
17.472572422801694
 10
543.7373737373738
 20
17.352224759543954
 10
544.1414141414141
 20
17.23216200458454
 10
544.5454545454545
 20
17.112521646863417
 10
544.9494949494949
 20
16.99344117532064
 10
545.3535353535353
 20
16.875058078896238
 10
545.7575757575758
 20
16.757509846530244
 10
546.1616161616162
 20
16.640902984684562
 10
546.5656565656566
 20
16.525172834334548
 10
546.969696969697
 20
16.410195952249673
 10
547.3737373737374
 20
16.29584884201219
 10
547.7777777777778
 20
16.18200800720433
 10
548.1818181818181
 20
16.06854995140838
 10
548.5858585858585
 20
15.95535117820651
 10
548.989898989899
 20
15.842288191180998
 10
549.3939393939394
 20
15.729237493914093
 10
549.7979797979798
 20
15.616075589988032
 10
550.2020202020202
 20
15.502678982985058
 10
550.6060606060606
 20
15.38892417648742
 10
551.010101010101
 20
15.274687674077354
 10
551.4141414141415
 20
15.159845979337108
 10
551.8181818181819
 20
15.044275595848926
 10
552.2222222222222
 20
14.927862148997479
 10
552.6262626262626
 20
14.810597556050059
 10
553.030303030303
 20
14.692542429021772
 10
553.4343434343434
 20
14.573758530213764
 10
553.8383838383838
 20
14.454307621927175
 10
554.2424242424242
 20
14.334251466463137
 10
554.6464646464647
 20
14.213651826122796
 10
555.0505050505051
 20
14.092570463207283
 10
555.4545454545455
 20
13.971069140017743
 10
555.8585858585859
 20
13.849209618855308
 10
556.2626262626262
 20
13.72705366202116
 10
556.6666666666666
 20
13.604663031816361
 10
557.070707070707
 20
13.482099490542089
 10
557.4747474747475
 20
13.359424800499474
 10
557.8787878787879
 20
13.236700710050444
 10
558.2828282828283
 20
13.113984044343123
 10
558.6868686868687
 20
12.991319470343553
 10
559.0909090909091
 20
12.868749811140122
 10
559.4949494949495
 20
12.746317889821228
 10
559.89898989899
 20
12.624066529475273
 10
560.3030303030303
 20
12.502038553190681
 10
560.7070707070707
 20
12.380276784055782
 10
561.1111111111111
 20
12.258824045159006
 10
561.5151515151515
 20
12.137723159588749
 10
561.9191919191919
 20
12.017016950433408
 10
562.3232323232323
 20
11.89674824078138
 10
562.7272727272727
 20
11.776959853721058
 10
563.1313131313132
 20
11.657694612340842
 10
563.5353535353536
 20
11.538995339729126
 10
563.939393939394
 20
11.420894998173534
 10
564.3434343434343
 20
11.30331000136459
 10
564.7474747474747
 20
11.186080650062266
 10
565.1515151515151
 20
11.06904593448327
 10
565.5555555555555
 20
10.952044844844272
 10
565.959595959596
 20
10.834916371361933
 10
566.3636363636364
 20
10.717499504252928
 10
566.7676767676768
 20
10.599633233733922
 10
567.1717171717172
 20
10.48115655002158
 10
567.5757575757576
 20
10.361908443332581
 10
567.9797979797979
 20
10.241727903883614
 10
568.3838383838383
 20
10.120453921891293
 10
568.7878787878788
 20
9.997925487572312
 10
569.1919191919192
 20
9.87398159114334
 10
569.5959595959596
 20
9.748461479766245
 10
570.0
 20
9.621301042168277
 10
570.0
 20
9.411519287674038
 10
570.3010101010101
 20
9.315689935371664
 10
570.6020202020202
 20
9.219124790839327
 10
570.9030303030303
 20
9.121929403677562
 10
571.2040404040404
 20
9.024209091931061
 10
571.5050505050505
 20
8.926060402422289
 10
571.8060606060606
 20
8.827568619434896
 10
572.1070707070706
 20
8.728818287650398
 10
572.4080808080809
 20
8.629894001499329
 10
572.709090909091
 20
8.53088215551267
 10
573.010101010101
 20
8.431871407975803
 10
573.3111111111111
 20
8.332950561183559
 10
573.6121212121212
 20
8.234208452270606
 10
573.9131313131313
 20
8.135735141991901
 10
574.2141414141414
 20
8.037622208856321
 10
574.5151515151515
 20
7.939961325896388
 10
574.8161616161616
 20
7.84284245337931
 10
575.1171717171717
 20
7.746296358931955
 10
575.4181818181818
 20
7.6502809387663575
 10
575.7191919191919
 20
7.554749603453795
 10
576.020202020202
 20
7.459655683588993
 10
576.321212121212
 20
7.3649497794034104
 10
576.6222222222223
 20
7.270579149044194
 10
576.9232323232324
 20
7.176490846768312
 10
577.2242424242424
 20
7.082631984585519
 10
577.5252525252525
 20
6.98895161001305
 10
577.8262626262626
 20
6.895401119099361
 10
578.1272727272727
 20
6.801932049220534
 10
578.4282828282828
 20
6.708495778389759
 10
578.7292929292929
 20
6.615038485643798
 10
579.030303030303
 20
6.521500122068497
 10
579.3313131313131
 20
6.427820271485805
 10
579.6323232323232
 20
6.3339393370963615
 10
579.9333333333333
 20
6.239823537715522
 10
580.2343434343434
 20
6.145469500982095
 10
580.5353535353535
 20
6.0508756002842965
 10
580.8363636363637
 20
5.956040857652533
 10
581.1373737373738
 20
5.860983958196207
 10
581.4383838383839
 20
5.765746314452787
 10
581.739393939394
 20
5.670370604504572
 10
582.040404040404
 20
5.574899311468801
 10
582.3414141414141
 20
5.47936921494984
 10
582.6424242424242
 20
5.383810618108102
 10
582.9434343434343
 20
5.288253473769594
 10
583.2444444444444
 20
5.192727946149431
 10
583.5454545454545
 20
5.0972702020720435
 10
583.8464646464646
 20
5.001923122686741
 10
584.1474747474747
 20
4.906729943435491
 10
584.4484848484848
 20
4.81173311353805
 10
584.7494949494949
 20
4.716953289681813
 10
585.0505050505051
 20
4.622387051310697
 10
585.3515151515152
 20
4.528029733279998
 10
585.6525252525253
 20
4.433875547779803
 10
585.9535353535354
 20
4.339888264846662
 10
586.2545454545455
 20
4.245998399808622
 10
586.5555555555555
 20
4.152134781440286
 10
586.8565656565656
 20
4.058226543580786
 10
587.1575757575757
 20
3.964210874228841
 10
587.4585858585858
 20
3.87003363803998
 10
587.7595959595959
 20
3.7756411294500474
 10
588.060606060606
 20
3.680979248483993
 10
588.3616161616161
 20
3.585983842479237
 10
588.6626262626262
 20
3.4905801287065032
 10
588.9636363636363
 20
3.3946928144368824
 10
589.2646464646465
 20
3.2982483197083132
 10
589.5656565656566
 20
3.2012148707831574
 10
589.8666666666667
 20
3.1036038860922943
 10
590.1676767676768
 20
3.0054287741148147
 10
590.4686868686869
 20
2.9067045052657776
 10
590.769696969697
 20
2.8074824729825756
 10
591.070707070707
 20
2.707850772838235
 10
591.3717171717171
 20
2.6078991181654287
 10
591.6727272727272
 20
2.507716924674387
 10
591.9737373737373
 20
2.407386931215536
 10
592.2747474747474
 20
2.306985292046725
 10
592.5757575757575
 20
2.206587882257925
 10
592.8767676767676
 20
2.1062704109096497
 10
593.1777777777777
 20
2.006104963781851
 10
593.4787878787879
 20
1.9061601087138007
 10
593.779797979798
 20
1.8065042685891544
 10
594.0808080808081
 20
1.7072034821445108
 10
594.3818181818182
 20
1.6082727091597757
 10
594.6828282828283
 20
1.5096778341039978
 10
594.9838383838384
 20
1.4113827582296241
 10
595.2848484848485
 20
1.313351577821216
 10
595.5858585858585
 20
1.2155525017666855
 10
595.8868686868686
 20
1.1179576543577336
 10
596.1878787878787
 20
1.0205393154484101
 10
596.4888888888888
 20
0.9232697110109197
 10
596.7898989898989
 20
0.826119952143508
 10
597.090909090909
 20
0.7290601000964756
 10
597.3919191919191
 20
0.6320601752582053
 10
597.6929292929292
 20
0.5350902112258926
 10
597.9939393939394
 20
0.43812050874556363
 10
598.2949494949495
 20
0.3411216168085142
 10
598.5959595959596
 20
0.24406409382761587
 10
598.8969696969697
 20
0.14691849821577713
 10
599.1979797979798
 20
0.04965538838590626
 10
599.4989898989899
 20
-0.04775467724908827
 10
599.8
 20
-0.14534114027629802
 10
599.8
 20
0.22908678398706617
 10
599.4989898989899
 20
0.2701095924170551
 10
599.1979797979798
 20
0.3111346521737704
 10
598.8969696969697
 20
0.3521335127267997
 10
598.5959595959596
 20
0.393077723545731
 10
598.2949494949495
 20
0.43393883410015227
 10
597.9939393939394
 20
0.47468839385965106
 10
597.6929292929292
 20
0.515297952293831
 10
597.3919191919191
 20
0.5557390297336564
 10
597.090909090909
 20
0.5959829041900873
 10
596.7898989898989
 20
0.6360007335354922
 10
596.4888888888888
 20
0.6757636747795529
 10
596.1878787878787
 20
0.7152430125492956
 10
595.8868686868686
 20
0.7544110807661881
 10
595.5858585858585
 20
0.7932407286420353
 10
595.2848484848485
 20
0.8317048089553535
 10
594.9838383838384
 20
0.8697756987119251
 10
594.6828282828283
 20
0.9074218945814565
 10
594.3818181818182
 20
0.9446100006186461
 10
594.0808080808081
 20
0.9813066081223132
 10
593.779797979798
 20
1.017484383128957
 10
593.4787878787879
 20
1.053165270886443
 10
593.1777777777777
 20
1.0883951435879944
 10
592.8767676767676
 20
1.1232200318330954
 10
592.5757575757575
 20
1.1576865318980674
 10
592.2747474747474
 20
1.191845800627136
 10
591.9737373737373
 20
1.2257511976445137
 10
591.6727272727272
 20
1.2594560968578328
 10
591.3717171717171
 20
1.293014198687332
 10
591.070707070707
 20
1.326481806965541
 10
590.769696969697
 20
1.359916471234079
 10
590.4686868686869
 20
1.3933757488127396
 10
590.1676767676768
 20
1.4269152226517792
 10
589.8666666666667
 20
1.4605749983694096
 10
589.5656565656566
 20
1.4943878822814636
 10
589.2646464646465
 20
1.5283866377551873
 10
588.9636363636363
 20
1.5625961391702472
 10
588.6626262626262
 20
1.5969807052125788
 10
588.3616161616161
 20
1.6314766067192967
 10
588.060606060606
 20
1.6660199615935927
 10
587.7595959595959
 20
1.7005482216493095
 10
587.4585858585858
 20
1.7350088792537632
 10
587.1575757575757
 20
1.7693539992453977
 10
586.8565656565656
 20
1.8035356696256475
 10
586.5555555555555
 20
1.8375046505455106
 10
586.2545454545455
 20
1.8712018465697118
 10
585.9535353535354
 20
1.9045637284945909
 10
585.6525252525253
 20
1.9375267458471939
 10
585.3515151515152
 20
1.9700328602899388
 10
585.0505050505051
 20
2.0020646094555214
 10
584.7494949494949
 20
2.033622653987988
 10
584.4484848484848
 20
2.064707738670321
 10
584.1474747474747
 20
2.095324611569279
 10
583.8464646464646
 20
2.1255073337985264
 10
583.5454545454545
 20
2.1553029983170133
 10
583.2444444444444
 20
2.1847587573096634
 10
582.9434343434343
 20
2.21392067758046
 10
582.6424242424242
 20
2.242826935788126
 10
582.3414141414141
 20
2.271512223013128
 10
582.040404040404
 20
2.3000112149544645
 10
581.739393939394
 20
2.328359540502198
 10
581.4383838383839
 20
2.3565996789914823
 10
581.1373737373738
 20
2.384777105756829
 10
580.8363636363637
 20
2.4129373087418906
 10
580.5353535353535
 20
2.441122531505952
 10
580.2343434343434
 20
2.4693520621046545
 10
579.9333333333333
 20
2.4976352867949174
 10
579.6323232323232
 20
2.525981552844389
 10
579.3313131313131
 20
2.5543958168677956
 10
579.030303030303
 20
2.5828525255375796
 10
578.7292929292929
 20
2.611313174658967
 10
578.4282828282828
 20
2.639739212948824
 10
578.1272727272727
 20
2.6680930653740527
 10
577.8262626262626
 20
2.6963438275783167
 10
577.5252525252525
 20
2.7244633845286867
 10
577.2242424242424
 20
2.7524236305818994
 10
576.9232323232324
 20
2.780195840663516
 10
576.6222222222223
 20
2.807747113853261
 10
576.321212121212
 20
2.8350428241417864
 10
576.020202020202
 20
2.8620483400719556
 10
575.7191919191919
 20
2.888730666848879
 10
575.4181818181818
 20
2.9150677325207273
 10
575.1171717171717
 20
2.9410419366826632
 10
574.8161616161616
 20
2.9666356923756743
 10
574.5151515151515
 20
2.9918355622955937
 10
574.2141414141414
 20
3.0166555926633913
 10
573.9131313131313
 20
3.0411210033654066
 10
573.6121212121212
 20
3.065257046637488
 10
573.3111111111111
 20
3.0890883552053263
 10
573.010101010101
 20
3.112635490690839
 10
572.709090909091
 20
3.135917371267364
 10
572.4080808080809
 20
3.1589529105345555
 10
572.1070707070706
 20
3.1817611069290708
 10
571.8060606060606
 20
3.204361510934817
 10
571.5050505050505
 20
3.2267738939053388
 10
571.2040404040404
 20
3.2490180277784284
 10
570.9030303030303
 20
3.2711139822272592
 10
570.6020202020202
 20
3.2930837411909164
 10
570.3010101010101
 20
3.314950046140661
 10
570.0
 20
3.3367356404280866
 10
570.0
 20
3.136215835131944
 10
569.5959595959596
 20
3.165354623179589
 10
569.1919191919192
 20
3.1944153758632807
 10
568.7878787878788
 20
3.2234013240140693
 10
568.3838383838383
 20
3.2522999045421237
 10
567.9797979797979
 20
3.281098512365619
 10
567.5757575757576
 20
3.30978454240272
 10
567.1717171717172
 20
3.338345389571617
 10
566.7676767676768
 20
3.3667684487904754
 10
566.3636363636364
 20
3.395041114977471
 10
565.959595959596
 20
3.423150783050777
 10
565.5555555555555
 20
3.4510848479285663
 10
565.1515151515151
 20
3.4788307045290128
 10
564.7474747474747
 20
3.5063757477702926
 10
564.3434343434343
 20
3.533707372570577
 10
563.939393939394
 20
3.560812974006099
 10
563.5353535353536
 20
3.5876807062154867
 10
563.1313131313132
 20
3.614301238714818
 10
562.7272727272727
 20
3.640665761361952
 10
562.3232323232323
 20
3.666765464014753
 10
561.9191919191919
 20
3.6925915365310797
 10
561.5151515151515
 20
3.718135168768795
 10
561.1111111111111
 20
3.743387550585757
 10
560.7070707070707
 20
3.7683398718398293
 10
560.3030303030303
 20
3.792983322388871
 10
559.89898989899
 20
3.8173090920907367
 10
559.4949494949495
 20
3.8413083708033047
 10
559.0909090909091
 20
3.864972348384423
 10
558.6868686868687
 20
3.8882922146919547
 10
558.2828282828283
 20
3.911259254942988
 10
557.8787878787879
 20
3.933873032903268
 10
557.4747474747475
 20
3.9561476812498166
 10
557.070707070707
 20
3.9780988135127364
 10
556.6666666666666
 20
3.9997420432221276
 10
556.2626262626262
 20
4.021092983908091
 10
555.8585858585859
 20
4.042167249100727
 10
555.4545454545455
 20
4.062980452330146
 10
555.0505050505051
 20
4.083548207126445
 10
554.6464646464647
 20
4.103886127019727
 10
554.2424242424242
 20
4.124009825540092
 10
553.8383838383838
 20
4.143934916217645
 10
553.4343434343434
 20
4.163677012582484
 10
553.030303030303
 20
4.183251728164713
 10
552.6262626262626
 20
4.202674676494436
 10
552.2222222222222
 20
4.221959010518894
 10
551.8181818181819
 20
4.241098744941614
 10
551.4141414141415
 20
4.260078929007815
 10
551.010101010101
 20
4.278884560668506
 10
550.6060606060606
 20
4.297500637874707
 10
550.2020202020202
 20
4.3159121585774365
 10
549.7979797979798
 20
4.334104120727709
 10
549.3939393939394
 20
4.352061522276544
 10
548.989898989899
 20
4.369769361174961
 10
548.5858585858585
 20
4.387212635373973
 10
548.1818181818181
 20
4.4043763428246
 10
547.7777777777778
 20
4.421245481477855
 10
547.3737373737374
 20
4.437805049284764
 10
546.969696969697
 20
4.454040044196342
 10
546.5656565656566
 20
4.469935585911667
 10
546.1616161616162
 20
4.48548772441905
 10
545.7575757575758
 20
4.500711950134579
 10
545.3535353535353
 20
4.515625756241895
 10
544.9494949494949
 20
4.530246635924638
 10
544.5454545454545
 20
4.544592082366452
 10
544.1414141414141
 20
4.5586795887509775
 10
543.7373737373738
 20
4.572526648261852
 10
543.3333333333334
 20
4.586150754082725
 10
542.929292929293
 20
4.599569399397234
 10
542.5252525252525
 20
4.612800077389022
 10
542.1212121212121
 20
4.625860281241726
 10
541.7171717171717
 20
4.638767504138993
 10
541.3131313131313
 20
4.651539239264462
 10
540.9090909090909
 20
4.664192979801775
 10
540.5050505050505
 20
4.676746218138868
 10
540.10101010101
 20
4.68921088465582
 10
539.6969696969697
 20
4.701580045776151
 10
539.2929292929293
 20
4.713842772538197
 10
538.8888888888889
 20
4.7259881359802804
 10
538.4848484848485
 20
4.738005207140732
 10
538.0808080808081
 20
4.749883057057878
 10
537.6767676767677
 20
4.761610756770049
 10
537.2727272727273
 20
4.773177377315572
 10
536.8686868686868
 20
4.784571989732775
 10
536.4646464646464
 20
4.795783665059986
 10
536.060606060606
 20
4.8068014743355345
 10
535.6565656565657
 20
4.817614488597743
 10
535.2525252525253
 20
4.828211778884951
 10
534.8484848484849
 20
4.838582416235478
 10
534.4444444444445
 20
4.848715865600394
 10
534.040404040404
 20
4.858608733967467
 10
533.6363636363636
 20
4.868263843803
 10
533.2323232323232
 20
4.8776842250520325
 10
532.8282828282828
 20
4.8868729076596
 10
532.4242424242424
 20
4.895832921570742
 10
532.020202020202
 20
4.904567296730491
 10
531.6161616161617
 20
4.913079063083885
 10
531.2121212121212
 20
4.9213712505759615
 10
530.8080808080808
 20
4.9294468891517615
 10
530.4040404040404
 20
4.937309008756316
 10
530.0
 20
4.944960639334662
  0
LWPOLYLINE
  5
95
330
17
100
AcDbEntity
  8
0
100
AcDbPolyline
 90
200
 70
1
 10
540.0
 20
15.333247315022582
 10
540.3160512471576
 20
15.240158963057524
 10
540.6321024943153
 20
15.146703858085882
 10
540.9481537414729
 20
15.052949956381317
 10
541.2642049886305
 20
14.95896543400562
 10
541.5802562357882
 20
14.864818414766194
 10
541.8963074829458
 20
14.770575610705423
 10
542.2123587301033
 20
14.676302194585224
 10
542.528409977261
 20
14.58206326135029
 10
542.8444612244186
 20
14.48792396744557
 10
543.1605124715762
 20
14.393950194246289
 10
543.4765637187339
 20
14.300208295613002
 10
543.7926149658915
 20
14.20676463349906
 10
544.1086662130491
 20
14.113684624900992
 10
544.4247174602068
 20
14.021027410481356
 10
544.7407687073644
 20
13.928849572636464
 10
545.056819954522
 20
13.83720768625022
 10
545.3728712016797
 20
13.746139475634568
 10
545.6889224488373
 20
13.655603559838877
 10
546.0049736959949
 20
13.56553781083897
 10
546.3210249431526
 20
13.47588010283241
 10
546.6370761903102
 20
13.386569673992689
 10
546.9531274374677
 20
13.297549425402774
 10
547.2691786846254
 20
13.208762866665298
 10
547.585229931783
 20
13.12015349301492
 10
547.9012811789406
 20
13.031663733464612
 10
548.2173324260983
 20
12.943234234906644
 10
548.5333836732559
 20
12.854805474732746
 10
548.8494349204135
 20
12.766317932794015
 10
549.1654861675712
 20
12.67771214590964
 10
549.4815374147288
 20
12.588928708090554
 10
549.7975886618864
 20
12.499908215851741
 10
550.1136399090441
 20
12.41059102600746
 10
550.4296911562017
 20
12.32091514394049
 10
550.7457424033593
 20
12.230817241896286
 10
551.061793650517
 20
12.140233976873393
 10
551.3778448976745
 20
12.04911514544395
 10
551.6938961448321
 20
11.957471408342172
 10
552.0099473919898
 20
11.865331036827385
 10
552.3259986391474
 20
11.772722307436064
 10
552.642049886305
 20
11.679674300423642
 10
552.9581011334627
 20
11.586217920750839
 10
553.2741523806203
 20
11.492384325230223
 10
553.5902036277779
 20
11.398204655356684
 10
553.9062548749356
 20
11.30370954521116
 10
554.2223061220932
 20
11.208929016574768
 10
554.5383573692508
 20
11.113893054701316
 10
554.8544086164085
 20
11.018631651455111
 10
555.1704598635661
 20
10.923174880103048
 10
555.4865111107237
 20
10.82755286867683
 10
555.8025623578814
 20
10.731795746227418
 10
556.118613605039
 20
10.635933530459042
 10
556.4346648521965
 20
10.539995563211267
 10
556.7507160993542
 20
10.444010932682437
 10
557.0667673465118
 20
10.348008726234774
 10
557.3828185936694
 20
10.252016193108593
 10
557.6988698408271
 20
10.156054493638363
 10
558.0149210879847
 20
10.060143529056111
 10
558.3309723351423
 20
9.964303202842386
 10
558.6470235823
 20
9.868553679153372
 10
558.9630748294576
 20
9.772915622393285
 10
559.2791260766152
 20
9.67740975360979
 10
559.5951773237729
 20
9.58205676959557
 10
559.9112285709305
 20
9.486876604083415
 10
560.227279818088
 20
9.391888292624401
 10
560.5433310652458
 20
9.297110819264903
 10
560.8593823124033
 20
9.202563373938945
 10
561.1754335595609
 20
9.108268074775236
 10
561.4914848067186
 20
9.014249218500563
 10
561.8075360538762
 20
8.920531153688541
 10
562.1235873010338
 20
8.827136537082055
 10
562.4396385481915
 20
8.734074705478736
 10
562.7556897953491
 20
8.64134869056932
 10
563.0717410425067
 20
8.548961486373848
 10
563.3877922896644
 20
8.456903794389223
 10
563.703843536822
 20
8.365108399822818
 10
564.0198947839796
 20
8.273491046769974
 10
564.3359460311373
 20
8.18196747952491
 10
564.6519972782949
 20
8.090455274776012
 10
564.9680485254524
 20
7.9988770655884665
 10
565.2840997726101
 20
7.907156349789951
 10
565.6001510197677
 20
7.815216625296599
 10
565.9162022669253
 20
7.722981395322395
 10
566.232253514083
 20
7.630374171290712
 10
566.5483047612406
 20
7.537318465330921
 10
566.8643560083982
 20
7.4437371938629155
 10
567.1804072555559
 20
7.349543250215047
 10
567.4964585027135
 20
7.254641201917456
 10
567.8125097498711
 20
7.158935363916628
 10
568.1285609970288
 20
7.062337288353624
 10
568.4446122441864
 20
6.964806007577421
 10
568.760663491344
 20
6.86631969216004
 10
569.0767147385017
 20
6.766856608393075
 10
569.3927659856593
 20
6.666430151724582
 10
569.7088172328168
 20
6.565152339366614
 10
570.0248684799745
 20
6.463152366612185
 10
570.3409197271321
 20
6.360559152168131
 10
570.6569709742897
 20
6.2574898172212965
 10
570.9730222214474
 20
6.154045523876065
 10
571.289073468605
 20
6.050326301447119
 10
571.289073468605
 20
6.050326301447126
 10
570.9730222214474
 20
6.073467625547574
 10
570.6569709742897
 20
6.096481467069079
 10
570.3409197271321
 20
6.119393921851123
 10
570.0248684799745
 20
6.14223081038984
 10
569.7088172328168
 20
6.165008214772325
 10
569.3927659856593
 20
6.187730098412501
 10
569.0767147385017
 20
6.2103996661810354
 10
568.760663491344
 20
6.233019704556087
 10
568.4446122441864
 20
6.255586850566702
 10
568.1285609970288
 20
6.278093063491075
 10
567.8125097498711
 20
6.30053018547604
 10
567.4964585027135
 20
6.322890287080982
 10
567.1804072555559
 20
6.345167167864627
 10
566.8643560083982
 20
6.36735541862203
 10
566.5483047612406
 20
6.389449634243237
 10
566.232253514083
 20
6.411444295583776
 10
565.9162022669253
 20
6.4333333962868755
 10
565.6001510197677
 20
6.455110799902148
 10
565.2840997726101
 20
6.476770370150803
 10
564.9680485254524
 20
6.498306034983743
 10
564.6519972782949
 20
6.519711882404997
 10
564.3359460311373
 20
6.540982024933592
 10
564.0198947839796
 20
6.562110586807766
 10
563.703843536822
 20
6.583092357023576
 10
563.3877922896644
 20
6.6039231334609045
 10
563.0717410425067
 20
6.624598798321261
 10
562.7556897953491
 20
6.645115231192104
 10
562.4396385481915
 20
6.665468256669485
 10
562.1235873010338
 20
6.685653647066052
 10
561.8075360538762
 20
6.705667172622452
 10
561.4914848067186
 20
6.725504623089647
 10
561.1754335595609
 20
6.745161992773518
 10
560.8593823124033
 20
6.764635398099626
 10
560.5433310652458
 20
6.783920957128793
 10
560.227279818088
 20
6.803014651540901
 10
559.9112285709305
 20
6.8219116542068186
 10
559.5951773237729
 20
6.840606840972318
 10
559.2791260766152
 20
6.859095087297609
 10
558.9630748294576
 20
6.877372287801709
 10
558.6470235823
 20
6.895437925641902
 10
558.3309723351423
 20
6.913292273390577
 10
558.0149210879847
 20
6.93093561722724
 10
557.6988698408271
 20
6.948370659842499
 10
557.3828185936694
 20
6.965605281904766
 10
557.0667673465118
 20
6.982648032748112
 10
556.7507160993542
 20
6.999507447983824
 10
556.4346648521965
 20
7.016191489943309
 10
556.118613605039
 20
7.032707352364019
 10
555.8025623578814
 20
7.049062175142179
 10
555.4865111107237
 20
7.065263096005413
 10
555.1704598635661
 20
7.081317215223077
 10
554.8544086164085
 20
7.097231601430763
 10
554.5383573692508
 20
7.113013322270807
 10
554.2223061220932
 20
7.128669570263029
 10
553.9062548749356
 20
7.144208644530214
 10
553.5902036277779
 20
7.159639422440426
 10
553.2741523806203
 20
7.174970786398984
 10
552.9581011334627
 20
7.190210391412453
 10
552.642049886305
 20
7.205359789748902
 10
552.3259986391474
 20
7.22041864058322
 10
552.0099473919898
 20
7.235386600587119
 10
551.6938961448321
 20
7.250261465479163
 10
551.3778448976745
 20
7.265035696161321
 10
551.061793650517
 20
7.279700803573414
 10
550.7457424033593
 20
7.29424830576302
 10
550.4296911562017
 20
7.308670292097703
 10
550.1136399090441
 20
7.3229598326760375
 10
549.7975886618864
 20
7.337110094158124
 10
549.4815374147288
 20
7.351114244920279
 10
549.1654861675712
 20
7.364965497795479
 10
548.8494349204135
 20
7.37865711303185
 10
548.5333836732559
 20
7.392182353186208
 10
548.2173324260983
 20
7.405534391561295
 10
547.9012811789406
 20
7.41870530735052
 10
547.585229931783
 20
7.431686446065902
 10
547.2691786846254
 20
7.444469139679314
 10
546.9531274374677
 20
7.45704584900094
 10
546.6370761903102
 20
7.469416712876864
 10
546.3210249431526
 20
7.481585067528593
 10
546.0049736959949
 20
7.493554259712032
 10
545.6889224488373
 20
7.505328634638052
 10
545.3728712016797
 20
7.516916542143802
 10
545.056819954522
 20
7.528327335931883
 10
544.7407687073644
 20
7.539570368559921
 10
544.4247174602068
 20
7.550654647657876
 10
544.1086662130491
 20
7.561588353743398
 10
543.7926149658915
 20
7.572379545923921
 10
543.4765637187339
 20
7.583036282811586
 10
543.1605124715762
 20
7.593566597172283
 10
542.8444612244186
 20
7.603978483790675
 10
542.528409977261
 20
7.6142799344158485
 10
542.2123587301033
 20
7.6244789846628285
 10
541.8963074829458
 20
7.634584527309361
 10
541.5802562357882
 20
7.644606235609996
 10
541.2642049886305
 20
7.654553811305778
 10
540.9481537414729
 20
7.664436407187779
 10
540.6321024943153
 20
7.6742579247175735
 10
540.3160512471576
 20
7.6840193467623585
 10
540.0
 20
7.693721624866619
  0
CIRCLE
  5
96
330
17
100
AcDbEntity
  8
0
100
AcDbCircle
 10
500.15426988
 20
17.06086226792435
 30
0.0
 40
4.0
  0
LWPOLYLINE
  5
97
330
17
100
AcDbEntity
  8
0
100
AcDbPolyline
 90
270
 70
1
 10
386.52016725999994
 20
47.925797360497164
 10
386.72218746202014
 20
47.89495118744177
 10
386.92420766404035
 20
47.8640652713348
 10
387.12622786606056
 20
47.833138356085165
 10
387.32824806808077
 20
47.80216918630476
 10
387.5302682701009
 20
47.77115650660553
 10
387.7322884721211
 20
47.74009906159938
 10
387.93430867414133
 20
47.70899559292789
 10
388.13632887616154
 20
47.67784481739577
 10
388.33834907818175
 20
47.64664543943777
 10
388.54036928020196
 20
47.615396163398174
 10
388.74238948222217
 20
47.58409569362134
 10
388.9444096842424
 20
47.55274273445161
 10
389.1464298862626
 20
47.52133599053579
 10
389.3484500882828
 20
47.489874168498545
 10
389.55047029030294
 20
47.458355975759254
 10
389.75249049232315
 20
47.426780119739476
 10
389.95451069434336
 20
47.395145307860695
 10
390.15653089636356
 20
47.36345024754448
 10
390.35855109838377
 20
47.3316936477089
 10
390.560571300404
 20
47.299874224902034
 10
390.7625915024242
 20
47.26799069809737
 10
390.9646117044444
 20
47.23604178626946
 10
391.1666319064646
 20
47.20402620839283
 10
391.3686521084848
 20
47.17194268344203
 10
391.57067231050496
 20
47.139790918132
 10
391.77269251252517
 20
47.10757453706416
 10
391.9747127145454
 20
47.075298136111876
 10
392.1767329165656
 20
47.04296631114857
 10
392.3787531185858
 20
47.010583658047594
 10
392.580773320606
 20
46.978154772676426
 10
392.7827935226262
 20
46.945684236728546
 10
392.9848137246464
 20
46.91317658732671
 10
393.1868339266666
 20
46.88063635285533
 10
393.38885412868683
 20
46.84806806169883
 10
393.590874330707
 20
46.8154762422416
 10
393.7928945327272
 20
46.78286542288271
 10
393.9949147347474
 20
46.750240139157846
 10
394.1969349367676
 20
46.717604945206595
 10
394.3989551387878
 20
46.6849643981617
 10
394.600975340808
 20
46.65232305515597
 10
394.8029955428282
 20
46.619685473322164
 10
395.00501574484844
 20
46.58705620948123
 10
395.20703594686864
 20
46.55443974949485
 10
395.40905614888885
 20
46.521840418450026
 10
395.611076350909
 20
46.48926251929427
 10
395.8130965529292
 20
46.45671035497505
 10
396.0151167549494
 20
46.42418822843991
 10
396.2171369569696
 20
46.39170044419412
 10
396.41915715898983
 20
46.35925154176117
 10
396.62117736101004
 20
46.32684654455082
 10
396.82319756303025
 20
46.29449053560059
 10
397.02521776505046
 20
46.26218859794793
 10
397.22723796707066
 20
46.22994581463035
 10
397.4292581690909
 20
46.19776724099677
 10
397.631278371111
 20
46.16565458888681
 10
397.83329857313123
 20
46.133603080205
 10
398.03531877515144
 20
46.10160719171399
 10
398.23733897717165
 20
46.069661400176415
 10
398.43935917919185
 20
46.037760182354894
 10
398.64137938121206
 20
46.00589801089066
 10
398.84339958323227
 20
45.97406895656692
 10
399.0454197852525
 20
45.94226635701288
 10
399.2474399872727
 20
45.91048347187111
 10
399.4494601892929
 20
45.878713560784135
 10
399.65148039131304
 20
45.846949883394544
 10
399.85350059333325
 20
45.815185700072576
 10
400.05552079535346
 20
45.78341432193172
 10
400.25754099737367
 20
45.75162914310328
 10
400.4595611993939
 20
45.719823565395714
 10
400.6615814014141
 20
45.68799099061746
 10
400.8636016034343
 20
45.65612482057701
 10
401.0656218054545
 20
45.62421845887541
 10
401.2676420074747
 20
45.5922653901321
 10
401.4696622094949
 20
45.56025921128133
 10
401.67168241151506
 20
45.528193527519356
 10
401.8737026135353
 20
45.49606194404241
 10
402.0757228155555
 20
45.46385806604671
 10
402.2777430175757
 20
45.43157547603652
 10
402.4797632195959
 20
45.39920711981661
 10
402.6817834216161
 20
45.36674523532971
 10
402.8838036236363
 20
45.33418202354402
 10
403.0858238256565
 20
45.301509685427675
 10
403.2878440276767
 20
45.26872042194886
 10
403.4898642296969
 20
45.23580662911327
 10
403.6918844317171
 20
45.20276406953515
 10
403.8939046337373
 20
45.169591347739214
 10
404.0959248357575
 20
45.136287157402826
 10
404.2979450377777
 20
45.102850192203405
 10
404.4999652397979
 20
45.06927914581833
 10
404.7019854418181
 20
45.0355730234795
 10
404.90400564383833
 20
45.001734245391106
 10
405.10602584585854
 20
44.967767340563285
 10
405.30804604787875
 20
44.93367686914514
 10
405.51006624989895
 20
44.899467391285796
 10
405.7120864519191
 20
44.86514346713433
 10
405.9141066539393
 20
44.83070954734941
 10
406.1161268559595
 20
44.79616926792826
 10
406.31814705797973
 20
44.76152589758758
 10
406.52016725999994
 20
44.72678270326511
 10
406.52016725999994
 20
47.770634302743076
 10
406.72218746202014
 20
47.7360427135645
 10
406.92420766404035
 20
47.70135035369092
 10
407.12622786606056
 20
47.66656042350831
 10
407.32824806808077
 20
47.63167612340265
 10
407.5302682701009
 20
47.59670065631748
 10
407.7322884721211
 20
47.56163734568866
 10
407.93430867414133
 20
47.52648968488832
 10
408.13632887616154
 20
47.49126118010284
 10
408.33834907818175
 20
47.45595533751863
 10
408.54036928020196
 20
47.42057566332204
 10
408.74238948222217
 20
47.38512566353514
 10
408.9444096842424
 20
47.34960883873977
 10
409.1464298862626
 20
47.31402868295553
 10
409.3484500882828
 20
47.278388689810754
 10
409.55047029030294
 20
47.24269235293379
 10
409.75249049232315
 20
47.20694316595298
 10
409.95451069434336
 20
47.17114461611365
 10
410.15653089636356
 20
47.13530003277512
 10
410.35855109838377
 20
47.09941258099952
 10
410.560571300404
 20
47.06348541818325
 10
410.7625915024242
 20
47.02752170172261
 10
410.9646117044444
 20
46.99152458901401
 10
411.1666319064646
 20
46.955497222903716
 10
411.3686521084848
 20
46.919442465188204
 10
411.57067231050496
 20
46.88336292351522
 10
411.77269251252517
 20
46.84726119637969
 10
411.9747127145454
 20
46.811139882276564
 10
412.1767329165656
 20
46.775001579700756
 10
412.3787531185858
 20
46.73884889237366
 10
412.580773320606
 20
46.702684505420685
 10
412.7827935226262
 20
46.66651116831078
 10
412.9848137246464
 20
46.63033163226795
 10
413.1868339266666
 20
46.59414864851624
 10
413.38885412868683
 20
46.55796496827965
 10
413.590874330707
 20
46.52178333298698
 10
413.7928945327272
 20
46.48560635800611
 10
413.9949147347474
 20
46.44943657118519
 10
414.1969349367676
 20
46.41327649860861
 10
414.3989551387878
 20
46.37712866636076
 10
414.600975340808
 20
46.34099560052604
 10
414.8029955428282
 20
46.30487986644198
 10
415.00501574484844
 20
46.268784455117355
 10
415.20703594686864
 20
46.23271261830258
 10
415.40905614888885
 20
46.19666761151047
 10
415.611076350909
 20
46.160652690253826
 10
415.8130965529292
 20
46.124671110045455
 10
416.0151167549494
 20
46.08872593557451
 10
416.2171369569696
 20
46.05281845959258
 10
416.41915715898983
 20
46.016949013171356
 10
416.62117736101004
 20
45.981117917838674
 10
416.82319756303025
 20
45.94532549512235
 10
417.02521776505046
 20
45.909572066550254
 10
417.22723796707066
 20
45.873857361754624
 10
417.4292581690909
 20
45.838176360313085
 10
417.631278371111
 20
45.80252175642258
 10
417.83329857313123
 20
45.766886229690385
 10
418.03531877515144
 20
45.73126245972378
 10
418.23733897717165
 20
45.695643126130044
 10
418.43935917919185
 20
45.660021011922495
 10
418.64137938121206
 20
45.62438961481433
 10
418.84339958323227
 20
45.588742734443294
 10
419.0454197852525
 20
45.55307417151845
 10
419.2474399872727
 20
45.517377726748926
 10
419.4494601892929
 20
45.48164720084381
 10
419.65148039131304
 20
45.44587637632394
 10
419.85350059333325
 20
45.41005892868687
 10
420.05552079535346
 20
45.374188494415066
 10
420.25754099737367
 20
45.33825870993416
 10
420.4595611993939
 20
45.30226321166988
 10
420.6615814014141
 20
45.2661956360479
 10
420.8636016034343
 20
45.23004954332112
 10
421.0656218054545
 20
45.19381811689708
 10
421.2676420074747
 20
45.15749442385528
 10
421.4696622094949
 20
45.12107153124192
 10
421.67168241151506
 20
45.08454250610307
 10
421.8737026135353
 20
45.04790041548485
 10
422.0757228155555
 20
45.01113871875027
 10
422.2777430175757
 20
44.974252485241514
 10
422.4797632195959
 20
44.93723719723617
 10
422.6817834216161
 20
44.90008833701213
 10
422.8838036236363
 20
44.86280138684721
 10
423.0858238256565
 20
44.82537182942875
 10
423.2878440276767
 20
44.78779771751888
 10
423.4898642296969
 20
44.75008576545141
 10
423.6918844317171
 20
44.712244510327665
 10
423.8939046337373
 20
44.674282489249066
 10
424.0959248357575
 20
44.636208239316986
 10
424.2979450377777
 20
44.59803029720756
 10
424.4999652397979
 20
44.55975686858649
 10
424.7019854418181
 20
44.52139523591863
 10
424.90400564383833
 20
44.48295252197909
 10
425.10602584585854
 20
44.44443584954299
 10
425.30804604787875
 20
44.405852341385476
 10
425.51006624989895
 20
44.36720912057596
 10
425.7120864519191
 20
44.328513391222614
 10
425.9141066539393
 20
44.28977254838871
 10
426.1161268559595
 20
44.250994014624446
 10
426.31814705797973
 20
44.212185212480016
 10
426.52016725999994
 20
44.17335356450564
 10
422.4797632195959
 20
37.817514904490835
 10
422.0757228155555
 20
37.89316408501731
 10
421.67168241151506
 20
37.96826230339222
 10
421.2676420074747
 20
38.042777038102834
 10
420.8636016034343
 20
38.116740747236086
 10
420.4595611993939
 20
38.190192166041385
 10
420.05552079535346
 20
38.2631783067946
 10
419.65148039131304
 20
38.335756801815414
 10
419.2474399872727
 20
38.40798586814328
 10
418.84339958323227
 20
38.47992093927619
 10
418.43935917919185
 20
38.55161454336303
 10
418.03531877515144
 20
38.62311901405361
 10
417.631278371111
 20
38.69448557395492
 10
417.22723796707066
 20
38.765764448264065
 10
416.82319756303025
 20
38.83700607811642
 10
416.41915715898983
 20
38.90826501582984
 10
416.0151167549494
 20
38.97959916778654
 10
415.611076350909
 20
39.05106442023442
 10
415.20703594686864
 20
39.122684213838525
 10
414.8029955428282
 20
39.194456621966914
 10
414.3989551387878
 20
39.26637821310021
 10
413.9949147347474
 20
39.3384331372243
 10
413.590874330707
 20
39.4105959802234
 10
413.1868339266666
 20
39.482841290563094
 10
412.7827935226262
 20
39.555146630845826
 10
412.3787531185858
 20
39.627491828509584
 10
411.9747127145454
 20
39.6998566861128
 10
411.57067231050496
 20
39.772219929651214
 10
411.1666319064646
 20
39.84455951413552
 10
410.7625915024242
 20
39.9168534273128
 10
410.35855109838377
 20
39.98908025859565
 10
409.95451069434336
 20
40.06121899838848
 10
409.550470290303
 20
40.13324838495163
 10
409.1464298862626
 20
40.20514438756975
 10
408.74238948222217
 20
40.27688129973163
 10
408.33834907818175
 20
40.348433190341005
 10
407.93430867414133
 20
40.41977229392942
 10
407.5302682701009
 20
40.490869864179885
 10
407.12622786606056
 20
40.56169711062008
 10
406.72218746202014
 20
40.6322249787737
 10
406.31814705797973
 20
40.70242429341714
 10
405.9141066539393
 20
40.772266123961764
 10
405.51006624989895
 20
40.841723036598076
 10
405.10602584585854
 20
40.91076816206754
 10
404.7019854418181
 20
40.979373119073074
 10
404.2979450377777
 20
41.04750228151257
 10
403.8939046337373
 20
41.1151178576952
 10
403.4898642296969
 20
41.182190941518535
 10
403.0858238256565
 20
41.24872503308208
 10
402.6817834216161
 20
41.314731035044325
 10
402.2777430175757
 20
41.38023245367115
 10
401.8737026135353
 20
41.44528763863621
 10
401.4696622094949
 20
41.509960892568735
 10
401.0656218054545
 20
41.57431300422736
 10
400.6615814014141
 20
41.638397053492675
 10
400.25754099737367
 20
41.70226510068606
 10
399.85350059333325
 20
41.765969569181614
 10
399.4494601892929
 20
41.82956355749851
 10
399.0454197852525
 20
41.89310024005296
 10
398.64137938121206
 20
41.95663296763455
 10
398.23733897717165
 20
42.02021538693441
 10
397.83329857313123
 20
42.08390111764834
 10
397.4292581690909
 20
42.14774011790987
 10
397.02521776505046
 20
42.211776462660296
 10
396.62117736101004
 20
42.27605324602607
 10
396.2171369569696
 20
42.34058342522857
 10
395.8130965529292
 20
42.405331332750144
 10
395.40905614888885
 20
42.47025691738344
 10
395.00501574484844
 20
42.53532224339408
 10
394.600975340808
 20
42.60049281441297
  0
LWPOLYLINE
  5
98
330
17
100
AcDbEntity
  8
0
100
AcDbPolyline
 90
270
 70
1
 10
52.0
 20
-10.060411395927936
 10
52.2020202020202
 20
-10.062826605664885
 10
52.4040404040404
 20
-10.06515179554958
 10
52.60606060606061
 20
-10.067392896980758
 10
52.80808080808081
 20
-10.069555841357154
 10
53.01010101010101
 20
-10.07164652891978
 10
53.21212121212121
 20
-10.0736685093845
 10
53.41414141414141
 20
-10.075621381778982
 10
53.61616161616162
 20
-10.077504366635903
 10
53.81818181818182
 20
-10.07931668448795
 10
54.02020202020202
 20
-10.0810575558678
 10
54.22222222222222
 20
-10.082726197248308
 10
54.42424242424242
 20
-10.084321661579828
 10
54.62626262626263
 20
-10.085842786035661
 10
54.82828282828283
 20
-10.087288393025815
 10
55.03030303030303
 20
-10.088657304960291
 10
55.23232323232323
 20
-10.089948344249091
 10
55.43434343434343
 20
-10.091160335501149
 10
55.63636363636363
 20
-10.092292157297496
 10
55.83838383838384
 20
-10.093342744148682
 10
56.04040404040404
 20
-10.094311033155812
 10
56.24242424242424
 20
-10.095195961419986
 10
56.44444444444444
 20
-10.095996466042312
 10
56.64646464646464
 20
-10.096711481663768
 10
56.84848484848485
 20
-10.097339903413273
 10
57.05050505050505
 20
-10.09788059455973
 10
57.25252525252525
 20
-10.098332417464572
 10
57.45454545454545
 20
-10.098694234489239
 10
57.656565656565654
 20
-10.098964907995166
 10
57.858585858585855
 20
-10.099143337166375
 10
58.06060606060606
 20
-10.099228826388648
 10
58.26262626262626
 20
-10.099220931007219
 10
58.464646464646464
 20
-10.099119210104135
 10
58.666666666666664
 20
-10.098923222761455
 10
58.868686868686865
 20
-10.09863252806122
 10
59.07070707070707
 20
-10.098246687380506
 10
59.27272727272727
 20
-10.097765279949424
 10
59.474747474747474
 20
-10.097187893362573
 10
59.676767676767675
 20
-10.09651411526242
 10
59.878787878787875
 20
-10.095743533291436
 10
60.08080808080808
 20
-10.094875735092094
 10
60.282828282828284
 20
-10.093910318110032
 10
60.484848484848484
 20
-10.092846934803347
 10
60.686868686868685
 20
-10.091685256806834
 10
60.888888888888886
 20
-10.090424955775
 10
61.09090909090909
 20
-10.089065703362333
 10
61.292929292929294
 20
-10.087607171223336
 10
61.494949494949495
 20
-10.086048971281947
 10
61.696969696969695
 20
-10.084390471570908
 10
61.898989898989896
 20
-10.082630977882184
 10
62.101010101010104
 20
-10.080769796007726
 10
62.303030303030305
 20
-10.07880623173948
 10
62.505050505050505
 20
-10.076739591199612
 10
62.707070707070706
 20
-10.074569624772467
 10
62.90909090909091
 20
-10.072297404844214
 10
63.111111111111114
 20
-10.069924248592766
 10
63.313131313131315
 20
-10.067451473196048
 10
63.515151515151516
 20
-10.064880395831972
 10
63.717171717171716
 20
-10.062212335393903
 10
63.91919191919192
 20
-10.05944895503253
 10
64.12121212121212
 20
-10.056592676658974
 10
64.32323232323232
 20
-10.053646023420082
 10
64.52525252525253
 20
-10.050611518462702
 10
64.72727272727272
 20
-10.047491684933672
 10
64.92929292929293
 20
-10.044289044503548
 10
65.13131313131314
 20
-10.04100600768606
 10
65.33333333333333
 20
-10.037644798287022
 10
65.53535353535354
 20
-10.03420762223979
 10
65.73737373737373
 20
-10.03069668547775
 10
65.93939393939394
 20
-10.027114193934263
 10
66.14141414141415
 20
-10.023462355212626
 10
66.34343434343434
 20
-10.019743443922597
 10
66.54545454545455
 20
-10.015959822945396
 10
66.74747474747474
 20
-10.01211386118671
 10
66.94949494949495
 20
-10.00820792755223
 10
67.15151515151516
 20
-10.004244390947637
 10
67.35353535353535
 20
-10.000225613059248
 10
67.55555555555556
 20
-9.996153771222138
 10
67.75757575757575
 20
-9.992030847637619
 10
67.95959595959596
 20
-9.987858815128945
 10
68.16161616161617
 20
-9.983639646519357
 10
68.36363636363636
 20
-9.979375314632103
 10
68.56565656565657
 20
-9.975067718431374
 10
68.76767676767676
 20
-9.970717428501304
 10
68.96969696969697
 20
-9.966323865098994
 10
69.17171717171718
 20
-9.96188641046444
 10
69.37373737373737
 20
-9.957404446837645
 10
69.57575757575758
 20
-9.952877356458618
 10
69.77777777777777
 20
-9.948304530910093
 10
69.97979797979798
 20
-9.943685486440529
 10
70.18181818181819
 20
-9.93901982807303
 10
70.38383838383838
 20
-9.934307162734807
 10
70.58585858585859
 20
-9.929547097353066
 10
70.78787878787878
 20
-9.924739238855016
 10
70.98989898989899
 20
-9.919883192148163
 10
71.1919191919192
 20
-9.914978541645455
 10
71.39393939393939
 20
-9.910024859829266
 10
71.5959595959596
 20
-9.90502171903387
 10
71.79797979797979
 20
-9.899968691593532
 10
72.0
 20
-9.894865349842526
 10
72.0
 20
-12.895828340098586
 10
72.20202020202021
 20
-12.890693452153576
 10
72.4040404040404
 20
-12.885507708618492
 10
72.60606060606061
 20
-12.88027060243623
 10
72.8080808080808
 20
-12.87498162347545
 10
73.01010101010101
 20
-12.869640261604827
 10
73.21212121212122
 20
-12.86424600669301
 10
73.41414141414141
 20
-12.858798356064318
 10
73.61616161616162
 20
-12.853297016001902
 10
73.81818181818181
 20
-12.847741924969483
 10
74.02020202020202
 20
-12.842133033546961
 10
74.22222222222223
 20
-12.836470292314242
 10
74.42424242424242
 20
-12.830753651851225
 10
74.62626262626263
 20
-12.824983076026278
 10
74.82828282828282
 20
-12.819158813204734
 10
75.03030303030303
 20
-12.813281384978827
 10
75.23232323232324
 20
-12.807351323974093
 10
75.43434343434343
 20
-12.801369162816053
 10
75.63636363636364
 20
-12.795335434130237
 10
75.83838383838383
 20
-12.789250666953698
 10
76.04040404040404
 20
-12.783115329989712
 10
76.24242424242425
 20
-12.776929841847865
 10
76.44444444444444
 20
-12.770694619619483
 10
76.64646464646465
 20
-12.764410080395885
 10
76.84848484848484
 20
-12.75807664126841
 10
77.05050505050505
 20
-12.751694720390788
 10
77.25252525252526
 20
-12.745264750256268
 10
77.45454545454545
 20
-12.73878717365077
 10
77.65656565656566
 20
-12.732262433585268
 10
77.85858585858585
 20
-12.725690973070726
 10
78.06060606060606
 20
-12.719073235118106
 10
78.26262626262626
 20
-12.712409663336164
 10
78.46464646464646
 20
-12.705700707922198
 10
78.66666666666667
 20
-12.698946823159064
 10
78.86868686868686
 20
-12.692148463390648
 10
79.07070707070707
 20
-12.685306082960842
 10
79.27272727272727
 20
-12.678420136213528
 10
79.47474747474747
 20
-12.67149107056446
 10
79.67676767676768
 20
-12.664519270236596
 10
79.87878787878788
 20
-12.657505085647216
 10
80.08080808080808
 20
-12.650448866894095
 10
80.28282828282828
 20
-12.643350964074992
 10
80.48484848484848
 20
-12.63621172728767
 10
80.68686868686869
 20
-12.629031500907486
 10
80.88888888888889
 20
-12.621810585670742
 10
81.0909090909091
 20
-12.614549262214876
 10
81.29292929292929
 20
-12.60724781107034
 10
81.4949494949495
 20
-12.599906512767605
 10
81.6969696969697
 20
-12.592525647837128
 10
81.8989898989899
 20
-12.585105499068236
 10
82.1010101010101
 20
-12.577646363763424
 10
82.3030303030303
 20
-12.570148544964884
 10
82.5050505050505
 20
-12.562612345729
 10
82.70707070707071
 20
-12.555038069112163
 10
82.9090909090909
 20
-12.547426018170754
 10
83.11111111111111
 20
-12.539776492378756
 10
83.31313131313131
 20
-12.532089771709275
 10
83.51515151515152
 20
-12.524366129532101
 10
83.71717171717171
 20
-12.516605839211753
 10
83.91919191919192
 20
-12.508809174112754
 10
84.12121212121212
 20
-12.500976407599628
 10
84.32323232323232
 20
-12.493107826814215
 10
84.52525252525253
 20
-12.48520378268253
 10
84.72727272727272
 20
-12.47726464457627
 10
84.92929292929293
 20
-12.469290781868956
 10
85.13131313131314
 20
-12.461282563934132
 10
85.33333333333333
 20
-12.453240360145317
 10
85.53535353535354
 20
-12.445164460027533
 10
85.73737373737373
 20
-12.437054838018545
 10
85.93939393939394
 20
-12.428911390846508
 10
86.14141414141415
 20
-12.420734015239578
 10
86.34343434343434
 20
-12.412522607925906
 10
86.54545454545455
 20
-12.404277065621706
 10
86.74747474747474
 20
-12.395997211281136
 10
86.94949494949495
 20
-12.387682619508206
 10
87.15151515151516
 20
-12.379332812694612
 10
87.35353535353535
 20
-12.370947313232048
 10
87.55555555555556
 20
-12.362525643512205
 10
87.75757575757575
 20
-12.35406732594213
 10
87.95959595959596
 20
-12.34557189827517
 10
88.16161616161617
 20
-12.337038942429244
 10
88.36363636363636
 20
-12.328468048218792
 10
88.56565656565657
 20
-12.319858805458235
 10
88.76767676767676
 20
-12.311210803962005
 10
88.96969696969697
 20
-12.302523633574067
 10
89.17171717171718
 20
-12.293796894476989
 10
89.37373737373737
 20
-12.285030212344735
 10
89.57575757575758
 20
-12.276223216710468
 10
89.77777777777777
 20
-12.267375537107348
 10
89.97979797979798
 20
-12.258486803068537
 10
90.18181818181819
 20
-12.249556643732134
 10
90.38383838383838
 20
-12.240584621414026
 10
90.58585858585859
 20
-12.231570156904763
 10
90.78787878787878
 20
-12.222512652965541
 10
90.98989898989899
 20
-12.213411512357556
 10
91.1919191919192
 20
-12.204266137842
 10
91.39393939393939
 20
-12.19507593567667
 10
91.5959595959596
 20
-12.185840652594985
 10
91.79797979797979
 20
-12.176560656242776
 10
92.0
 20
-12.167236380279336
 10
83.91919191919192
 20
-5.503541332375713
 10
83.51515151515152
 20
-5.519195385161277
 10
83.11111111111111
 20
-5.5347033991724555
 10
82.7070707070707
 20
-5.550063145266686
 10
82.3030303030303
 20
-5.565272365370301
 10
81.8989898989899
 20
-5.5803286411310795
 10
81.4949494949495
 20
-5.595229499767903
 10
81.0909090909091
 20
-5.609972493873637
 10
80.68686868686868
 20
-5.624555296613511
 10
80.28282828282829
 20
-5.63897561686691
 10
79.87878787878788
 20
-5.653231071038541
 10
79.47474747474747
 20
-5.667318895100142
 10
79.07070707070707
 20
-5.68123622720436
 10
78.66666666666667
 20
-5.694980045271772
 10
78.26262626262627
 20
-5.708546757239942
 10
77.85858585858585
 20
-5.721932644372334
 10
77.45454545454545
 20
-5.735134006717264
 10
77.05050505050505
 20
-5.748147201961557
 10
76.64646464646465
 20
-5.760968598906207
 10
76.24242424242425
 20
-5.773594617462807
 10
75.83838383838383
 20
-5.786021812591947
 10
75.43434343434343
 20
-5.798246760151134
 10
75.03030303030303
 20
-5.810265770027558
 10
74.62626262626263
 20
-5.822074547536824
 10
74.22222222222223
 20
-5.833668726564003
 10
73.81818181818181
 20
-5.845045441643606
 10
73.41414141414141
 20
-5.856204759704959
 10
73.01010101010101
 20
-5.86714710463246
 10
72.60606060606061
 20
-5.877874225760704
 10
72.20202020202021
 20
-5.888390101962587
 10
71.79797979797979
 20
-5.898698920456594
 10
71.39393939393939
 20
-5.908804589957912
 10
70.98989898989899
 20
-5.918710614032996
 10
70.58585858585859
 20
-5.9284204610623945
 10
70.18181818181819
 20
-5.937937479839034
 10
69.77777777777777
 20
-5.947264867837469
 10
69.37373737373737
 20
-5.95640584264717
 10
68.96969696969697
 20
-5.965364450639687
 10
68.56565656565657
 20
-5.974145654930558
 10
68.16161616161617
 20
-5.982753996854387
 10
67.75757575757575
 20
-5.991183795466681
 10
67.35353535353535
 20
-5.999419454914564
 10
66.94949494949495
 20
-6.007444872869401
 10
66.54545454545455
 20
-6.015242240935839
 10
66.14141414141415
 20
-6.022792309348627
 10
65.73737373737373
 20
-6.030075833939849
 10
65.33333333333333
 20
-6.037074264025097
 10
64.92929292929293
 20
-6.04376954998822
 10
64.52525252525253
 20
-6.050143505596137
 10
64.12121212121212
 20
-6.056176371805521
 10
63.717171717171716
 20
-6.061847439612495
 10
63.313131313131315
 20
-6.067136726399828
 10
62.90909090909091
 20
-6.072030349270887
 10
62.505050505050505
 20
-6.076517428661626
 10
62.101010101010104
 20
-6.080588785410734
 10
61.696969696969695
 20
-6.084245935758599
 10
61.292929292929294
 20
-6.08749459176279
 10
60.888888888888886
 20
-6.090340071690892
 10
60.484848484848484
 20
-6.092785696602032
 10
60.08080808080808
 20
-6.094834171008016
 10
59.676767676767675
 20
-6.096488317829671
 10
59.27272727272727
 20
-6.09775141967444
 10
58.868686868686865
 20
-6.098626870547841
 10
58.464646464646464
 20
-6.099118114877334
 10
58.06060606060606
 20
-6.099228751265801
 10
57.656565656565654
 20
-6.098962412230554
 10
57.25252525252525
 20
-6.098324231679399
 10
56.84848484848485
 20
-6.09732300598026
 10
56.44444444444444
 20
-6.095968077923104
 10
56.04040404040404
 20
-6.094268594956255
  0
LWPOLYLINE
  5
99
330
17
100
AcDbEntity
  8
0
100
AcDbPolyline
 90
601
 70
1
 10
540.0
 20
11.554933649455261
 10
550.0
 20
14.520706691845556
 10
550.1683501683501
 20
14.473331553847052
 10
550.3367003367003
 20
14.425881789879027
 10
550.5050505050505
 20
14.37834851078307
 10
550.6734006734007
 20
14.330722622243707
 10
550.8417508417508
 20
14.282994785835946
 10
551.010101010101
 20
14.235155648892832
 10
551.1784511784512
 20
14.187195858747529
 10
551.3468013468014
 20
14.139106062733086
 10
551.5151515151515
 20
14.090876908182661
 10
551.6835016835017
 20
14.04249911424539
 10
551.8518518518518
 20
13.993968261218221
 10
552.020202020202
 20
13.945287800097727
 10
552.1885521885522
 20
13.896461899772818
 10
552.3569023569023
 20
13.847494729132494
 10
552.5252525252525
 20
13.79839045706563
 10
552.6936026936027
 20
13.749153252461234
 10
552.8619528619529
 20
13.699787284838076
 10
553.030303030303
 20
13.650296849900782
 10
553.1986531986532
 20
13.600686521362546
 10
553.3670033670033
 20
13.550960910012288
 10
553.5353535353536
 20
13.50112462663878
 10
553.7037037037037
 20
13.451182282030956
 10
553.8720538720538
 20
13.401138486977615
 10
554.040404040404
 20
13.350997852252071
 10
554.2087542087542
 20
13.300764958186184
 10
554.3771043771044
 20
13.250444291070046
 10
554.5454545454545
 20
13.200040319090569
 10
554.7138047138047
 20
13.149557510434526
 10
554.8821548821549
 20
13.099000333288814
 10
555.0505050505051
 20
13.048373255840222
 10
555.2188552188552
 20
12.997680746275648
 10
555.3872053872054
 20
12.946927279807152
 10
555.5555555555555
 20
12.896117363160423
 10
555.7239057239057
 20
12.84525551189364
 10
555.8922558922559
 20
12.794346241565417
 10
556.060606060606
 20
12.743394067734476
 10
556.2289562289562
 20
12.692403505959394
 10
556.3973063973064
 20
12.641379071798891
 10
556.5656565656566
 20
12.590325268547403
 10
556.7340067340067
 20
12.539246517063493
 10
556.9023569023569
 20
12.488147204240002
 10
557.070707070707
 20
12.437031716864169
 10
557.2390572390573
 20
12.385904441723085
 10
557.4074074074074
 20
12.334769765603983
 10
557.5757575757575
 20
12.283632075293987
 10
557.7441077441077
 20
12.232495682197879
 10
557.9124579124579
 20
12.181364094512828
 10
558.0808080808081
 20
12.13024033496565
 10
558.2491582491582
 20
12.079127419543138
 10
558.4175084175084
 20
12.028028364231941
 10
558.5858585858585
 20
11.976946185018857
 10
558.7542087542088
 20
11.925883897890534
 10
558.9225589225589
 20
11.87484452255057
 10
559.0909090909091
 20
11.8238311481182
 10
559.2592592592592
 20
11.772846925224473
 10
559.4276094276094
 20
11.721895006629056
 10
559.5959595959596
 20
11.670978545091636
 10
559.7643097643097
 20
11.620100693371988
 10
559.9326599326599
 20
11.569264604229751
 10
560.10101010101
 20
11.518473427778526
 10
560.2693602693603
 20
11.467730209156235
 10
560.4377104377104
 20
11.417037855903656
 10
560.6060606060606
 20
11.36639926624075
 10
560.7744107744107
 20
11.315817338387616
 10
560.942760942761
 20
11.265294970564211
 10
561.1111111111111
 20
11.214835060990639
 10
561.2794612794612
 20
11.164440509875668
 10
561.4478114478114
 20
11.114114478446883
 10
561.6161616161615
 20
11.063860646216146
 10
561.7845117845118
 20
11.013682753857509
 10
561.9528619528619
 20
10.96358454204515
 10
562.1212121212121
 20
10.913569751453117
 10
562.2895622895622
 20
10.86364212275559
 10
562.4579124579125
 20
10.813805396319369
 10
562.6262626262626
 20
10.764062617264898
 10
562.7946127946128
 20
10.714414655286012
 10
562.9629629629629
 20
10.664861955740456
 10
563.131313131313
 20
10.615404963985895
 10
563.2996632996633
 20
10.566044125379975
 10
563.4680134680134
 20
10.516779885280453
 10
563.6363636363636
 20
10.467612689044948
 10
563.8047138047137
 20
10.418541246598254
 10
563.973063973064
 20
10.36955547087889
 10
564.1414141414141
 20
10.320642494100717
 10
564.3097643097643
 20
10.271789447396987
 10
564.4781144781144
 20
10.22298346190107
 10
564.6464646464647
 20
10.174211668746215
 10
564.8148148148148
 20
10.125461199065798
 10
564.9831649831649
 20
10.07671928966654
 10
565.1515151515151
 20
10.027974039550685
 10
565.3198653198652
 20
9.979213968391138
 10
565.4882154882155
 20
9.930427598699591
 10
565.6565656565656
 20
9.881603452987868
 10
565.8249158249158
 20
9.83273005376766
 10
565.9932659932659
 20
9.783795923550791
 10
566.1616161616162
 20
9.734789591485363
 10
566.3299663299663
 20
9.685699673348207
 10
566.4983164983165
 20
9.6365148456635
 10
566.6666666666666
 20
9.587223786210467
 10
566.6666666666666
 20
10.629150738155902
 10
566.7003367003366
 20
10.619315653700843
 10
566.7340067340067
 20
10.609476516619155
 10
566.7676767676767
 20
10.599633233733954
 10
566.8013468013468
 20
10.589785711868204
 10
566.8350168350167
 20
10.579933857845026
 10
566.8686868686868
 20
10.570077578487387
 10
566.9023569023568
 20
10.5602167806184
 10
566.9360269360269
 20
10.550351371061035
 10
566.9696969696969
 20
10.540481256638412
 10
567.003367003367
 20
10.530606344173489
 10
567.037037037037
 20
10.520726540489393
 10
567.070707070707
 20
10.510841752409084
 10
567.104377104377
 20
10.50095188675568
 10
567.1380471380471
 20
10.491056850352155
 10
567.1717171717171
 20
10.481156550021614
 10
567.2053872053872
 20
10.471250892587037
 10
567.2390572390572
 20
10.461339784871532
 10
567.2727272727273
 20
10.45142313369807
 10
567.3063973063972
 20
10.441500845889765
 10
567.3400673400673
 20
10.431572828269589
 10
567.3737373737373
 20
10.421638987660653
 10
567.4074074074074
 20
10.411699230885931
 10
567.4410774410774
 20
10.401753464768534
 10
567.4747474747475
 20
10.391801596131433
 10
567.5084175084174
 20
10.381843531797742
 10
567.5420875420875
 20
10.371879178590433
 10
567.5757575757575
 20
10.361908443332613
 10
567.6094276094276
 20
10.351931232847262
 10
567.6430976430976
 20
10.341947453957484
 10
567.6767676767677
 20
10.331957013486258
 10
567.7104377104376
 20
10.32195981825669
 10
567.7441077441077
 20
10.31195577509176
 10
567.7777777777777
 20
10.301944790814572
 10
567.8114478114478
 20
10.291926772248104
 10
567.8451178451178
 20
10.281901626215461
 10
567.8787878787879
 20
10.271869259539624
 10
567.9124579124579
 20
10.261829579043699
 10
567.946127946128
 20
10.251782491550658
 10
567.9797979797979
 20
10.241727903883614
 10
568.013468013468
 20
10.231665722865545
 10
568.047138047138
 20
10.221595855319553
 10
568.0808080808081
 20
10.211518208068618
 10
568.1144781144781
 20
10.201432687935844
 10
568.1481481481482
 20
10.191339201744212
 10
568.1818181818181
 20
10.181237656316831
 10
568.2154882154882
 20
10.171127958476667
 10
568.2491582491582
 20
10.161010015046841
 10
568.2828282828283
 20
10.15088373285032
 10
568.3164983164983
 20
10.140749018710217
 10
568.3501683501684
 20
10.130605779449507
 10
568.3838383838383
 20
10.120453921891293
 10
568.4175084175084
 20
10.110293352858555
 10
568.4511784511784
 20
10.100123979174407
 10
568.4848484848485
 20
10.089945707661814
 10
568.5185185185185
 20
10.079758445143895
 10
568.5521885521886
 20
10.069562098443615
 10
568.5858585858585
 20
10.059356574384093
 10
568.6195286195286
 20
10.049141779788295
 10
568.6531986531986
 20
10.038917621479337
 10
568.6868686868687
 20
10.028684006280189
 10
568.7205387205387
 20
10.018440841013964
 10
568.7542087542088
 20
10.008188032503636
 10
568.7878787878788
 20
9.997925487572312
 10
568.8215488215488
 20
9.987653113042969
 10
568.8552188552188
 20
9.977370815738714
 10
568.8888888888889
 20
9.967078502482524
 10
568.9225589225589
 20
9.95677608009751
 10
568.956228956229
 20
9.946463455406642
 10
568.989898989899
 20
9.936140535233031
 10
569.023569023569
 20
9.925807226399659
 10
569.057239057239
 20
9.915463435729622
 10
569.0909090909091
 20
9.905109070045906
 10
569.1245791245791
 20
9.894744036171614
 10
569.1582491582492
 20
9.88436824092972
 10
569.1919191919192
 20
9.87398159114334
 10
569.2255892255893
 20
9.863583993635444
 10
569.2592592592592
 20
9.853175355229144
 10
569.2929292929293
 20
9.842755582747413
 10
569.3265993265993
 20
9.83232458301336
 10
569.3602693602694
 20
9.82188226284996
 10
569.3939393939394
 20
9.81142852908032
 10
569.4276094276095
 20
9.800963288527418
 10
569.4612794612794
 20
9.790486448014363
 10
569.4949494949495
 20
9.779997914364131
 10
569.5286195286195
 20
9.769497594399828
 10
569.5622895622896
 20
9.758985423302795
 10
569.5959595959596
 20
9.748461479766245
 10
569.6296296296297
 20
9.737925887774143
 10
569.6632996632997
 20
9.727378771327857
 10
569.6969696969697
 20
9.716820254428614
 10
569.7306397306397
 20
9.706250461077783
 10
569.7643097643098
 20
9.695669515276592
 10
569.7979797979798
 20
9.685077541026406
 10
569.8316498316499
 20
9.674474662328455
 10
569.8653198653199
 20
9.663861003184108
 10
569.89898989899
 20
9.65323668759459
 10
569.9326599326599
 20
9.642601839561273
 10
569.96632996633
 20
9.631956583085378
 10
570.0
 20
9.621301042168277
 10
570.0
 20
9.411519287674038
 10
570.3010101010101
 20
9.315689935371664
 10
570.6020202020202
 20
9.219124790839327
 10
570.9030303030303
 20
9.121929403677562
 10
571.2040404040404
 20
9.024209091931061
 10
571.5050505050505
 20
8.926060402422289
 10
571.8060606060606
 20
8.827568619434896
 10
572.1070707070706
 20
8.728818287650398
 10
572.4080808080809
 20
8.629894001499329
 10
572.709090909091
 20
8.53088215551267
 10
573.010101010101
 20
8.431871407975803
 10
573.3111111111111
 20
8.332950561183559
 10
573.6121212121212
 20
8.234208452270606
 10
573.9131313131313
 20
8.135735141991901
 10
574.2141414141414
 20
8.037622208856321
 10
574.5151515151515
 20
7.939961325896388
 10
574.8161616161616
 20
7.84284245337931
 10
575.1171717171717
 20
7.746296358931955
 10
575.4181818181818
 20
7.6502809387663575
 10
575.7191919191919
 20
7.554749603453795
 10
576.020202020202
 20
7.459655683588993
 10
576.321212121212
 20
7.3649497794034104
 10
576.6222222222223
 20
7.270579149044194
 10
576.9232323232324
 20
7.176490846768312
 10
577.2242424242424
 20
7.082631984585519
 10
577.5252525252525
 20
6.98895161001305
 10
577.8262626262626
 20
6.895401119099361
 10
578.1272727272727
 20
6.801932049220534
 10
578.4282828282828
 20
6.708495778389759
 10
578.7292929292929
 20
6.615038485643798
 10
579.030303030303
 20
6.521500122068497
 10
579.3313131313131
 20
6.427820271485805
 10
579.6323232323232
 20
6.3339393370963615
 10
579.9333333333333
 20
6.239823537715522
 10
580.2343434343434
 20
6.145469500982095
 10
580.5353535353535
 20
6.0508756002842965
 10
580.8363636363637
 20
5.956040857652533
 10
581.1373737373738
 20
5.860983958196207
 10
581.4383838383839
 20
5.765746314452787
 10
581.739393939394
 20
5.670370604504572
 10
582.040404040404
 20
5.574899311468801
 10
582.3414141414141
 20
5.47936921494984
 10
582.6424242424242
 20
5.383810618108102
 10
582.9434343434343
 20
5.288253473769594
 10
583.2444444444444
 20
5.192727946149431
 10
583.5454545454545
 20
5.0972702020720435
 10
583.8464646464646
 20
5.001923122686741
 10
584.1474747474747
 20
4.906729943435491
 10
584.4484848484848
 20
4.81173311353805
 10
584.7494949494949
 20
4.716953289681813
 10
585.0505050505051
 20
4.622387051310697
 10
585.3515151515152
 20
4.528029733279998
 10
585.6525252525253
 20
4.433875547779803
 10
585.9535353535354
 20
4.339888264846662
 10
586.2545454545455
 20
4.245998399808622
 10
586.5555555555555
 20
4.152134781440286
 10
586.8565656565656
 20
4.058226543580786
 10
587.1575757575757
 20
3.964210874228841
 10
587.4585858585858
 20
3.87003363803998
 10
587.7595959595959
 20
3.7756411294500474
 10
588.060606060606
 20
3.680979248483993
 10
588.3616161616161
 20
3.585983842479237
 10
588.6626262626262
 20
3.4905801287065032
 10
588.9636363636363
 20
3.3946928144368824
 10
589.2646464646465
 20
3.2982483197083132
 10
589.5656565656566
 20
3.2012148707831574
 10
589.8666666666667
 20
3.1036038860922943
 10
590.1676767676768
 20
3.0054287741148147
 10
590.4686868686869
 20
2.9067045052657776
 10
590.769696969697
 20
2.8074824729825756
 10
591.070707070707
 20
2.707850772838235
 10
591.3717171717171
 20
2.6078991181654287
 10
591.6727272727272
 20
2.507716924674387
 10
591.9737373737373
 20
2.407386931215536
 10
592.2747474747474
 20
2.306985292046725
 10
592.5757575757575
 20
2.206587882257925
 10
592.8767676767676
 20
2.1062704109096497
 10
593.1777777777777
 20
2.006104963781851
 10
593.4787878787879
 20
1.9061601087138007
 10
593.779797979798
 20
1.8065042685891544
 10
594.0808080808081
 20
1.7072034821445108
 10
594.3818181818182
 20
1.6082727091597757
 10
594.6828282828283
 20
1.5096778341039978
 10
594.9838383838384
 20
1.4113827582296241
 10
595.2848484848485
 20
1.313351577821216
 10
595.5858585858585
 20
1.2155525017666855
 10
595.8868686868686
 20
1.1179576543577336
 10
596.1878787878787
 20
1.0205393154484101
 10
596.4888888888888
 20
0.9232697110109197
 10
596.7898989898989
 20
0.826119952143508
 10
597.090909090909
 20
0.7290601000964756
 10
597.3919191919191
 20
0.6320601752582053
 10
597.6929292929292
 20
0.5350902112258926
 10
597.9939393939394
 20
0.43812050874556363
 10
598.2949494949495
 20
0.3411216168085142
 10
598.5959595959596
 20
0.24406409382761587
 10
598.8969696969697
 20
0.14691849821577713
 10
599.1979797979798
 20
0.04965538838590626
 10
599.4989898989899
 20
-0.04775467724908827
 10
599.8
 20
-0.14534114027629802
 10
599.8
 20
0.22908678398706617
 10
599.4989898989899
 20
0.2701095924170551
 10
599.1979797979798
 20
0.3111346521737704
 10
598.8969696969697
 20
0.3521335127267997
 10
598.5959595959596
 20
0.393077723545731
 10
598.2949494949495
 20
0.43393883410015227
 10
597.9939393939394
 20
0.47468839385965106
 10
597.6929292929292
 20
0.515297952293831
 10
597.3919191919191
 20
0.5557390297336564
 10
597.090909090909
 20
0.5959829041900873
 10
596.7898989898989
 20
0.6360007335354922
 10
596.4888888888888
 20
0.6757636747795529
 10
596.1878787878787
 20
0.7152430125492956
 10
595.8868686868686
 20
0.7544110807661881
 10
595.5858585858585
 20
0.7932407286420353
 10
595.2848484848485
 20
0.8317048089553535
 10
594.9838383838384
 20
0.8697756987119251
 10
594.6828282828283
 20
0.9074218945814565
 10
594.3818181818182
 20
0.9446100006186461
 10
594.0808080808081
 20
0.9813066081223132
 10
593.779797979798
 20
1.017484383128957
 10
593.4787878787879
 20
1.053165270886443
 10
593.1777777777777
 20
1.0883951435879944
 10
592.8767676767676
 20
1.1232200318330954
 10
592.5757575757575
 20
1.1576865318980674
 10
592.2747474747474
 20
1.191845800627136
 10
591.9737373737373
 20
1.2257511976445137
 10
591.6727272727272
 20
1.2594560968578328
 10
591.3717171717171
 20
1.293014198687332
 10
591.070707070707
 20
1.326481806965541
 10
590.769696969697
 20
1.359916471234079
 10
590.4686868686869
 20
1.3933757488127396
 10
590.1676767676768
 20
1.4269152226517792
 10
589.8666666666667
 20
1.4605749983694096
 10
589.5656565656566
 20
1.4943878822814636
 10
589.2646464646465
 20
1.5283866377551873
 10
588.9636363636363
 20
1.5625961391702472
 10
588.6626262626262
 20
1.5969807052125788
 10
588.3616161616161
 20
1.6314766067192967
 10
588.060606060606
 20
1.6660199615935927
 10
587.7595959595959
 20
1.7005482216493095
 10
587.4585858585858
 20
1.7350088792537632
 10
587.1575757575757
 20
1.7693539992453977
 10
586.8565656565656
 20
1.8035356696256475
 10
586.5555555555555
 20
1.8375046505455106
 10
586.2545454545455
 20
1.8712018465697118
 10
585.9535353535354
 20
1.9045637284945909
 10
585.6525252525253
 20
1.9375267458471939
 10
585.3515151515152
 20
1.9700328602899388
 10
585.0505050505051
 20
2.0020646094555214
 10
584.7494949494949
 20
2.033622653987988
 10
584.4484848484848
 20
2.064707738670321
 10
584.1474747474747
 20
2.095324611569279
 10
583.8464646464646
 20
2.1255073337985264
 10
583.5454545454545
 20
2.1553029983170133
 10
583.2444444444444
 20
2.1847587573096634
 10
582.9434343434343
 20
2.21392067758046
 10
582.6424242424242
 20
2.242826935788126
 10
582.3414141414141
 20
2.271512223013128
 10
582.040404040404
 20
2.3000112149544645
 10
581.739393939394
 20
2.328359540502198
 10
581.4383838383839
 20
2.3565996789914823
 10
581.1373737373738
 20
2.384777105756829
 10
580.8363636363637
 20
2.4129373087418906
 10
580.5353535353535
 20
2.441122531505952
 10
580.2343434343434
 20
2.4693520621046545
 10
579.9333333333333
 20
2.4976352867949174
 10
579.6323232323232
 20
2.525981552844389
 10
579.3313131313131
 20
2.5543958168677956
 10
579.030303030303
 20
2.5828525255375796
 10
578.7292929292929
 20
2.611313174658967
 10
578.4282828282828
 20
2.639739212948824
 10
578.1272727272727
 20
2.6680930653740527
 10
577.8262626262626
 20
2.6963438275783167
 10
577.5252525252525
 20
2.7244633845286867
 10
577.2242424242424
 20
2.7524236305818994
 10
576.9232323232324
 20
2.780195840663516
 10
576.6222222222223
 20
2.807747113853261
 10
576.321212121212
 20
2.8350428241417864
 10
576.020202020202
 20
2.8620483400719556
 10
575.7191919191919
 20
2.888730666848879
 10
575.4181818181818
 20
2.9150677325207273
 10
575.1171717171717
 20
2.9410419366826632
 10
574.8161616161616
 20
2.9666356923756743
 10
574.5151515151515
 20
2.9918355622955937
 10
574.2141414141414
 20
3.0166555926633913
 10
573.9131313131313
 20
3.0411210033654066
 10
573.6121212121212
 20
3.065257046637488
 10
573.3111111111111
 20
3.0890883552053263
 10
573.010101010101
 20
3.112635490690839
 10
572.709090909091
 20
3.135917371267364
 10
572.4080808080809
 20
3.1589529105345555
 10
572.1070707070706
 20
3.1817611069290708
 10
571.8060606060606
 20
3.204361510934817
 10
571.5050505050505
 20
3.2267738939053388
 10
571.2040404040404
 20
3.2490180277784284
 10
570.9030303030303
 20
3.2711139822272592
 10
570.6020202020202
 20
3.2930837411909164
 10
570.3010101010101
 20
3.314950046140661
 10
570.0
 20
3.3367356404280866
 10
570.0
 20
3.136215835131944
 10
569.96632996633
 20
3.1386480057416004
 10
569.9326599326599
 20
3.1410793663072036
 10
569.89898989899
 20
3.1435099450270996
 10
569.8653198653199
 20
3.145939770099667
 10
569.8316498316499
 20
3.1483688697232535
 10
569.7979797979798
 20
3.1507972720962383
 10
569.7643097643098
 20
3.153225005416966
 10
569.7306397306397
 20
3.155652097883816
 10
569.6969696969697
 20
3.1580785776951332
 10
569.6632996632997
 20
3.160504473049299
 10
569.6296296296297
 20
3.1629298121446574
 10
569.5959595959596
 20
3.165354623179589
 10
569.5622895622896
 20
3.167778934352439
 10
569.5286195286195
 20
3.170202773858766
 10
569.4949494949495
 20
3.1726261624923016
 10
569.4612794612794
 20
3.175049097593002
 10
569.4276094276095
 20
3.177471571866242
 10
569.3939393939394
 20
3.179893578017432
 10
569.3602693602694
 20
3.1823151087519457
 10
569.3265993265993
 20
3.184736156775195
 10
569.2929292929293
 20
3.1871567147925535
 10
569.2592592592592
 20
3.1895767755094315
 10
569.2255892255893
 20
3.1919963316312043
 10
569.1919191919192
 20
3.1944153758632807
 10
569.1582491582492
 20
3.196833900911037
 10
569.1245791245791
 20
3.1992518994798815
 10
569.0909090909091
 20
3.201669364275193
 10
569.057239057239
 20
3.204086288002377
 10
569.023569023569
 20
3.2065026633668103
 10
568.989898989899
 20
3.2089184830739024
 10
568.956228956229
 20
3.2113337398290294
 10
568.9225589225589
 20
3.2137484263376006
 10
568.8888888888889
 20
3.2161625353049907
 10
568.8552188552188
 20
3.2185760594366086
 10
568.8215488215488
 20
3.2209889914378325
 10
568.7878787878788
 20
3.2234013240140693
 10
568.7542087542088
 20
3.2258130498706947
 10
568.7205387205387
 20
3.2282241617131198
 10
568.6868686868687
 20
3.230634652246719
 10
568.6531986531986
 20
3.2330445141769015
 10
568.6195286195286
 20
3.235453740209043
 10
568.5858585858585
 20
3.2378623230485526
 10
568.5521885521886
 20
3.240270255400806
 10
568.5185185185185
 20
3.242677529971213
 10
568.4848484848485
 20
3.24508413946515
 10
568.4511784511784
 20
3.2474900765880244
 10
568.4175084175084
 20
3.2498953340452124
 10
568.3838383838383
 20
3.2522999045421237
 10
568.3501683501684
 20
3.2547037807841344
 10
568.3164983164983
 20
3.2571069554766523
 10
568.2828282828283
 20
3.2595094213250544
 10
568.2491582491582
 20
3.26191117103475
 10
568.2154882154882
 20
3.2643121973111136
 10
568.1818181818181
 20
3.2667124928595555
 10
568.1481481481482
 20
3.269112050385451
 10
568.1144781144781
 20
3.2715108625942095
 10
568.0808080808081
 20
3.2739089221912057
 10
568.047138047138
 20
3.27630622188185
 10
568.013468013468
 20
3.2787027543715186
 10
567.9797979797979
 20
3.281098512365619
 10
567.946127946128
 20
3.283493488569528
 10
567.9124579124579
 20
3.2858876756886546
 10
567.8787878787879
 20
3.2882810664283744
 10
567.8451178451178
 20
3.2906736534940966
 10
567.8114478114478
 20
3.293065429591197
 10
567.7777777777777
 20
3.2954563874250855
 10
567.7441077441077
 20
3.297846519701137
 10
567.7104377104376
 20
3.3002358191247607
 10
567.6767676767677
 20
3.3026242784013324
 10
567.6430976430976
 20
3.305011890236261
 10
567.6094276094276
 20
3.307398647334924
 10
567.5757575757575
 20
3.3097845424027277
 10
567.5420875420875
 20
3.31216956814505
 10
567.5084175084174
 20
3.3145537172672994
 10
567.4747474747475
 20
3.3169369824748514
 10
567.4410774410774
 20
3.319319356473115
 10
567.4074074074074
 20
3.321700831967468
 10
567.3737373737373
 20
3.3240814016633164
 10
567.3400673400673
 20
3.3264610582660383
 10
567.3063973063972
 20
3.3288397944810426
 10
567.2727272727273
 20
3.331217603013704
 10
567.2390572390572
 20
3.3335944765694316
 10
567.2053872053872
 20
3.3359704078536025
 10
567.1717171717171
 20
3.338345389571625
 10
567.1380471380471
 20
3.3407194144288748
 10
567.104377104377
 20
3.343092475130761
 10
567.070707070707
 20
3.345464564382661
 10
567.037037037037
 20
3.347835674889981
 10
567.003367003367
 20
3.3502057993580987
 10
566.9696969696969
 20
3.352574930492423
 10
566.9360269360269
 20
3.3549430609983304
 10
566.9023569023568
 20
3.3573101835812285
 10
566.8686868686868
 20
3.359676290946494
 10
566.8350168350167
 20
3.362041375799535
 10
566.8013468013468
 20
3.3644054308457285
 10
566.7676767676767
 20
3.3667684487904843
 10
566.7340067340067
 20
3.369130422339176
 10
566.7003367003366
 20
3.3714913441972136
 10
566.6666666666666
 20
3.373851207069975
 10
566.6666666666666
 20
4.37630147600129
 10
566.4983164983165
 20
4.388072979486275
 10
566.3299663299663
 20
4.399816646543303
 10
566.1616161616162
 20
4.41153160556708
 10
565.9932659932659
 20
4.423216926473318
 10
565.8249158249158
 20
4.434871675711697
 10
565.6565656565656
 20
4.44649491973193
 10
565.4882154882155
 20
4.458085724983702
 10
565.3198653198652
 20
4.469643157916725
 10
565.1515151515151
 20
4.481166285113455
 10
564.9831649831649
 20
4.492654185368215
 10
564.8148148148148
 20
4.504105959359342
 10
564.6464646464647
 20
4.5155207100412715
 10
564.4781144781144
 20
4.526897540368437
 10
564.3097643097643
 20
4.538235553295258
 10
564.1414141414141
 20
4.549533851776173
 10
563.973063973064
 20
4.560791538858858
 10
563.8047138047137
 20
4.572007781491128
 10
563.6363636363636
 20
4.5831819218054175
 10
563.4680134680134
 20
4.5943133316880385
 10
563.2996632996633
 20
4.605401383025277
 10
563.131313131313
 20
4.616445447703442
 10
562.9629629629629
 20
4.62744489760882
 10
562.7946127946128
 20
4.638399104627715
 10
562.6262626262626
 20
4.649307437919874
 10
562.4579124579125
 20
4.660169254871178
 10
562.2895622895622
 20
4.670983909690196
 10
562.1212121212121
 20
4.681750756585417
 10
561.9528619528619
 20
4.692469149765359
 10
561.7845117845118
 20
4.703138443438516
 10
561.6161616161615
 20
4.713757991813406
 10
561.4478114478114
 20
4.724327153934286
 10
561.2794612794612
 20
4.7348453223605995
 10
561.1111111111111
 20
4.7453119038451055
 10
560.942760942761
 20
4.755726305191582
 10
560.7744107744107
 20
4.76608793320381
 10
560.6060606060606
 20
4.7763961946855495
 10
560.4377104377104
 20
4.786650496440586
 10
560.2693602693603
 20
4.796850235934293
 10
560.10101010101
 20
4.806994701274209
 10
559.9326599326599
 20
4.817083109633063
 10
559.7643097643097
 20
4.827114676984117
 10
559.5959595959596
 20
4.837088619300599
 10
559.4276094276094
 20
4.847004152555769
 10
559.2592592592592
 20
4.85686049272286
 10
559.0909090909091
 20
4.866656873821967
 10
558.9225589225589
 20
4.876392929722537
 10
558.7542087542088
 20
4.886068685862004
 10
558.5858585858585
 20
4.895684184068159
 10
558.4175084175084
 20
4.90523946616877
 10
558.2491582491582
 20
4.914734573991635
 10
558.0808080808081
 20
4.924169549364519
 10
557.9124579124579
 20
4.9335444432316855
 10
557.7441077441077
 20
4.942859790108123
 10
557.5757575757575
 20
4.952116839688884
 10
557.4074074074074
 20
4.961316899342702
 10
557.2390572390573
 20
4.9704612764383285
 10
557.070707070707
 20
4.979551278344522
 10
556.9023569023569
 20
4.988588212430011
 10
556.7340067340067
 20
4.997573385794876
 10
556.5656565656566
 20
5.006508044708651
 10
556.3973063973064
 20
5.015393297768246
 10
556.2289562289562
 20
5.024230234636248
 10
556.060606060606
 20
5.033019944975273
 10
555.8922558922559
 20
5.041763518447909
 10
555.7239057239057
 20
5.050462044716766
 10
555.5555555555555
 20
5.059116613444294
 10
555.3872053872054
 20
5.067728311936341
 10
555.2188552188552
 20
5.076298219157599
 10
555.0505050505051
 20
5.084827412228156
 10
554.8821548821549
 20
5.093316968268126
 10
554.7138047138047
 20
5.101767964397602
 10
554.5454545454545
 20
5.110181477736701
 10
554.3771043771044
 20
5.118558585405511
 10
554.2087542087542
 20
5.126900396565391
 10
554.040404040404
 20
5.135208199718097
 10
553.8720538720538
 20
5.143483345727618
 10
553.7037037037037
 20
5.151727185520657
 10
553.5353535353536
 20
5.159941070023939
 10
553.3670033670033
 20
5.168126350164187
 10
553.1986531986532
 20
5.176284376868109
 10
553.030303030303
 20
5.18441640680443
 10
552.8619528619529
 20
5.192522844669725
 10
552.6936026936027
 20
5.2006036427301785
 10
552.5252525252525
 20
5.208658749082285
 10
552.3569023569023
 20
5.216688111822555
 10
552.1885521885522
 20
5.224691679047482
 10
552.020202020202
 20
5.2326693988535755
 10
551.8518518518518
 20
5.240621177003507
 10
551.6835016835017
 20
5.24854625899132
 10
551.5151515151515
 20
5.256443367953998
 10
551.3468013468014
 20
5.264311212752492
 10
551.1784511784512
 20
5.272148502247782
 10
551.010101010101
 20
5.279953945300822
 10
550.8417508417508
 20
5.2877262507725895
 10
550.6734006734007
 20
5.295464131058113
 10
550.5050505050505
 20
5.303166408582144
 10
550.3367003367003
 20
5.310832034626448
 10
550.1683501683501
 20
5.318459967801819
 10
550.0
 20
5.326049166719034
  0
ENDSEC
  0
SECTION
  2
OBJECTS
  0
DICTIONARY
  5
A
330
0
100
AcDbDictionary
280
0
281
1
  3
ACAD_COLOR
350
B
  3
ACAD_GROUP
350
C
  3
ACAD_LAYOUT
350
D
  3
ACAD_MATERIAL
350
E
  3
ACAD_MLEADERSTYLE
350
F
  3
ACAD_MLINESTYLE
350
10
  3
ACAD_PLOTSETTINGS
350
11
  3
ACAD_PLOTSTYLENAME
350
12
  3
ACAD_SCALELIST
350
14
  3
ACAD_TABLESTYLE
350
15
  3
ACAD_VISUALSTYLE
350
16
  3
EZDXF_META
350
2D
  0
DICTIONARY
  5
B
330
A
100
AcDbDictionary
280
0
281
1
  0
DICTIONARY
  5
C
330
A
100
AcDbDictionary
280
0
281
1
  0
DICTIONARY
  5
D
330
A
100
AcDbDictionary
280
0
281
1
  3
Model
350
1A
  3
Layout1
350
1E
  0
DICTIONARY
  5
E
330
A
100
AcDbDictionary
280
0
281
1
  3
ByBlock
350
1F
  3
ByLayer
350
20
  3
Global
350
21
  0
DICTIONARY
  5
F
330
A
100
AcDbDictionary
280
0
281
1
  3
Standard
350
2C
  0
DICTIONARY
  5
10
330
A
100
AcDbDictionary
280
0
281
1
  3
Standard
350
22
  0
DICTIONARY
  5
11
330
A
100
AcDbDictionary
280
0
281
1
  0
ACDBDICTIONARYWDFLT
  5
12
330
A
100
AcDbDictionary
280
0
281
1
  3
Normal
350
13
100
AcDbDictionaryWithDefault
340
13
  0
ACDBPLACEHOLDER
  5
13
330
12
  0
DICTIONARY
  5
14
330
A
100
AcDbDictionary
280
0
281
1
  0
DICTIONARY
  5
15
330
A
100
AcDbDictionary
280
0
281
1
  0
DICTIONARY
  5
16
330
A
100
AcDbDictionary
280
0
281
1
  3
2dWireframe
350
5A
  3
Basic
350
5B
  3
Brighten
350
5C
  3
ColorChange
350
5D
  3
Conceptual
350
5E
  3
Dim
350
5F
  3
EdgeColorOff
350
60
  3
Facepattern
350
61
  3
Flat
350
62
  3
FlatWithEdges
350
63
  3
Gouraud
350
64
  3
GouraudWithEdges
350
65
  3
Hidden
350
66
  3
JitterOff
350
67
  3
Linepattern
350
68
  3
Modeling
350
69
  3
OverhangOff
350
6A
  3
Realistic
350
6B
  3
Shaded
350
6C
  3
Shaded with edges
350
6D
  3
Shades of Gray
350
6E
  3
Sketchy
350
6F
  3
Thicken
350
70
  3
Wireframe
350
71
  3
X-Ray
350
72
  0
LAYOUT
  5
1A
330
D
100
AcDbPlotSettings
  1

  4
A3
  6

 40
7.5
 41
20.0
 42
7.5
 43
20.0
 44
420.0
 45
297.0
 46
0.0
 47
0.0
 48
0.0
 49
0.0
140
0.0
141
0.0
142
1.0
143
1.0
 70
1024
 72
1
 73
0
 74
5
  7

 75
16
 76
0
 77
2
 78
300
147
1.0
148
0.0
149
0.0
100
AcDbLayout
  1
Model
 70
1
 71
0
 10
0.0
 20
0.0
 11
420.0
 21
297.0
 12
0.0
 22
0.0
 32
0.0
 14
1e+20
 24
1e+20
 34
1e+20
 15
-1e+20
 25
-1e+20
 35
-1e+20
146
0.0
 13
0.0
 23
0.0
 33
0.0
 16
1.0
 26
0.0
 36
0.0
 17
0.0
 27
1.0
 37
0.0
 76
1
330
17
  0
LAYOUT
  5
1E
330
D
100
AcDbPlotSettings
  1

  4
A3
  6

 40
7.5
 41
20.0
 42
7.5
 43
20.0
 44
420.0
 45
297.0
 46
0.0
 47
0.0
 48
0.0
 49
0.0
140
0.0
141
0.0
142
1.0
143
1.0
 70
0
 72
1
 73
0
 74
5
  7

 75
16
 76
0
 77
2
 78
300
147
1.0
148
0.0
149
0.0
100
AcDbLayout
  1
Layout1
 70
1
 71
1
 10
0.0
 20
0.0
 11
420.0
 21
297.0
 12
0.0
 22
0.0
 32
0.0
 14
1e+20
 24
1e+20
 34
1e+20
 15
-1e+20
 25
-1e+20
 35
-1e+20
146
0.0
 13
0.0
 23
0.0
 33
0.0
 16
1.0
 26
0.0
 36
0.0
 17
0.0
 27
1.0
 37
0.0
 76
1
330
1B
  0
MATERIAL
  5
1F
102
{ACAD_REACTORS
330
E
102
}
330
E
100
AcDbMaterial
  1
ByBlock
  2

 70
0
 40
1.0
 71
1
 41
1.0
 91
-1023410177
 42
1.0
 72
1
  3

 73
1
 74
1
 75
1
 44
0.5
 73
0
 45
1.0
 46
1.0
 77
1
  4

 78
1
 79
1
170
1
 48
1.0
171
1
  6

172
1
173
1
174
1
140
1.0
141
1.0
175
1
  7

176
1
177
1
178
1
143
1.0
179
1
  8

270
1
271
1
272
1
145
1.0
146
1.0
273
1
  9

274
1
275
1
276
1
 42
1.0
 72
1
  3

 73
1
 74
1
 75
1
 94
63
  0
MATERIAL
  5
20
102
{ACAD_REACTORS
330
E
102
}
330
E
100
AcDbMaterial
  1
ByLayer
  2

 70
0
 40
1.0
 71
1
 41
1.0
 91
-1023410177
 42
1.0
 72
1
  3

 73
1
 74
1
 75
1
 44
0.5
 73
0
 45
1.0
 46
1.0
 77
1
  4

 78
1
 79
1
170
1
 48
1.0
171
1
  6

172
1
173
1
174
1
140
1.0
141
1.0
175
1
  7

176
1
177
1
178
1
143
1.0
179
1
  8

270
1
271
1
272
1
145
1.0
146
1.0
273
1
  9

274
1
275
1
276
1
 42
1.0
 72
1
  3

 73
1
 74
1
 75
1
 94
63
  0
MATERIAL
  5
21
102
{ACAD_REACTORS
330
E
102
}
330
E
100
AcDbMaterial
  1
Global
  2

 70
0
 40
1.0
 71
1
 41
1.0
 91
-1023410177
 42
1.0
 72
1
  3

 73
1
 74
1
 75
1
 44
0.5
 73
0
 45
1.0
 46
1.0
 77
1
  4

 78
1
 79
1
170
1
 48
1.0
171
1
  6

172
1
173
1
174
1
140
1.0
141
1.0
175
1
  7

176
1
177
1
178
1
143
1.0
179
1
  8

270
1
271
1
272
1
145
1.0
146
1.0
273
1
  9

274
1
275
1
276
1
 42
1.0
 72
1
  3

 73
1
 74
1
 75
1
 94
63
  0
MLINESTYLE
  5
22
102
{ACAD_REACTORS
330
10
102
}
330
10
100
AcDbMlineStyle
  2
Standard
 70
0
  3

 62
256
 51
90.0
 52
90.0
 71
2
 49
0.5
 62
256
  6
BYLAYER
 49
-0.5
 62
256
  6
BYLAYER
  0
MLEADERSTYLE
  5
2C
102
{ACAD_REACTORS
330
F
102
}
330
F
100
AcDbMLeaderStyle
179
2
170
2
171
1
172
0
 90
2
 40
0.0
 41
0.0
173
1
 91
-1056964608
 92
-2
290
1
 42
2.0
291
1
 43
8.0
  3
Standard
 44
4.0
300

342
29
174
1
175
1
176
0
178
1
 93
-1056964608
 45
4.0
292
0
297
0
 46
4.0
 94
-1056964608
 47
1.0
 49
1.0
140
1.0
294
1
141
0.0
177
0
142
1.0
295
0
296
0
143
3.75
271
0
272
9
273
9
  0
DICTIONARY
  5
2D
330
A
100
AcDbDictionary
281
1
  3
CREATED_BY_EZDXF
350
2E
  3
WRITTEN_BY_EZDXF
350
9C
  0
DICTIONARYVAR
  5
2E
330
2D
100
DictionaryVariables
280
0
  1
1.3.3 @ 2025-08-01T12:07:17.058120+00:00
  0
VISUALSTYLE
  5
5A
102
{ACAD_REACTORS
330
16
102
}
330
16
100
AcDbVisualStyle
  2
2dWireframe
 70
4
177
3
291
0
 70
58
 90
2
176
1
 90
2
176
1
 90
0
176
1
 90
0
176
1
 40
0.6
176
1
 40
30.0
176
1
 62
7
420
16777215
176
1
 90
1
176
1
 90
4
176
1
 62
7
176
1
 62
257
176
1
 90
1
176
1
 90
1
176
1
 40
1.0
176
1
 90
8
176
1
 62
7
176
1
 40
1.0
176
1
 90
1
176
1
 90
6
176
1
 90
2
176
1
 62
7
176
1
 90
5
176
1
 90
0
176
1
 90
0
176
1
290
0
176
1
 90
1
176
1
 40
0.0
176
1
 90
0
176
1
290
1
176
1
290
1
176
1
290
0
176
1
290
0
176
1
290
0
176
1
290
0
176
1
290
0
176
1
290
0
176
1
290
0
176
1
 90
50
176
1
 40
0.0
176
1
 40
1.0
176
1
 90
0
176
1
 62
18
420
0
176
1
 90
50
176
1
 90
3
176
1
 62
5
420
255
176
1
290
0
176
1
 90
50
176
1
 90
50
176
1
 90
50
176
1
290
0
176
1
 90
50
176
1
 62
256
176
0
 40
1.0
176
0
 90
2
176
1
  1
strokes_ogs.tif
176
1
290
0
176
1
 40
1.0
176
1
 40
1.0
176
1
  0
VISUALSTYLE
  5
5B
102
{ACAD_REACTORS
330
16
102
}
330
16
100
AcDbVisualStyle
  2
Basic
 70
7
177
3
291
1
 70
58
 90
2
176
1
 90
2
176
1
 90
0
176
1
 90
1
176
1
 40
0.6
176
1
 40
30.0
176
1
 62
7
420
16777215
176
1
 90
1
176
1
 90
4
176
1
 62
7
176
1
 62
257
176
1
 90
1
176
1
 90
1
176
1
 40
1.0
176
1
 90
8
176
1
 62
7
176
1
 40
1.0
176
1
 90
1
176
1
 90
6
176
1
 90
2
176
1
 62
7
176
1
 90
5
176
1
 90
0
176
1
 90
0
176
1
290
0
176
1
 90
1
176
1
 40
0.0
176
1
 90
0
176
1
290
0
176
1
290
1
176
1
290
1
176
1
290
0
176
1
290
0
176
1
290
0
176
1
290
0
176
1
290
0
176
1
290
0
176
1
 90
50
176
1
 40
0.0
176
1
 40
1.0
176
1
 90
0
176
1
 62
18
420
0
176
1
 90
50
176
1
 90
3
176
1
 62
5
420
255
176
1
290
0
176
1
 90
50
176
1
 90
50
176
1
 90
50
176
1
290
0
176
1
 90
50
176
1
 62
256
176
0
 40
1.0
176
0
 90
2
176
1
  1
strokes_ogs.tif
176
1
290
0
176
1
 40
1.0
176
1
 40
1.0
176
1
  0
VISUALSTYLE
  5
5C
102
{ACAD_REACTORS
330
16
102
}
330
16
100
AcDbVisualStyle
  2
Brighten
 70
12
177
3
291
1
 70
58
 90
2
176
1
 90
2
176
1
 90
0
176
1
 90
2
176
1
 40
0.6
176
1
 40
30.0
176
1
 62
7
420
16777215
176
1
 90
1
176
1
 90
4
176
1
 62
7
176
1
 62
257
176
1
 90
1
176
1
 90
1
176
1
 40
1.0
176
1
 90
8
176
1
 62
7
176
1
 40
1.0
176
1
 90
1
176
1
 90
6
176
1
 90
2
176
1
 62
7
176
1
 90
5
176
1
 90
0
176
1
 90
0
176
1
290
0
176
1
 90
1
176
1
 40
0.0
176
1
 90
0
176
1
290
0
176
1
290
1
176
1
290
1
176
1
290
0
176
1
290
0
176
1
290
0
176
1
290
0
176
1
290
0
176
1
290
0
176
1
 90
50
176
1
 40
0.0
176
1
 40
1.0
176
1
 90
0
176
1
 62
18
420
0
176
1
 90
50
176
1
 90
3
176
1
 62
5
420
255
176
1
290
0
176
1
 90
50
176
1
 90
50
176
1
 90
50
176
1
290
0
176
1
 90
50
176
1
 62
256
176
0
 40
1.0
176
0
 90
2
176
1
  1
strokes_ogs.tif
176
1
290
0
176
1
 40
1.0
176
1
 40
1.0
176
1
  0
VISUALSTYLE
  5
5D
102
{ACAD_REACTORS
330
16
102
}
330
16
100
AcDbVisualStyle
  2
ColorChange
 70
16
177
3
291
1
 70
58
 90
2
176
1
 90
2
176
1
 90
0
176
1
 90
2
176
1
 40
0.6
176
1
 40
30.0
176
1
 62
7
420
16777215
176
1
 90
1
176
1
 90
4
176
1
 62
7
176
1
 62
257
176
1
 90
1
176
1
 90
1
176
1
 40
1.0
176
1
 90
8
176
1
 62
7
176
1
 40
1.0
176
1
 90
1
176
1
 90
6
176
1
 90
2
176
1
 62
7
176
1
 90
5
176
1
 90
0
176
1
 90
0
176
1
290
0
176
1
 90
1
176
1
 40
0.0
176
1
 90
0
176
1
290
0
176
1
290
1
176
1
290
1
176
1
290
0
176
1
290
0
176
1
290
0
176
1
290
0
176
1
290
0
176
1
290
0
176
1
 90
50
176
1
 40
0.0
176
1
 40
1.0
176
1
 90
0
176
1
 62
18
420
0
176
1
 90
50
176
1
 90
3
176
1
 62
5
420
255
176
1
290
0
176
1
 90
50
176
1
 90
50
176
1
 90
50
176
1
290
0
176
1
 90
50
176
1
 62
256
176
0
 40
1.0
176
0
 90
2
176
1
  1
strokes_ogs.tif
176
1
290
0
176
1
 40
1.0
176
1
 40
1.0
176
1
  0
VISUALSTYLE
  5
5E
102
{ACAD_REACTORS
330
16
102
}
330
16
100
AcDbVisualStyle
  2
Conceptual
 70
9
177
3
291
0
 70
58
 90
2
176
1
 90
2
176
1
 90
0
176
1
 90
3
176
1
 40
0.6
176
1
 40
30.0
176
1
 62
7
420
16777215
176
1
 90
1
176
1
 90
4
176
1
 62
7
176
1
 62
257
176
1
 90
1
176
1
 90
1
176
1
 40
1.0
176
1
 90
8
176
1
 62
7
176
1
 40
1.0
176
1
 90
1
176
1
 90
6
176
1
 90
2
176
1
 62
7
176
1
 90
5
176
1
 90
0
176
1
 90
0
176
1
290
0
176
1
 90
1
176
1
 40
0.0
176
1
 90
0
176
1
290
0
176
1
290
1
176
1
290
1
176
1
290
0
176
1
290
0
176
1
290
0
176
1
290
0
176
1
290
0
176
1
290
0
176
1
 90
50
176
1
 40
0.0
176
1
 40
1.0
176
1
 90
0
176
1
 62
18
420
0
176
1
 90
50
176
1
 90
3
176
1
 62
5
420
255
176
1
290
0
176
1
 90
50
176
1
 90
50
176
1
 90
50
176
1
290
0
176
1
 90
50
176
1
 62
256
176
0
 40
1.0
176
0
 90
2
176
1
  1
strokes_ogs.tif
176
1
290
0
176
1
 40
1.0
176
1
 40
1.0
176
1
  0
VISUALSTYLE
  5
5F
102
{ACAD_REACTORS
330
16
102
}
330
16
100
AcDbVisualStyle
  2
Dim
 70
11
177
3
291
1
 70
58
 90
2
176
1
 90
2
176
1
 90
0
176
1
 90
2
176
1
 40
0.6
176
1
 40
30.0
176
1
 62
7
420
16777215
176
1
 90
1
176
1
 90
4
176
1
 62
7
176
1
 62
257
176
1
 90
1
176
1
 90
1
176
1
 40
1.0
176
1
 90
8
176
1
 62
7
176
1
 40
1.0
176
1
 90
1
176
1
 90
6
176
1
 90
2
176
1
 62
7
176
1
 90
5
176
1
 90
0
176
1
 90
0
176
1
290
0
176
1
 90
1
176
1
 40
0.0
176
1
 90
0
176
1
290
0
176
1
290
1
176
1
290
1
176
1
290
0
176
1
290
0
176
1
290
0
176
1
290
0
176
1
290
0
176
1
290
0
176
1
 90
50
176
1
 40
0.0
176
1
 40
1.0
176
1
 90
0
176
1
 62
18
420
0
176
1
 90
50
176
1
 90
3
176
1
 62
5
420
255
176
1
290
0
176
1
 90
50
176
1
 90
50
176
1
 90
50
176
1
290
0
176
1
 90
50
176
1
 62
256
176
0
 40
1.0
176
0
 90
2
176
1
  1
strokes_ogs.tif
176
1
290
0
176
1
 40
1.0
176
1
 40
1.0
176
1
  0
VISUALSTYLE
  5
60
102
{ACAD_REACTORS
330
16
102
}
330
16
100
AcDbVisualStyle
  2
EdgeColorOff
 70
22
177
3
291
1
 70
58
 90
2
176
1
 90
2
176
1
 90
0
176
1
 90
2
176
1
 40
0.6
176
1
 40
30.0
176
1
 62
7
420
16777215
176
1
 90
1
176
1
 90
4
176
1
 62
7
176
1
 62
257
176
1
 90
1
176
1
 90
1
176
1
 40
1.0
176
1
 90
8
176
1
 62
7
176
1
 40
1.0
176
1
 90
1
176
1
 90
6
176
1
 90
2
176
1
 62
7
176
1
 90
5
176
1
 90
0
176
1
 90
0
176
1
290
0
176
1
 90
1
176
1
 40
0.0
176
1
 90
0
176
1
290
0
176
1
290
1
176
1
290
1
176
1
290
0
176
1
290
0
176
1
290
0
176
1
290
0
176
1
290
0
176
1
290
0
176
1
 90
50
176
1
 40
0.0
176
1
 40
1.0
176
1
 90
0
176
1
 62
18
420
0
176
1
 90
50
176
1
 90
3
176
1
 62
5
420
255
176
1
290
0
176
1
 90
50
176
1
 90
50
176
1
 90
50
176
1
290
0
176
1
 90
50
176
1
 62
256
176
0
 40
1.0
176
0
 90
2
176
1
  1
strokes_ogs.tif
176
1
290
0
176
1
 40
1.0
176
1
 40
1.0
176
1
  0
VISUALSTYLE
  5
61
102
{ACAD_REACTORS
330
16
102
}
330
16
100
AcDbVisualStyle
  2
Facepattern
 70
15
177
3
291
1
 70
58
 90
2
176
1
 90
2
176
1
 90
0
176
1
 90
2
176
1
 40
0.6
176
1
 40
30.0
176
1
 62
7
420
16777215
176
1
 90
1
176
1
 90
4
176
1
 62
7
176
1
 62
257
176
1
 90
1
176
1
 90
1
176
1
 40
1.0
176
1
 90
8
176
1
 62
7
176
1
 40
1.0
176
1
 90
1
176
1
 90
6
176
1
 90
2
176
1
 62
7
176
1
 90
5
176
1
 90
0
176
1
 90
0
176
1
290
0
176
1
 90
1
176
1
 40
0.0
176
1
 90
0
176
1
290
0
176
1
290
1
176
1
290
1
176
1
290
0
176
1
290
0
176
1
290
0
176
1
290
0
176
1
290
0
176
1
290
0
176
1
 90
50
176
1
 40
0.0
176
1
 40
1.0
176
1
 90
0
176
1
 62
18
420
0
176
1
 90
50
176
1
 90
3
176
1
 62
5
420
255
176
1
290
0
176
1
 90
50
176
1
 90
50
176
1
 90
50
176
1
290
0
176
1
 90
50
176
1
 62
256
176
0
 40
1.0
176
0
 90
2
176
1
  1
strokes_ogs.tif
176
1
290
0
176
1
 40
1.0
176
1
 40
1.0
176
1
  0
VISUALSTYLE
  5
62
102
{ACAD_REACTORS
330
16
102
}
330
16
100
AcDbVisualStyle
  2
Flat
 70
0
177
3
291
1
 70
58
 90
2
176
1
 90
2
176
1
 90
0
176
1
 90
2
176
1
 40
0.6
176
1
 40
30.0
176
1
 62
7
420
16777215
176
1
 90
1
176
1
 90
4
176
1
 62
7
176
1
 62
257
176
1
 90
1
176
1
 90
1
176
1
 40
1.0
176
1
 90
8
176
1
 62
7
176
1
 40
1.0
176
1
 90
1
176
1
 90
6
176
1
 90
2
176
1
 62
7
176
1
 90
5
176
1
 90
0
176
1
 90
0
176
1
290
0
176
1
 90
1
176
1
 40
0.0
176
1
 90
0
176
1
290
0
176
1
290
1
176
1
290
1
176
1
290
0
176
1
290
0
176
1
290
0
176
1
290
0
176
1
290
0
176
1
290
0
176
1
 90
50
176
1
 40
0.0
176
1
 40
1.0
176
1
 90
0
176
1
 62
18
420
0
176
1
 90
50
176
1
 90
3
176
1
 62
5
420
255
176
1
290
0
176
1
 90
50
176
1
 90
50
176
1
 90
50
176
1
290
0
176
1
 90
50
176
1
 62
256
176
0
 40
1.0
176
0
 90
2
176
1
  1
strokes_ogs.tif
176
1
290
0
176
1
 40
1.0
176
1
 40
1.0
176
1
  0
VISUALSTYLE
  5
63
102
{ACAD_REACTORS
330
16
102
}
330
16
100
AcDbVisualStyle
  2
FlatWithEdges
 70
1
177
3
291
1
 70
58
 90
2
176
1
 90
2
176
1
 90
0
176
1
 90
2
176
1
 40
0.6
176
1
 40
30.0
176
1
 62
7
420
16777215
176
1
 90
1
176
1
 90
4
176
1
 62
7
176
1
 62
257
176
1
 90
1
176
1
 90
1
176
1
 40
1.0
176
1
 90
8
176
1
 62
7
176
1
 40
1.0
176
1
 90
1
176
1
 90
6
176
1
 90
2
176
1
 62
7
176
1
 90
5
176
1
 90
0
176
1
 90
0
176
1
290
0
176
1
 90
1
176
1
 40
0.0
176
1
 90
0
176
1
290
0
176
1
290
1
176
1
290
1
176
1
290
0
176
1
290
0
176
1
290
0
176
1
290
0
176
1
290
0
176
1
290
0
176
1
 90
50
176
1
 40
0.0
176
1
 40
1.0
176
1
 90
0
176
1
 62
18
420
0
176
1
 90
50
176
1
 90
3
176
1
 62
5
420
255
176
1
290
0
176
1
 90
50
176
1
 90
50
176
1
 90
50
176
1
290
0
176
1
 90
50
176
1
 62
256
176
0
 40
1.0
176
0
 90
2
176
1
  1
strokes_ogs.tif
176
1
290
0
176
1
 40
1.0
176
1
 40
1.0
176
1
  0
VISUALSTYLE
  5
64
102
{ACAD_REACTORS
330
16
102
}
330
16
100
AcDbVisualStyle
  2
Gouraud
 70
2
177
3
291
1
 70
58
 90
2
176
1
 90
2
176
1
 90
0
176
1
 90
2
176
1
 40
0.6
176
1
 40
30.0
176
1
 62
7
420
16777215
176
1
 90
1
176
1
 90
4
176
1
 62
7
176
1
 62
257
176
1
 90
1
176
1
 90
1
176
1
 40
1.0
176
1
 90
8
176
1
 62
7
176
1
 40
1.0
176
1
 90
1
176
1
 90
6
176
1
 90
2
176
1
 62
7
176
1
 90
5
176
1
 90
0
176
1
 90
0
176
1
290
0
176
1
 90
1
176
1
 40
0.0
176
1
 90
0
176
1
290
0
176
1
290
1
176
1
290
1
176
1
290
0
176
1
290
0
176
1
290
0
176
1
290
0
176
1
290
0
176
1
290
0
176
1
 90
50
176
1
 40
0.0
176
1
 40
1.0
176
1
 90
0
176
1
 62
18
420
0
176
1
 90
50
176
1
 90
3
176
1
 62
5
420
255
176
1
290
0
176
1
 90
50
176
1
 90
50
176
1
 90
50
176
1
290
0
176
1
 90
50
176
1
 62
256
176
0
 40
1.0
176
0
 90
2
176
1
  1
strokes_ogs.tif
176
1
290
0
176
1
 40
1.0
176
1
 40
1.0
176
1
  0
VISUALSTYLE
  5
65
102
{ACAD_REACTORS
330
16
102
}
330
16
100
AcDbVisualStyle
  2
GouraudWithEdges
 70
3
177
3
291
1
 70
58
 90
2
176
1
 90
2
176
1
 90
0
176
1
 90
2
176
1
 40
0.6
176
1
 40
30.0
176
1
 62
7
420
16777215
176
1
 90
1
176
1
 90
4
176
1
 62
7
176
1
 62
257
176
1
 90
1
176
1
 90
1
176
1
 40
1.0
176
1
 90
8
176
1
 62
7
176
1
 40
1.0
176
1
 90
1
176
1
 90
6
176
1
 90
2
176
1
 62
7
176
1
 90
5
176
1
 90
0
176
1
 90
0
176
1
290
0
176
1
 90
1
176
1
 40
0.0
176
1
 90
0
176
1
290
0
176
1
290
1
176
1
290
1
176
1
290
0
176
1
290
0
176
1
290
0
176
1
290
0
176
1
290
0
176
1
290
0
176
1
 90
50
176
1
 40
0.0
176
1
 40
1.0
176
1
 90
0
176
1
 62
18
420
0
176
1
 90
50
176
1
 90
3
176
1
 62
5
420
255
176
1
290
0
176
1
 90
50
176
1
 90
50
176
1
 90
50
176
1
290
0
176
1
 90
50
176
1
 62
256
176
0
 40
1.0
176
0
 90
2
176
1
  1
strokes_ogs.tif
176
1
290
0
176
1
 40
1.0
176
1
 40
1.0
176
1
  0
VISUALSTYLE
  5
66
102
{ACAD_REACTORS
330
16
102
}
330
16
100
AcDbVisualStyle
  2
Hidden
 70
6
177
3
291
0
 70
58
 90
2
176
1
 90
2
176
1
 90
0
176
1
 90
1
176
1
 40
0.6
176
1
 40
30.0
176
1
 62
7
420
16777215
176
1
 90
1
176
1
 90
4
176
1
 62
7
176
1
 62
257
176
1
 90
1
176
1
 90
1
176
1
 40
1.0
176
1
 90
8
176
1
 62
7
176
1
 40
1.0
176
1
 90
1
176
1
 90
6
176
1
 90
2
176
1
 62
7
176
1
 90
5
176
1
 90
0
176
1
 90
0
176
1
290
0
176
1
 90
1
176
1
 40
0.0
176
1
 90
0
176
1
290
0
176
1
290
1
176
1
290
1
176
1
290
0
176
1
290
0
176
1
290
0
176
1
290
0
176
1
290
0
176
1
290
0
176
1
 90
50
176
1
 40
0.0
176
1
 40
1.0
176
1
 90
0
176
1
 62
18
420
0
176
1
 90
50
176
1
 90
3
176
1
 62
5
420
255
176
1
290
0
176
1
 90
50
176
1
 90
50
176
1
 90
50
176
1
290
0
176
1
 90
50
176
1
 62
256
176
0
 40
1.0
176
0
 90
2
176
1
  1
strokes_ogs.tif
176
1
290
0
176
1
 40
1.0
176
1
 40
1.0
176
1
  0
VISUALSTYLE
  5
67
102
{ACAD_REACTORS
330
16
102
}
330
16
100
AcDbVisualStyle
  2
JitterOff
 70
20
177
3
291
1
 70
58
 90
2
176
1
 90
2
176
1
 90
0
176
1
 90
2
176
1
 40
0.6
176
1
 40
30.0
176
1
 62
7
420
16777215
176
1
 90
1
176
1
 90
4
176
1
 62
7
176
1
 62
257
176
1
 90
1
176
1
 90
1
176
1
 40
1.0
176
1
 90
8
176
1
 62
7
176
1
 40
1.0
176
1
 90
1
176
1
 90
6
176
1
 90
2
176
1
 62
7
176
1
 90
5
176
1
 90
0
176
1
 90
0
176
1
290
0
176
1
 90
1
176
1
 40
0.0
176
1
 90
0
176
1
290
0
176
1
290
1
176
1
290
1
176
1
290
0
176
1
290
0
176
1
290
0
176
1
290
0
176
1
290
0
176
1
290
0
176
1
 90
50
176
1
 40
0.0
176
1
 40
1.0
176
1
 90
0
176
1
 62
18
420
0
176
1
 90
50
176
1
 90
3
176
1
 62
5
420
255
176
1
290
0
176
1
 90
50
176
1
 90
50
176
1
 90
50
176
1
290
0
176
1
 90
50
176
1
 62
256
176
0
 40
1.0
176
0
 90
2
176
1
  1
strokes_ogs.tif
176
1
290
0
176
1
 40
1.0
176
1
 40
1.0
176
1
  0
VISUALSTYLE
  5
68
102
{ACAD_REACTORS
330
16
102
}
330
16
100
AcDbVisualStyle
  2
Linepattern
 70
14
177
3
291
1
 70
58
 90
2
176
1
 90
2
176
1
 90
0
176
1
 90
2
176
1
 40
0.6
176
1
 40
30.0
176
1
 62
7
420
16777215
176
1
 90
1
176
1
 90
4
176
1
 62
7
176
1
 62
257
176
1
 90
1
176
1
 90
1
176
1
 40
1.0
176
1
 90
8
176
1
 62
7
176
1
 40
1.0
176
1
 90
1
176
1
 90
6
176
1
 90
2
176
1
 62
7
176
1
 90
5
176
1
 90
0
176
1
 90
0
176
1
290
0
176
1
 90
1
176
1
 40
0.0
176
1
 90
0
176
1
290
0
176
1
290
1
176
1
290
1
176
1
290
0
176
1
290
0
176
1
290
0
176
1
290
0
176
1
290
0
176
1
290
0
176
1
 90
50
176
1
 40
0.0
176
1
 40
1.0
176
1
 90
0
176
1
 62
18
420
0
176
1
 90
50
176
1
 90
3
176
1
 62
5
420
255
176
1
290
0
176
1
 90
50
176
1
 90
50
176
1
 90
50
176
1
290
0
176
1
 90
50
176
1
 62
256
176
0
 40
1.0
176
0
 90
2
176
1
  1
strokes_ogs.tif
176
1
290
0
176
1
 40
1.0
176
1
 40
1.0
176
1
  0
VISUALSTYLE
  5
69
102
{ACAD_REACTORS
330
16
102
}
330
16
100
AcDbVisualStyle
  2
Modeling
 70
10
177
3
291
0
 70
58
 90
2
176
1
 90
2
176
1
 90
0
176
1
 90
2
176
1
 40
0.6
176
1
 40
30.0
176
1
 62
7
420
16777215
176
1
 90
1
176
1
 90
4
176
1
 62
7
176
1
 62
257
176
1
 90
1
176
1
 90
1
176
1
 40
1.0
176
1
 90
8
176
1
 62
7
176
1
 40
1.0
176
1
 90
1
176
1
 90
6
176
1
 90
2
176
1
 62
7
176
1
 90
5
176
1
 90
0
176
1
 90
0
176
1
290
0
176
1
 90
1
176
1
 40
0.0
176
1
 90
0
176
1
290
0
176
1
290
1
176
1
290
1
176
1
290
0
176
1
290
0
176
1
290
0
176
1
290
0
176
1
290
0
176
1
290
0
176
1
 90
50
176
1
 40
0.0
176
1
 40
1.0
176
1
 90
0
176
1
 62
18
420
0
176
1
 90
50
176
1
 90
3
176
1
 62
5
420
255
176
1
290
0
176
1
 90
50
176
1
 90
50
176
1
 90
50
176
1
290
0
176
1
 90
50
176
1
 62
256
176
0
 40
1.0
176
0
 90
2
176
1
  1
strokes_ogs.tif
176
1
290
0
176
1
 40
1.0
176
1
 40
1.0
176
1
  0
VISUALSTYLE
  5
6A
102
{ACAD_REACTORS
330
16
102
}
330
16
100
AcDbVisualStyle
  2
OverhangOff
 70
21
177
3
291
1
 70
58
 90
2
176
1
 90
2
176
1
 90
0
176
1
 90
2
176
1
 40
0.6
176
1
 40
30.0
176
1
 62
7
420
16777215
176
1
 90
1
176
1
 90
4
176
1
 62
7
176
1
 62
257
176
1
 90
1
176
1
 90
1
176
1
 40
1.0
176
1
 90
8
176
1
 62
7
176
1
 40
1.0
176
1
 90
1
176
1
 90
6
176
1
 90
2
176
1
 62
7
176
1
 90
5
176
1
 90
0
176
1
 90
0
176
1
290
0
176
1
 90
1
176
1
 40
0.0
176
1
 90
0
176
1
290
0
176
1
290
1
176
1
290
1
176
1
290
0
176
1
290
0
176
1
290
0
176
1
290
0
176
1
290
0
176
1
290
0
176
1
 90
50
176
1
 40
0.0
176
1
 40
1.0
176
1
 90
0
176
1
 62
18
420
0
176
1
 90
50
176
1
 90
3
176
1
 62
5
420
255
176
1
290
0
176
1
 90
50
176
1
 90
50
176
1
 90
50
176
1
290
0
176
1
 90
50
176
1
 62
256
176
0
 40
1.0
176
0
 90
2
176
1
  1
strokes_ogs.tif
176
1
290
0
176
1
 40
1.0
176
1
 40
1.0
176
1
  0
VISUALSTYLE
  5
6B
102
{ACAD_REACTORS
330
16
102
}
330
16
100
AcDbVisualStyle
  2
Realistic
 70
8
177
3
291
0
 70
58
 90
2
176
1
 90
2
176
1
 90
0
176
1
 90
2
176
1
 40
0.6
176
1
 40
30.0
176
1
 62
7
420
16777215
176
1
 90
1
176
1
 90
4
176
1
 62
7
176
1
 62
257
176
1
 90
1
176
1
 90
1
176
1
 40
1.0
176
1
 90
8
176
1
 62
7
176
1
 40
1.0
176
1
 90
1
176
1
 90
6
176
1
 90
2
176
1
 62
7
176
1
 90
5
176
1
 90
0
176
1
 90
0
176
1
290
0
176
1
 90
1
176
1
 40
0.0
176
1
 90
0
176
1
290
0
176
1
290
1
176
1
290
1
176
1
290
0
176
1
290
0
176
1
290
0
176
1
290
0
176
1
290
0
176
1
290
0
176
1
 90
50
176
1
 40
0.0
176
1
 40
1.0
176
1
 90
0
176
1
 62
18
420
0
176
1
 90
50
176
1
 90
3
176
1
 62
5
420
255
176
1
290
0
176
1
 90
50
176
1
 90
50
176
1
 90
50
176
1
290
0
176
1
 90
50
176
1
 62
256
176
0
 40
1.0
176
0
 90
2
176
1
  1
strokes_ogs.tif
176
1
290
0
176
1
 40
1.0
176
1
 40
1.0
176
1
  0
VISUALSTYLE
  5
6C
102
{ACAD_REACTORS
330
16
102
}
330
16
100
AcDbVisualStyle
  2
Shaded
 70
27
177
3
291
0
 70
58
 90
2
176
1
 90
2
176
1
 90
0
176
1
 90
2
176
1
 40
0.6
176
1
 40
30.0
176
1
 62
7
420
16777215
176
1
 90
1
176
1
 90
4
176
1
 62
7
176
1
 62
257
176
1
 90
1
176
1
 90
1
176
1
 40
1.0
176
1
 90
8
176
1
 62
7
176
1
 40
1.0
176
1
 90
1
176
1
 90
6
176
1
 90
2
176
1
 62
7
176
1
 90
5
176
1
 90
0
176
1
 90
0
176
1
290
0
176
1
 90
1
176
1
 40
0.0
176
1
 90
0
176
1
290
0
176
1
290
1
176
1
290
1
176
1
290
0
176
1
290
0
176
1
290
0
176
1
290
0
176
1
290
0
176
1
290
0
176
1
 90
50
176
1
 40
0.0
176
1
 40
1.0
176
1
 90
0
176
1
 62
18
420
0
176
1
 90
50
176
1
 90
3
176
1
 62
5
420
255
176
1
290
0
176
1
 90
50
176
1
 90
50
176
1
 90
50
176
1
290
0
176
1
 90
50
176
1
 62
256
176
0
 40
1.0
176
0
 90
2
176
1
  1
strokes_ogs.tif
176
1
290
0
176
1
 40
1.0
176
1
 40
1.0
176
1
  0
VISUALSTYLE
  5
6D
102
{ACAD_REACTORS
330
16
102
}
330
16
100
AcDbVisualStyle
  2
Shaded with edges
 70
26
177
3
291
0
 70
58
 90
2
176
1
 90
2
176
1
 90
0
176
1
 90
2
176
1
 40
0.6
176
1
 40
30.0
176
1
 62
7
420
16777215
176
1
 90
1
176
1
 90
4
176
1
 62
7
176
1
 62
257
176
1
 90
1
176
1
 90
1
176
1
 40
1.0
176
1
 90
8
176
1
 62
7
176
1
 40
1.0
176
1
 90
1
176
1
 90
6
176
1
 90
2
176
1
 62
7
176
1
 90
5
176
1
 90
0
176
1
 90
0
176
1
290
0
176
1
 90
1
176
1
 40
0.0
176
1
 90
0
176
1
290
0
176
1
290
1
176
1
290
1
176
1
290
0
176
1
290
0
176
1
290
0
176
1
290
0
176
1
290
0
176
1
290
0
176
1
 90
50
176
1
 40
0.0
176
1
 40
1.0
176
1
 90
0
176
1
 62
18
420
0
176
1
 90
50
176
1
 90
3
176
1
 62
5
420
255
176
1
290
0
176
1
 90
50
176
1
 90
50
176
1
 90
50
176
1
290
0
176
1
 90
50
176
1
 62
256
176
0
 40
1.0
176
0
 90
2
176
1
  1
strokes_ogs.tif
176
1
290
0
176
1
 40
1.0
176
1
 40
1.0
176
1
  0
VISUALSTYLE
  5
6E
102
{ACAD_REACTORS
330
16
102
}
330
16
100
AcDbVisualStyle
  2
Shades of Gray
 70
23
177
3
291
0
 70
58
 90
2
176
1
 90
2
176
1
 90
0
176
1
 90
2
176
1
 40
0.6
176
1
 40
30.0
176
1
 62
7
420
16777215
176
1
 90
1
176
1
 90
4
176
1
 62
7
176
1
 62
257
176
1
 90
1
176
1
 90
1
176
1
 40
1.0
176
1
 90
8
176
1
 62
7
176
1
 40
1.0
176
1
 90
1
176
1
 90
6
176
1
 90
2
176
1
 62
7
176
1
 90
5
176
1
 90
0
176
1
 90
0
176
1
290
0
176
1
 90
1
176
1
 40
0.0
176
1
 90
0
176
1
290
0
176
1
290
1
176
1
290
1
176
1
290
0
176
1
290
0
176
1
290
0
176
1
290
0
176
1
290
0
176
1
290
0
176
1
 90
50
176
1
 40
0.0
176
1
 40
1.0
176
1
 90
0
176
1
 62
18
420
0
176
1
 90
50
176
1
 90
3
176
1
 62
5
420
255
176
1
290
0
176
1
 90
50
176
1
 90
50
176
1
 90
50
176
1
290
0
176
1
 90
50
176
1
 62
256
176
0
 40
1.0
176
0
 90
2
176
1
  1
strokes_ogs.tif
176
1
290
0
176
1
 40
1.0
176
1
 40
1.0
176
1
  0
VISUALSTYLE
  5
6F
102
{ACAD_REACTORS
330
16
102
}
330
16
100
AcDbVisualStyle
  2
Sketchy
 70
24
177
3
291
0
 70
58
 90
2
176
1
 90
2
176
1
 90
0
176
1
 90
1
176
1
 40
0.6
176
1
 40
30.0
176
1
 62
7
420
16777215
176
1
 90
1
176
1
 90
4
176
1
 62
7
176
1
 62
257
176
1
 90
1
176
1
 90
1
176
1
 40
1.0
176
1
 90
8
176
1
 62
7
176
1
 40
1.0
176
1
 90
1
176
1
 90
6
176
1
 90
2
176
1
 62
7
176
1
 90
5
176
1
 90
0
176
1
 90
0
176
1
290
0
176
1
 90
1
176
1
 40
0.0
176
1
 90
0
176
1
290
0
176
1
290
1
176
1
290
1
176
1
290
0
176
1
290
0
176
1
290
0
176
1
290
0
176
1
290
0
176
1
290
0
176
1
 90
50
176
1
 40
0.0
176
1
 40
1.0
176
1
 90
0
176
1
 62
18
420
0
176
1
 90
50
176
1
 90
3
176
1
 62
5
420
255
176
1
290
0
176
1
 90
50
176
1
 90
50
176
1
 90
50
176
1
290
0
176
1
 90
50
176
1
 62
256
176
0
 40
1.0
176
0
 90
2
176
1
  1
strokes_ogs.tif
176
1
290
0
176
1
 40
1.0
176
1
 40
1.0
176
1
  0
VISUALSTYLE
  5
70
102
{ACAD_REACTORS
330
16
102
}
330
16
100
AcDbVisualStyle
  2
Thicken
 70
13
177
3
291
1
 70
58
 90
2
176
1
 90
2
176
1
 90
0
176
1
 90
2
176
1
 40
0.6
176
1
 40
30.0
176
1
 62
7
420
16777215
176
1
 90
1
176
1
 90
4
176
1
 62
7
176
1
 62
257
176
1
 90
1
176
1
 90
1
176
1
 40
1.0
176
1
 90
8
176
1
 62
7
176
1
 40
1.0
176
1
 90
1
176
1
 90
6
176
1
 90
2
176
1
 62
7
176
1
 90
5
176
1
 90
0
176
1
 90
0
176
1
290
0
176
1
 90
1
176
1
 40
0.0
176
1
 90
0
176
1
290
0
176
1
290
1
176
1
290
1
176
1
290
0
176
1
290
0
176
1
290
0
176
1
290
0
176
1
290
0
176
1
290
0
176
1
 90
50
176
1
 40
0.0
176
1
 40
1.0
176
1
 90
0
176
1
 62
18
420
0
176
1
 90
50
176
1
 90
3
176
1
 62
5
420
255
176
1
290
0
176
1
 90
50
176
1
 90
50
176
1
 90
50
176
1
290
0
176
1
 90
50
176
1
 62
256
176
0
 40
1.0
176
0
 90
2
176
1
  1
strokes_ogs.tif
176
1
290
0
176
1
 40
1.0
176
1
 40
1.0
176
1
  0
VISUALSTYLE
  5
71
102
{ACAD_REACTORS
330
16
102
}
330
16
100
AcDbVisualStyle
  2
Wireframe
 70
5
177
3
291
0
 70
58
 90
2
176
1
 90
2
176
1
 90
0
176
1
 90
0
176
1
 40
0.6
176
1
 40
30.0
176
1
 62
7
420
16777215
176
1
 90
1
176
1
 90
4
176
1
 62
7
176
1
 62
257
176
1
 90
1
176
1
 90
1
176
1
 40
1.0
176
1
 90
8
176
1
 62
7
176
1
 40
1.0
176
1
 90
1
176
1
 90
6
176
1
 90
2
176
1
 62
7
176
1
 90
5
176
1
 90
0
176
1
 90
0
176
1
290
0
176
1
 90
1
176
1
 40
0.0
176
1
 90
0
176
1
290
0
176
1
290
1
176
1
290
1
176
1
290
0
176
1
290
0
176
1
290
0
176
1
290
0
176
1
290
0
176
1
290
0
176
1
 90
50
176
1
 40
0.0
176
1
 40
1.0
176
1
 90
0
176
1
 62
18
420
0
176
1
 90
50
176
1
 90
3
176
1
 62
5
420
255
176
1
290
0
176
1
 90
50
176
1
 90
50
176
1
 90
50
176
1
290
0
176
1
 90
50
176
1
 62
256
176
0
 40
1.0
176
0
 90
2
176
1
  1
strokes_ogs.tif
176
1
290
0
176
1
 40
1.0
176
1
 40
1.0
176
1
  0
VISUALSTYLE
  5
72
102
{ACAD_REACTORS
330
16
102
}
330
16
100
AcDbVisualStyle
  2
X-Ray
 70
25
177
3
291
0
 70
58
 90
2
176
1
 90
2
176
1
 90
0
176
1
 90
2
176
1
 40
0.5
176
1
 40
30.0
176
1
 62
7
420
16777215
176
1
 90
1
176
1
 90
4
176
1
 62
7
176
1
 62
257
176
1
 90
1
176
1
 90
1
176
1
 40
1.0
176
1
 90
8
176
1
 62
7
176
1
 40
1.0
176
1
 90
1
176
1
 90
6
176
1
 90
2
176
1
 62
7
176
1
 90
5
176
1
 90
0
176
1
 90
0
176
1
290
0
176
1
 90
1
176
1
 40
0.0
176
1
 90
0
176
1
290
0
176
1
290
1
176
1
290
1
176
1
290
0
176
1
290
0
176
1
290
0
176
1
290
0
176
1
290
0
176
1
290
0
176
1
 90
50
176
1
 40
0.0
176
1
 40
1.0
176
1
 90
0
176
1
 62
18
420
0
176
1
 90
50
176
1
 90
3
176
1
 62
5
420
255
176
1
290
0
176
1
 90
50
176
1
 90
50
176
1
 90
50
176
1
290
0
176
1
 90
50
176
1
 62
256
176
0
 40
1.0
176
0
 90
2
176
1
  1
strokes_ogs.tif
176
1
290
0
176
1
 40
1.0
176
1
 40
1.0
176
1
  0
DICTIONARYVAR
  5
9C
330
2D
100
DictionaryVariables
280
0
  1
1.3.3 @ 2025-08-01T12:07:17.710876+00:00
  0
ENDSEC
  0
EOF
